<svg width="300" height="300" version="1.1" viewBox="0 0 79.375 79.375" xmlns="http://www.w3.org/2000/svg">
 <defs>
  <clipPath id="clipPath18">
   <path d="M 0,57.264 H 122.354 V 0 H 0 Z"/>
  </clipPath>
 </defs>
 <g transform="matrix(.72156 0 0 .72156 11.05 -145.98)">
  <g transform="translate(-3.0069,-4.6574e-6)">
   <g transform="matrix(.98162 0 0 .98162 123.29 270.93)">
    <g transform="translate(-.5854 1.6087)">
     <g transform="matrix(.56746 0 0 -.56746 -116.05 .68086)">
      <g clip-path="url(#clipPath18)">
       <g transform="translate(27.758,36.751)">
        <path d="m0 0c0 3.5-2.345 5.495-6.826 5.495h-5.95v-11.025h5.95c4.481 0 6.826 2.03 6.826 5.53m0.105-15.962-5.286 7.526c-0.489-0.035-1.015-0.07-1.54-0.07h-6.055v-7.456h-3.501v24.503h9.556c6.371 0 10.221-3.221 10.221-8.541 0-3.78-1.96-6.511-5.39-7.735l5.81-8.227z" style="fill:#14171a"/>
       </g>
       <g transform="translate(59.013,23.835)">
        <path d="m0 0v-3.046h-17.781v24.503h17.292v-3.046h-13.792v-7.525h12.286v-2.976h-12.286v-7.91z" style="fill:#14171a"/>
       </g>
       <path d="m68.986 45.292h3.5v-24.502h-3.5z" style="fill:#cc1417"/>
       <g transform="translate(106.86,20.789)">
        <path d="m0 0-0.035 17.852-8.856-14.876h-1.61l-8.855 14.771v-17.747h-3.361v24.502h2.87l10.221-17.221 10.081 17.221h2.87l0.035-24.502z" style="fill:#14171a"/>
       </g>
       <g transform="translate(14.27,15.604)">
        <path d="m0 0c0 0.6-0.402 0.941-1.169 0.941h-1.019v-1.888h1.019c0.767 0 1.169 0.347 1.169 0.947m0.018-2.734-0.905 1.289c-0.084-6e-3 -0.174-0.012-0.264-0.012h-1.037v-1.277h-0.6v4.197h1.637c1.091 0 1.751-0.552 1.751-1.463 0-0.647-0.336-1.115-0.924-1.325l0.996-1.409z" style="fill:#14171a"/>
       </g>
       <g transform="translate(16.041,14.68)">
        <path d="m0 0h2.039c-0.06 0.534-0.462 0.912-1.019 0.912-0.552 0-0.96-0.372-1.02-0.912m2.579-0.413h-2.579c0.072-0.558 0.521-0.93 1.151-0.93 0.372 0 0.684 0.126 0.918 0.384l0.318-0.372c-0.288-0.336-0.726-0.516-1.254-0.516-1.025 0-1.709 0.678-1.709 1.625 0 0.942 0.678 1.619 1.596 1.619 0.917 0 1.57-0.659 1.57-1.636 0-0.048-6e-3 -0.12-0.011-0.174" style="fill:#14171a"/>
       </g>
       <g transform="translate(21.284,13.841)">
        <path d="m0 0v0.443h-0.888c-0.57 0-0.731-0.221-0.731-0.491 0-0.318 0.264-0.515 0.702-0.515 0.431 0 0.773 0.197 0.917 0.563m0.576 0.947v-1.919h-0.546v0.42c-0.192-0.288-0.546-0.456-1.044-0.456-0.719 0-1.175 0.384-1.175 0.936 0 0.509 0.33 0.929 1.277 0.929h0.912v0.115c0 0.485-0.282 0.767-0.852 0.767-0.377 0-0.761-0.133-1.007-0.342l-0.24 0.432c0.33 0.264 0.804 0.407 1.313 0.407 0.87 0 1.362-0.42 1.362-1.289" style="fill:#14171a"/>
       </g>
       <path d="m22.929 17.318h0.576v-4.449h-0.576z" style="fill:#14171a"/>
       <g transform="translate(29.347,13.391)">
        <path d="m0 0v-0.521h-3.046v4.197h2.962v-0.522h-2.362v-1.289h2.104v-0.51h-2.104v-1.355z" style="fill:#14171a"/>
       </g>
       <g transform="translate(29.793,13.205)">
        <path d="m0 0 0.24 0.456c0.27-0.192 0.701-0.33 1.115-0.33 0.534 0 0.756 0.162 0.756 0.432 0 0.713-2.009 0.095-2.009 1.361 0 0.569 0.509 0.953 1.325 0.953 0.414 0 0.882-0.107 1.157-0.288l-0.246-0.455c-0.287 0.185-0.605 0.252-0.917 0.252-0.504 0-0.75-0.187-0.75-0.439 0-0.749 2.016-0.137 2.016-1.373 0-0.575-0.528-0.941-1.374-0.941-0.527 0-1.049 0.162-1.313 0.372" style="fill:#14171a"/>
       </g>
       <g transform="translate(34.987,13.055)">
        <path d="m0 0c-0.174-0.149-0.437-0.222-0.695-0.222-0.642 0-1.008 0.354-1.008 0.996v1.745h-0.54v0.474h0.54v0.695h0.576v-0.695h0.911v-0.474h-0.911v-1.721c0-0.342 0.18-0.533 0.498-0.533 0.168 0 0.329 0.053 0.449 0.149z" style="fill:#14171a"/>
       </g>
       <g transform="translate(37.628,13.841)">
        <path d="m0 0v0.443h-0.888c-0.57 0-0.731-0.221-0.731-0.491 0-0.318 0.264-0.515 0.702-0.515 0.431 0 0.773 0.197 0.917 0.563m0.576 0.947v-1.919h-0.546v0.42c-0.192-0.288-0.546-0.456-1.044-0.456-0.719 0-1.175 0.384-1.175 0.936 0 0.509 0.33 0.929 1.277 0.929h0.912v0.115c0 0.485-0.282 0.767-0.852 0.767-0.377 0-0.761-0.133-1.007-0.342l-0.24 0.432c0.33 0.264 0.804 0.407 1.313 0.407 0.87 0 1.362-0.42 1.362-1.289" style="fill:#14171a"/>
       </g>
       <g transform="translate(41.059,13.055)">
        <path d="m0 0c-0.174-0.149-0.437-0.222-0.695-0.222-0.642 0-1.008 0.354-1.008 0.996v1.745h-0.54v0.474h0.54v0.695h0.576v-0.695h0.911v-0.474h-0.911v-1.721c0-0.342 0.18-0.533 0.498-0.533 0.168 0 0.329 0.053 0.449 0.149z" style="fill:#14171a"/>
       </g>
       <g transform="translate(41.93,14.68)">
        <path d="m0 0h2.039c-0.06 0.534-0.462 0.912-1.019 0.912-0.552 0-0.96-0.372-1.02-0.912m2.579-0.413h-2.579c0.072-0.558 0.521-0.93 1.151-0.93 0.372 0 0.684 0.126 0.918 0.384l0.318-0.372c-0.288-0.336-0.726-0.516-1.254-0.516-1.025 0-1.709 0.678-1.709 1.625 0 0.942 0.678 1.619 1.596 1.619 0.917 0 1.57-0.659 1.57-1.636 0-0.048-6e-3 -0.12-0.011-0.174" style="fill:#14171a"/>
       </g>
       <path d="m47.018 17.066h0.6v-4.197h-0.6z" style="fill:#cc1417"/>
       <g transform="translate(51.81,14.698)">
        <path d="m0 0v-1.829h-0.575v1.763c0 0.624-0.313 0.929-0.858 0.929-0.612 0-1.007-0.365-1.007-1.055v-1.637h-0.576v3.179h0.551v-0.481c0.234 0.324 0.642 0.51 1.146 0.51 0.773 0 1.319-0.443 1.319-1.379" style="fill:#cc1417"/>
       </g>
       <g transform="translate(54.666,13.055)">
        <path d="m0 0c-0.174-0.149-0.437-0.222-0.695-0.222-0.642 0-1.007 0.354-1.007 0.996v1.745h-0.54v0.474h0.54v0.695h0.575v-0.695h0.911v-0.474h-0.911v-1.721c0-0.342 0.18-0.533 0.498-0.533 0.168 0 0.329 0.053 0.449 0.149z" style="fill:#cc1417"/>
       </g>
       <g transform="translate(55.537,14.68)">
        <path d="m0 0h2.039c-0.06 0.534-0.462 0.912-1.019 0.912-0.552 0-0.959-0.372-1.02-0.912m2.579-0.413h-2.579c0.072-0.558 0.521-0.93 1.151-0.93 0.372 0 0.684 0.126 0.918 0.384l0.318-0.372c-0.288-0.336-0.726-0.516-1.253-0.516-1.026 0-1.709 0.678-1.709 1.625 0 0.942 0.678 1.619 1.595 1.619s1.571-0.659 1.571-1.636c0-0.048-6e-3 -0.12-0.012-0.174" style="fill:#cc1417"/>
       </g>
       <path d="m58.928 17.318h0.575v-4.449h-0.575z" style="fill:#cc1417"/>
       <path d="m60.602 17.318h0.575v-4.449h-0.575z" style="fill:#cc1417"/>
       <path d="m62.275 16.048h0.575v-3.179h-0.575zm-0.102 0.983c0 0.21 0.168 0.377 0.391 0.377 0.221 0 0.389-0.161 0.389-0.365 0-0.216-0.162-0.384-0.389-0.384-0.223 0-0.391 0.162-0.391 0.372" style="fill:#cc1417"/>
       <g transform="translate(66.426,14.542)">
        <path d="m0 0c0 0.618-0.456 1.031-1.092 1.031-0.641 0-1.096-0.413-1.096-1.031 0-0.611 0.455-1.037 1.096-1.037 0.636 0 1.092 0.426 1.092 1.037m0.563 1.506v-2.747c0-1.121-0.569-1.631-1.649-1.631-0.581 0-1.169 0.162-1.517 0.474l0.276 0.443c0.294-0.252 0.756-0.413 1.223-0.413 0.75 0 1.092 0.347 1.092 1.067v0.252c-0.276-0.33-0.69-0.492-1.145-0.492-0.918 0-1.614 0.624-1.614 1.541 0 0.918 0.696 1.535 1.614 1.535 0.473 0 0.905-0.174 1.175-0.521v0.492z" style="fill:#cc1417"/>
       </g>
       <g transform="translate(68.37,14.68)">
        <path d="m0 0h2.039c-0.06 0.534-0.462 0.912-1.019 0.912-0.552 0-0.959-0.372-1.02-0.912m2.579-0.413h-2.579c0.072-0.558 0.522-0.93 1.151-0.93 0.372 0 0.684 0.126 0.918 0.384l0.318-0.372c-0.287-0.336-0.726-0.516-1.253-0.516-1.026 0-1.709 0.678-1.709 1.625 0 0.942 0.678 1.619 1.595 1.619s1.571-0.659 1.571-1.636c0-0.048-6e-3 -0.12-0.012-0.174" style="fill:#cc1417"/>
       </g>
       <g transform="translate(74.778,14.698)">
        <path d="m0 0v-1.829h-0.576v1.763c0 0.624-0.312 0.929-0.858 0.929-0.611 0-1.007-0.365-1.007-1.055v-1.637h-0.576v3.179h0.552v-0.481c0.234 0.324 0.642 0.51 1.146 0.51 0.773 0 1.319-0.443 1.319-1.379" style="fill:#cc1417"/>
       </g>
       <g transform="translate(77.634,13.055)">
        <path d="m0 0c-0.174-0.149-0.438-0.222-0.696-0.222-0.642 0-1.007 0.354-1.007 0.996v1.745h-0.54v0.474h0.54v0.695h0.575v-0.695h0.912v-0.474h-0.912v-1.721c0-0.342 0.18-0.533 0.498-0.533 0.168 0 0.33 0.053 0.449 0.149z" style="fill:#cc1417"/>
       </g>
       <g transform="translate(83.921,12.869)">
        <path d="m0 0-6e-3 3.059-1.517-2.549h-0.276l-1.517 2.53v-3.04h-0.576v4.197h0.492l1.751-2.95 1.727 2.95h0.491l7e-3 -4.197z" style="fill:#14171a"/>
       </g>
       <g transform="translate(87.617,13.841)">
        <path d="m0 0v0.443h-0.887c-0.57 0-0.732-0.221-0.732-0.491 0-0.318 0.265-0.515 0.702-0.515 0.432 0 0.773 0.197 0.917 0.563m0.576 0.947v-1.919h-0.546v0.42c-0.191-0.288-0.546-0.456-1.043-0.456-0.719 0-1.175 0.384-1.175 0.936 0 0.509 0.33 0.929 1.277 0.929h0.911v0.115c0 0.485-0.281 0.767-0.852 0.767-0.377 0-0.76-0.133-1.006-0.342l-0.241 0.432c0.33 0.264 0.804 0.407 1.314 0.407 0.869 0 1.361-0.42 1.361-1.289" style="fill:#14171a"/>
       </g>
       <g transform="translate(90.972,16.077)">
        <path d="m0 0v-0.558c-0.048 6e-3 -0.09 6e-3 -0.132 6e-3 -0.618 0-1.002-0.378-1.002-1.073v-1.583h-0.575v3.179h0.552v-0.534c0.204 0.372 0.599 0.563 1.157 0.563" style="fill:#14171a"/>
       </g>
       <g transform="translate(92.916,14.351)">
        <path d="m0 0-0.66-0.612v-0.869h-0.575v4.449h0.575v-2.855l1.733 1.584h0.696l-1.337-1.313 1.468-1.865h-0.707z" style="fill:#14171a"/>
       </g>
       <g transform="translate(95.526,14.68)">
        <path d="m0 0h2.039c-0.06 0.534-0.462 0.912-1.019 0.912-0.552 0-0.959-0.372-1.02-0.912m2.579-0.413h-2.579c0.072-0.558 0.522-0.93 1.151-0.93 0.372 0 0.684 0.126 0.918 0.384l0.318-0.372c-0.287-0.336-0.726-0.516-1.253-0.516-1.026 0-1.709 0.678-1.709 1.625 0 0.942 0.678 1.619 1.595 1.619s1.571-0.659 1.571-1.636c0-0.048-6e-3 -0.12-0.012-0.174" style="fill:#14171a"/>
       </g>
       <g transform="translate(100.7,13.055)">
        <path d="m0 0c-0.174-0.149-0.438-0.222-0.696-0.222-0.642 0-1.007 0.354-1.007 0.996v1.745h-0.54v0.474h0.54v0.695h0.575v-0.695h0.912v-0.474h-0.912v-1.721c0-0.342 0.18-0.533 0.498-0.533 0.168 0 0.33 0.053 0.449 0.149z" style="fill:#14171a"/>
       </g>
       <path d="m101.4 16.048h0.575v-3.179h-0.575zm-0.102 0.983c0 0.21 0.168 0.377 0.391 0.377 0.221 0 0.389-0.161 0.389-0.365 0-0.216-0.162-0.384-0.389-0.384-0.223 0-0.391 0.162-0.391 0.372" style="fill:#14171a"/>
       <g transform="translate(106.09,14.698)">
        <path d="m0 0v-1.829h-0.576v1.763c0 0.624-0.312 0.929-0.858 0.929-0.611 0-1.007-0.365-1.007-1.055v-1.637h-0.576v3.179h0.552v-0.481c0.234 0.324 0.642 0.51 1.146 0.51 0.773 0 1.319-0.443 1.319-1.379" style="fill:#14171a"/>
       </g>
       <g transform="translate(109.66,14.542)">
        <path d="m0 0c0 0.618-0.456 1.031-1.092 1.031-0.641 0-1.096-0.413-1.096-1.031 0-0.611 0.455-1.037 1.096-1.037 0.636 0 1.092 0.426 1.092 1.037m0.563 1.506v-2.747c0-1.121-0.569-1.631-1.649-1.631-0.581 0-1.169 0.162-1.517 0.474l0.276 0.443c0.294-0.252 0.756-0.413 1.223-0.413 0.75 0 1.092 0.347 1.092 1.067v0.252c-0.276-0.33-0.69-0.492-1.145-0.492-0.918 0-1.614 0.624-1.614 1.541 0 0.918 0.696 1.535 1.614 1.535 0.473 0 0.905-0.174 1.175-0.521v0.492z" style="fill:#14171a"/>
       </g>
      </g>
     </g>
    </g>
   </g>
  </g>
 </g>
</svg>
