<svg width="300" height="300" version="1.1" viewBox="0 0 79.375 79.375" xmlns="http://www.w3.org/2000/svg">
 <defs>
  <clipPath id="clipPath18-1">
   <path d="M 0,255.237 H 306.118 V 0 H 0 Z"/>
  </clipPath>
 </defs>
 <g transform="matrix(.72157 0 0 .72157 11.051 -145.98)">
  <g transform="translate(-3.0069,-4.6574e-6)">
   <g transform="matrix(.98162 0 0 .98162 123.29 270.93)">
    <g transform="translate(-.5854 1.6087)">
     <g transform="matrix(.22416 0 0 -.22416 -115.83 13.161)">
      <g clip-path="url(#clipPath18-1)">
       <g transform="translate(49.18,56.16)">
        <path d="m0 0c0.226-0.214 0.34-0.493 0.34-0.84s-0.114-0.62-0.34-0.82c-0.227-0.198-0.514-0.3-0.86-0.3h-8.28v-24.519c0-0.347-0.12-0.634-0.36-0.861-0.24-0.225-0.534-0.34-0.88-0.34-0.374 0-0.674 0.115-0.9 0.34-0.227 0.227-0.34 0.514-0.34 0.861v24.519h-8.28c-0.347 0-0.634 0.106-0.86 0.32-0.227 0.213-0.34 0.494-0.34 0.84 0 0.321 0.113 0.586 0.34 0.8 0.226 0.214 0.513 0.32 0.86 0.32h19.04c0.346 0 0.633-0.106 0.86-0.32" style="fill:#1d1d1b"/>
       </g>
       <g transform="translate(74.98,30.48)">
        <path d="m0 0c0.226-0.24 0.34-0.52 0.34-0.84 0-0.347-0.114-0.627-0.34-0.84-0.227-0.214-0.514-0.32-0.86-0.32h-14.68c-0.347 0-0.634 0.113-0.86 0.34-0.227 0.226-0.34 0.514-0.34 0.86v25.6c0 0.346 0.113 0.635 0.34 0.86 0.226 0.227 0.513 0.34 0.86 0.34h14.68c0.346 0 0.633-0.113 0.86-0.34 0.226-0.225 0.34-0.514 0.34-0.86 0-0.347-0.114-0.627-0.34-0.84-0.227-0.214-0.514-0.319-0.86-0.319h-13.36v-10.04h11.56c0.346 0 0.633-0.115 0.86-0.341 0.226-0.227 0.34-0.514 0.34-0.86 0-0.347-0.114-0.627-0.34-0.839-0.227-0.214-0.514-0.321-0.86-0.321h-11.56v-10.88h13.36c0.346 0 0.633-0.12 0.86-0.36" style="fill:#1d1d1b"/>
       </g>
       <g transform="translate(105.52,29.6)">
        <path d="m0 0c0-0.347-0.12-0.627-0.36-0.84-0.24-0.214-0.52-0.32-0.84-0.32-0.267 0-0.5 0.073-0.7 0.221-0.2 0.145-0.354 0.338-0.46 0.58l-3 7.319h-13l-2.96-7.319c-0.214-0.535-0.574-0.801-1.08-0.801-0.374 0-0.654 0.094-0.84 0.28-0.187 0.186-0.294 0.441-0.32 0.76v0.12c0 0.16 0.013 0.28 0.04 0.36l10.56 25.84c0.213 0.533 0.613 0.8 1.2 0.8 0.266 0 0.5-0.074 0.7-0.22 0.2-0.147 0.353-0.341 0.46-0.58l10.52-25.721c0.053-0.211 0.08-0.373 0.08-0.479m-17.441 9.32h11.121l-5.601 13.68z" style="fill:#1d1d1b"/>
       </g>
       <g transform="translate(135.4,29.6)">
        <path d="m0 0c0-0.399-0.14-0.714-0.42-0.939-0.28-0.227-0.594-0.341-0.94-0.341-0.347 0-0.64 0.147-0.88 0.44l-11.16 14.04-5.44-5.12v-7.96c-0.027-0.374-0.16-0.674-0.4-0.9-0.24-0.227-0.534-0.34-0.88-0.34-0.374 0-0.674 0.113-0.9 0.34-0.227 0.226-0.34 0.526-0.34 0.9v25.52c0 0.373 0.12 0.673 0.36 0.9 0.24 0.228 0.546 0.34 0.92 0.34 0.373 0 0.673-0.112 0.9-0.34 0.226-0.227 0.34-0.527 0.34-0.9v-14.52l16.16 15.279c0.24 0.267 0.533 0.401 0.88 0.401 0.32 0 0.593-0.12 0.82-0.361 0.226-0.239 0.34-0.505 0.34-0.799 0-0.32-0.12-0.6-0.36-0.84l-10.48-9.8 11.2-14.16c0.186-0.267 0.28-0.547 0.28-0.84" style="fill:#1d1d1b"/>
       </g>
       <g transform="translate(177.76,56.24)">
        <path d="m0 0c0.239-0.214 0.359-0.507 0.359-0.88l-0.08-0.518-8.84-25.602c-0.08-0.24-0.218-0.427-0.418-0.56-0.202-0.132-0.42-0.2-0.662-0.2-0.613 0-1.012 0.253-1.199 0.76l-6.921 17.08-6.919-17.08c-0.239-0.507-0.64-0.76-1.2-0.76-0.24 0-0.46 0.068-0.66 0.2-0.2 0.133-0.327 0.32-0.379 0.56l-8.841 25.602c-0.08 0.158-0.12 0.318-0.12 0.478 0 0.373 0.14 0.673 0.421 0.9 0.279 0.226 0.579 0.34 0.899 0.34 0.267 0 0.506-0.067 0.72-0.2 0.214-0.134 0.361-0.32 0.44-0.558l7.84-22.88 6.72 16.758c0.239 0.535 0.612 0.788 1.119 0.76 0.267 0.028 0.5-0.034 0.7-0.179 0.202-0.148 0.354-0.339 0.46-0.581l6.681-16.758 7.76 22.88c0.214 0.504 0.613 0.758 1.2 0.758 0.373 0 0.681-0.107 0.92-0.32" style="fill:#1d1d1b"/>
       </g>
       <g transform="translate(209.72,35.08)">
        <path d="m0 0c-1.146-2.187-2.733-3.898-4.76-5.14-2.026-1.24-4.334-1.86-6.921-1.86s-4.892 0.62-6.92 1.86c-2.026 1.242-3.613 2.953-4.758 5.14-1.148 2.188-1.721 4.653-1.721 7.4 0 2.774 0.573 5.253 1.721 7.441 1.145 2.185 2.732 3.892 4.758 5.119 2.028 1.227 4.333 1.841 6.92 1.841s4.895-0.614 6.921-1.841c2.027-1.227 3.614-2.934 4.76-5.119 1.146-2.188 1.721-4.667 1.721-7.441 0-2.747-0.575-5.212-1.721-7.4m-2.221 13.62c-0.92 1.826-2.199 3.246-3.84 4.261-1.638 1.014-3.512 1.519-5.62 1.519-2.105 0-3.978-0.505-5.619-1.519-1.639-1.015-2.921-2.435-3.841-4.261s-1.38-3.899-1.38-6.22c0-2.32 0.46-4.393 1.38-6.219 0.92-1.827 2.202-3.246 3.841-4.261 1.641-1.014 3.514-1.52 5.619-1.52 2.108 0 3.982 0.506 5.62 1.52 1.641 1.015 2.92 2.434 3.84 4.261 0.921 1.826 1.381 3.899 1.381 6.219 0 2.321-0.46 4.394-1.381 6.22" style="fill:#1d1d1b"/>
       </g>
       <g transform="translate(243.96,35.08)">
        <path d="m0 0c-1.146-2.187-2.732-3.898-4.76-5.14-2.027-1.24-4.334-1.86-6.92-1.86-2.587 0-4.892 0.62-6.92 1.86-2.027 1.242-3.614 2.953-4.758 5.14-1.149 2.188-1.722 4.653-1.722 7.4 0 2.774 0.573 5.253 1.722 7.441 1.144 2.185 2.731 3.892 4.758 5.119 2.028 1.227 4.333 1.841 6.92 1.841 2.586 0 4.893-0.614 6.92-1.841 2.028-1.227 3.614-2.934 4.76-5.119 1.146-2.188 1.722-4.667 1.722-7.441 0-2.747-0.576-5.212-1.722-7.4m-2.22 13.62c-0.92 1.826-2.2 3.246-3.84 4.261-1.639 1.014-3.512 1.519-5.62 1.519-2.107 0-3.98-0.505-5.62-1.519-1.638-1.015-2.92-2.435-3.84-4.261s-1.38-3.899-1.38-6.22c0-2.32 0.46-4.393 1.38-6.219 0.92-1.827 2.202-3.246 3.84-4.261 1.64-1.014 3.513-1.52 5.62-1.52 2.108 0 3.981 0.506 5.62 1.52 1.64 1.015 2.92 2.434 3.84 4.261 0.92 1.826 1.38 3.899 1.38 6.219 0 2.321-0.46 4.394-1.38 6.22" style="fill:#1d1d1b"/>
       </g>
       <g transform="translate(272.82,54.58)">
        <path d="m0 0c1.746-1.267 3.054-2.96 3.92-5.08 0.866-2.119 1.301-4.46 1.301-7.02 0-2.639-0.435-5.013-1.301-7.12-0.866-2.106-2.174-3.78-3.92-5.019-1.747-1.24-3.899-1.861-6.46-1.861h-10.199c-0.348 0-0.635 0.114-0.862 0.34-0.226 0.227-0.338 0.514-0.338 0.862v25.598c0 0.347 0.112 0.634 0.338 0.862 0.227 0.225 0.514 0.338 0.862 0.338h10.199c2.561 0 4.713-0.632 6.46-1.9m0.301-20.52c1.572 2.147 2.358 4.955 2.358 8.42 0 2.162-0.333 4.114-1 5.861-0.666 1.746-1.713 3.145-3.138 4.199-1.427 1.054-3.22 1.58-5.38 1.58h-8.482v-23.279h8.482c3.2 0 5.586 1.073 7.16 3.219" style="fill:#1d1d1b"/>
       </g>
       <g transform="translate(159.68,197.96)">
        <path d="m0 0h19.51c0.754 0 1.318-0.636 1.318-1.335v-79.983c0-0.763-0.564-1.399-1.318-1.399h-19.51c-0.753 0-1.317 0.636-1.317 1.399v79.983c0 0.699 0.564 1.335 1.317 1.335" style="fill:#fecc04"/>
       </g>
       <g transform="translate(223.61,226.06)">
        <path d="m0 0c-8.469-6.994-18.067-11.444-27.666-17.484h-69.072c-0.752 0-1.317 0.508-1.317 1.081v16.657c0 0.636 0.565 1.145 1.317 1.145h96.174c1.505 0.127 0.564-0.89 0.564-1.399" style="fill:#0e6e97"/>
       </g>
       <g transform="translate(194.06,197.96)">
        <path d="m0 0h27.917c1.067 0 1.945-0.636 1.945-1.335v-107.7c0-0.763-0.063-2.162-1.882-1.273-7.717 6.359-16.939 18.439-18.131 20.664-1.882 3.433-11.355 86.277-11.731 88.312-0.126 0.699 0.878 1.335 1.882 1.335" style="fill:#4cb79d"/>
       </g>
       <g transform="translate(146.38,115.24)">
        <path d="m0 0h-19.511c-0.752 0-1.317 0.636-1.317 1.399v79.982c0 0.7 0.565 1.336 1.317 1.336h19.511c0.753 0 1.317-0.636 1.317-1.336v-79.982c0-0.763-0.564-1.399-1.317-1.399" style="fill:#927c6f"/>
       </g>
       <g transform="translate(82.458,87.142)">
        <path d="m0 0c8.469 6.994 18.068 11.444 27.666 17.484h69.071c0.753 0 1.318-0.507 1.318-1.08v-16.658c0-0.636-0.565-1.144-1.318-1.144h-96.172c-1.443-0.064-0.565 0.889-0.565 1.398" style="fill:#d28e5f"/>
       </g>
       <g transform="translate(112.01,115.24)">
        <path d="m0 0h-27.917c-1.067 0-1.882 0.636-1.882 1.399v107.64c0 0.763 0 2.162 1.819 1.272 7.717-6.358 16.939-18.438 18.131-20.663 1.882-3.433 11.355-86.277 11.731-88.248 0.126-0.763-0.878-1.399-1.882-1.399" style="fill:#ec664e"/>
       </g>
      </g>
     </g>
    </g>
   </g>
  </g>
 </g>
</svg>
