<svg width="300" height="300" version="1.1" viewBox="0 0 79.375 79.375" xmlns="http://www.w3.org/2000/svg">
 <defs>
  <clipPath id="clipPath22">
   <path d="m0 358h394.67v-358h-394.67z"/>
  </clipPath>
  <clipPath id="clipPath22-2">
   <path d="m0 358h394.67v-358h-394.67z"/>
  </clipPath>
 </defs>
 <g transform="matrix(.7216 0 0 .7216 11.05 -145.99)">
  <g transform="translate(-3.0069,-4.6574e-6)">
   <g transform="matrix(.98162 0 0 .98162 123.29 270.93)">
    <g transform="translate(-.5854 1.6087)">
     <g transform="matrix(.19697 0 0 -.19697 -120.39 19.777)">
      <g clip-path="url(#clipPath22)">
       <g transform="translate(32.276,-48.733)">
        <g clip-path="url(#clipPath22-2)">
         <g transform="scale(1,-1)" style="fill:#000000" aria-label="ANNA LAURINI">
          <g transform="translate(24.297,-1.9394)">
           <path d="m14.514-218.52h-7.8524l-1.0805 3.6827h-7.0459l8.3851-22.309h7.5177l8.3851 22.309h-7.2133zm-1.4457-4.8241-2.4653-8.0198-2.4501 8.0198z" style="stroke-width:1.1687"/>
           <path d="m27.982-237.15h6.4372l8.4003 12.342v-12.342h6.4981v22.309h-6.4981l-8.3546-12.25v12.25h-6.4828z" style="stroke-width:1.1687"/>
           <path d="m56.896-237.15h6.4372l8.4003 12.342v-12.342h6.4981v22.309h-6.4981l-8.3546-12.25v12.25h-6.4828z" style="stroke-width:1.1687"/>
           <path d="m99.186-218.52h-7.8524l-1.0805 3.6827h-7.0459l8.3851-22.309h7.5177l8.3851 22.309h-7.2133zm-1.4457-4.8241-2.4653-8.0198-2.4501 8.0198z" style="stroke-width:1.1687"/>
           <path d="m125.94-237.15h6.8937v16.816h10.759v5.4937h-17.653z" style="stroke-width:1.1687"/>
           <path d="m163.41-218.52h-7.8524l-1.0805 3.6827h-7.0459l8.3851-22.309h7.5176l8.3851 22.309h-7.2133zm-1.4457-4.8241-2.4653-8.0198-2.4501 8.0198z" style="stroke-width:1.1687"/>
           <path d="m190.31-237.15h6.8785v13.3q0 1.9783-0.62393 3.7436-0.60872 1.7501-1.9327 3.074-1.3087 1.3087-2.7544 1.8414-2.0088 0.74568-4.8241 0.74568-1.6283 0-3.561-0.22827-1.9174-0.22827-3.211-0.89786-1.2935-0.6848-2.374-1.9327-1.0653-1.2479-1.4609-2.5718-0.63915-2.1305-0.63915-3.774v-13.3h6.8785v13.62q0 1.8262 1.0044 2.861 1.0196 1.0196 2.8153 1.0196 1.7805 0 2.7849-1.0044 1.0196-1.0196 1.0196-2.8762z" style="stroke-width:1.1687"/>
           <path d="m204.8-214.84v-22.309h11.49q3.1958 0 4.885 0.54784 1.6892 0.54785 2.724 2.0392 1.0348 1.4761 1.0348 3.6066 0 1.8566-0.79133 3.211-0.79134 1.3392-2.1762 2.1762-0.88263 0.53263-2.4196 0.88264 1.2326 0.41089 1.7957 0.82177 0.38045 0.27392 1.0957 1.1718 0.73046 0.89786 0.97395 1.3848l3.3327 6.4676h-7.7916l-3.6827-6.8176q-0.70002-1.324-1.2479-1.7196-0.74568-0.51741-1.6892-0.51741h-0.60871v9.0547zm6.9242-13.27h2.9066q0.47175 0 1.8262-0.30436 0.6848-0.13696 1.1109-0.70002 0.44132-0.56307 0.44132-1.2935 0-1.0805-0.68481-1.6588t-2.5718-0.57828h-3.0284z" style="stroke-width:1.1687"/>
           <path d="m232.13-237.15h6.9089v22.309h-6.9089z" style="stroke-width:1.1687"/>
           <path d="m246.94-237.15h6.4372l8.4003 12.342v-12.342h6.498v22.309h-6.498l-8.3546-12.25v12.25h-6.4828z" style="stroke-width:1.1687"/>
           <path d="m276.08-237.15h6.9089v22.309h-6.9089z" style="stroke-width:1.1687"/>
          </g>
         </g>
        </g>
       </g>
      </g>
     </g>
    </g>
   </g>
  </g>
 </g>
</svg>
