<svg width="300" height="300" version="1.1" viewBox="0 0 79.375 79.375" xmlns="http://www.w3.org/2000/svg">
 <defs>
  <clipPath id="clipPath22">
   <path d="m0 358h394.67v-358h-394.67z"/>
  </clipPath>
  <clipPath id="clipPath22-2">
   <path d="m0 358h394.67v-358h-394.67z"/>
  </clipPath>
 </defs>
 <g transform="matrix(.72153 0 0 .72153 11.054 -145.97)">
  <g transform="translate(-3.0069,-4.6574e-6)">
   <g transform="matrix(.98162 0 0 .98162 123.29 270.93)">
    <g transform="translate(-.5854 1.6087)">
     <g transform="matrix(.19697 0 0 -.19697 -120.39 19.777)">
      <g clip-path="url(#clipPath22)">
       <g transform="translate(32.276,-48.733)">
        <g clip-path="url(#clipPath22-2)">
         <g transform="scale(1,-1)" style="fill:#000000" aria-label="ANNA LAURINI">
          <g transform="matrix(.23792 0 0 .23792 110.56 -173.67)">
           <g transform="matrix(.17789 0 0 .17789 6943.8 1808.4)" style="fill:#4b5320" aria-label="MDC">
            <path d="m-40023-11917q11.138 20.885 12.531 37.593 2.784 16.707 2.784 48.73v772.73q0 96.069-52.907 112.78-26.454 8.353-66.831 8.353-40.376 0-64.045-6.961-23.669-6.962-36.2-16.708t-19.492-27.846q-6.962-23.669-6.962-72.399v-466.42q-34.807 43.162-101.64 137.84-66.83 93.284-84.93 116.95t-25.061 33.415q-6.962 8.354-34.808 25.062-26.454 15.315-58.476 15.315-30.631 0-57.085-13.923-25.061-15.315-36.199-29.238l-11.139-15.316q-27.846-34.807-109.99-147.58-82.145-114.17-89.107-122.52v469.2q0 32.023-2.784 48.731-1.393 15.315-12.531 34.807-20.884 37.592-108.6 37.592-84.931 0-105.82-37.592-11.139-19.492-13.923-36.2-1.392-16.707-1.392-50.122v-772.73q0-32.022 1.392-47.338 2.784-16.707 13.923-37.592 20.884-36.2 108.6-36.2 37.592 0 64.046 9.746 27.846 8.354 36.2 18.1l8.354 8.354 316.05 414.9q236.69-313.27 316.05-413.51 23.669-37.592 111.38-37.592 89.107 0 108.6 37.592z" style="fill:#4b5320;stroke-width:5.2211"/>
            <path d="m-39695-11957 257.58 1.392q201.88 0 355.04 146.19 153.15 144.8 153.15 357.82 0 211.63-150.37 363.39-148.98 151.76-362 151.76h-254.79q-84.93 0-105.81-34.807-16.708-29.238-16.708-89.107v-774.12q0-33.415 1.392-48.73 2.785-15.316 13.923-36.2 19.493-37.592 108.6-37.592zm257.58 774.12q100.25 0 181-73.792 80.753-75.184 80.753-187.96t-79.361-187.96q-77.968-76.577-183.78-76.577h-133.66v526.29z" style="fill:#4b5320;stroke-width:5.2211"/>
            <path d="m-38124-11203 25.062-18.1q47.338-27.846 66.83-27.846 43.161 0 93.284 77.969 30.631 48.73 30.631 77.969 0 29.238-19.493 48.73-18.1 19.492-43.161 34.808-25.061 15.315-48.73 29.238-22.277 13.923-93.284 36.2-71.008 22.277-137.84 22.277-65.438 0-133.66-16.708-66.83-18.1-139.23-58.477-71.007-41.769-128.09-100.24-57.085-59.869-94.677-151.76-36.2-93.284-36.2-201.88 0-108.6 36.2-196.31 36.2-89.108 91.892-146.19 57.084-58.477 129.48-97.461 136.44-75.184 274.28-75.184 65.438 0 132.27 20.884 68.223 19.493 103.03 40.377l33.416 19.492q25.061 15.316 38.984 25.062 36.2 29.238 36.2 66.83 0 36.2-29.238 76.577-54.3 75.184-97.461 75.184-25.062 0-71.008-30.631-58.476-47.338-155.94-47.338-90.5 0-178.22 62.653-41.769 30.631-69.615 86.323t-27.846 126.7q0 69.615 27.846 125.31t71.008 87.715q84.93 61.261 176.82 61.261 43.161 0 80.753-11.138 38.985-11.139 55.692-22.277z" style="fill:#4b5320;stroke-width:5.2211"/>
           </g>
           <g transform="matrix(.17789 0 0 .17789 6943.8 1808.4)" style="fill:#4b5320" aria-label="BRANDS">
            <path d="m-37180-11672q44.453 52.741 44.453 118.29-1.506 75.344-51.987 126.58-49.727 50.48-121.3 50.48h-198.15q-52.741 0-61.782-28.631-4.521-12.808-4.521-39.178v-418.16q0-18.083 0.754-26.37 1.507-8.288 7.534-19.59 10.548-20.343 58.768-20.343h189.87q69.316 0 116.03 48.22 48.973 48.974 48.973 117.54 0 49.727-28.631 91.166zm-88.905 110.76q0-18.083-4.521-28.631-3.767-10.548-13.562-15.069-15.069-6.027-42.192-6.027-27.124 0-40.686-10.549-13.562-10.548-13.562-42.946 0-33.151 13.562-43.699 14.315-10.548 46.713-10.548 30.138 0 36.165-15.822 2.26-8.288 2.26-27.124t-12.808-26.371q-12.055-7.534-36.919-7.534h-105.48v285.55h123.56q47.467 0 47.467-51.233z" style="fill:#4b5320;stroke-width:2.8254"/>
            <path d="m-36626-11469q11.302 27.124 11.302 39.179 0 28.631-46.714 48.22-24.11 10.548-39.178 10.548-14.316 0-24.111-6.781-9.041-7.534-13.561-15.068-7.535-14.316-58.769-136.37l-23.356 1.507h-94.934v85.139q0 17.329-1.507 26.37-0.753 8.288-6.78 19.589-10.549 20.343-58.769 20.343-52.74 0-61.782-27.877-4.52-12.809-4.52-39.179v-418.16q0-17.329 0.753-25.617 1.507-9.041 7.534-20.342 10.549-20.343 58.769-20.343h162.74q66.302 0 128.84 48.22 30.137 23.356 49.727 63.289 19.589 39.932 19.589 88.906 0 85.138-56.508 140.14 16.576 39.932 51.234 118.29zm-289.32-192.13h96.441q21.849 0 43.699-16.575 21.85-16.576 21.85-49.727 0-33.152-21.85-49.727-21.85-17.33-45.206-17.33h-94.934z" style="fill:#4b5320;stroke-width:2.8254"/>
            <path d="m-36219-11889 203.43 420.42q12.808 25.617 12.808 38.425 0 27.124-43.699 48.974-25.617 12.808-40.686 12.808-14.315 0-24.11-6.781-9.041-6.781-13.562-14.315-3.767-7.535-11.301-22.603l-39.179-81.372h-208.7l-39.179 81.372q-7.534 15.068-12.055 21.849-3.767 6.781-13.562 14.316-9.041 6.781-24.11 6.781-14.315 0-39.932-12.809-43.699-21.096-43.699-48.22 0-12.808 12.808-38.425l203.43-421.17q8.287-17.329 24.863-27.877 17.329-10.548 36.165-10.548 40.686 0 60.275 39.179zm-61.028 180.82-49.727 103.22h100.21z" style="fill:#4b5320;stroke-width:2.8254"/>
            <path d="m-35567-11905q7.534-13.562 21.85-18.082 14.315-4.521 35.411-4.521 21.85 0 34.658 3.767 13.562 3.768 19.59 9.042 6.781 5.274 9.795 15.822 4.52 12.055 4.52 38.425v418.16q0 18.083-1.507 26.37-0.753 8.288-6.781 19.59-10.548 20.343-58.768 20.343-29.384 0-40.686-4.521-11.301-4.521-18.836-14.315-169.52-226.03-223.02-295.35v247.88q0 18.083-1.506 26.37-0.754 8.288-6.781 19.59-10.549 20.343-58.769 20.343-46.713 0-57.261-20.343-6.027-11.302-7.534-20.343-0.754-9.041-0.754-26.37v-420.42q0-28.631 6.781-41.44 7.535-13.562 21.85-18.082 14.315-4.521 36.918-4.521 22.604 0 35.412 4.521 13.562 3.767 18.836 9.041 3.014 2.26 17.329 19.59 158.98 216.24 212.47 285.55v-254.66q0-28.631 6.781-41.44z" style="fill:#4b5320;stroke-width:2.8254"/>
            <path d="m-35277-11929 139.39 0.754q109.25 0 192.13 79.111 82.878 78.358 82.878 193.63 0 114.52-81.371 196.65-80.618 82.125-195.89 82.125h-137.88q-45.96 0-57.262-18.836-9.041-15.822-9.041-48.22v-418.91q0-18.083 0.753-26.37 1.507-8.288 7.535-19.59 10.548-20.343 58.768-20.343zm139.39 418.91q54.248 0 97.947-39.932 43.7-40.686 43.7-101.71 0-61.029-42.946-101.71-42.193-41.44-99.454-41.44h-72.33v284.8z" style="fill:#4b5320;stroke-width:2.8254"/>
            <path d="m-34769-11454q-19.589-24.11-19.589-42.946 0-19.589 32.398-51.234 18.836-18.082 39.932-18.082t58.768 37.672q10.548 12.808 30.138 24.863 19.589 11.302 36.165 11.302 70.07 0 70.07-57.261 0-17.329-19.59-28.631-18.836-12.055-47.466-17.329-28.631-5.274-61.782-16.576-33.152-12.055-61.782-27.877-28.631-15.822-48.22-49.727-18.836-34.658-18.836-82.878 0-66.303 48.973-115.28 49.727-49.727 134.87-49.727 45.206 0 82.125 12.056 37.672 11.301 51.987 23.356l18.836 14.315q23.357 21.85 23.357 36.919t-18.083 41.439q-25.617 37.672-52.741 37.672-15.822 0-39.179-15.069-2.26-1.507-9.041-7.534-6.027-6.028-11.301-9.795-15.823-9.795-40.686-9.795-24.11 0-40.686 12.056-15.822 11.301-15.822 32.397 0 20.343 18.836 33.152 19.589 12.808 48.22 17.329 28.631 4.52 62.535 14.315 33.905 9.041 62.536 22.603t47.467 47.467q19.589 33.151 19.589 82.125 0 48.973-19.589 86.645-19.59 36.919-51.234 57.262-61.029 39.932-130.34 39.932-35.412 0-67.056-8.288-31.645-9.041-51.234-21.85-39.932-24.11-55.755-46.713z" style="fill:#4b5320;opacity:.9;stroke-width:2.8254"/>
           </g>
           <rect transform="scale(-1,1)" x="-826.87" y="-179.08" width="567.04" height="43.779" ry="10.04" style="fill:#4b5320;paint-order:fill markers stroke"/>
          </g>
         </g>
        </g>
       </g>
      </g>
     </g>
    </g>
   </g>
  </g>
 </g>
</svg>
