<svg width="300" height="300" version="1.1" viewBox="0 0 79.375 79.375" xmlns="http://www.w3.org/2000/svg">
 <g transform="matrix(.69902 0 0 .69902 11.945 -140.18)">
  <g transform="translate(0 .2764)">
   <g transform="matrix(.51833 0 0 .51833 -10.409 189.56)">
    <path id="logoE" d="m72.476 117.16v39.826l48.674-5e-3m-1.0809-77.49-47.827 0.0477 0.2344 37.621h41.495m11.198 36.167-4.0239 3.6537 4.0239 3.7604m-1.076-84.545-4.0245 3.295 4.0245 3.7604m-6.099 30.613-4.024 3.295 4.024 3.7604m-41.495-7.0554v-30.613m0 70.075v-32.407m-8.3712 39.821v-84.903m8.3712 45.082h41.495v-7.0554h-41.495l-4.0245 3.295zm48.67 39.821v-7.4141h-48.67l-8.3712 7.4141zm-1.076-77.489v-7.4141h-55.965l8.3712 7.4141z" style="fill:none;stroke-linejoin:round;stroke-width:.837;stroke:#000000"/>
   </g>
   <g style="fill:#000000" aria-label="    EPOCH">
    <path d="m28.659 284.86v0.51624h-3.9717v-5.9118h3.8968v0.51624h-3.3139v2.1316h2.8893v0.49126h-2.8893v2.2565z" style="stroke-width:.31224"/>
    <path d="m30.542 285.37v-5.9118h2.448q0.38302 0 0.69942 0.16653 0.32473 0.1582 0.55787 0.42465 0.23314 0.25812 0.36636 0.59118t0.13322 0.67444q0 0.36637-0.1249 0.70775-0.1249 0.33306-0.34971 0.59118t-0.54122 0.41632q-0.30808 0.15821-0.6911 0.15821h-1.9151v2.1815zm0.58285-2.6978h1.8901q0.25812 0 0.46628-0.10825 0.21649-0.11657 0.36636-0.29975 0.14988-0.19151 0.23314-0.43298 0.08326-0.24979 0.08326-0.51624 0-0.27477-0.09992-0.51624-0.09159-0.24979-0.25812-0.43298-0.1582-0.18318-0.38302-0.2831-0.21649-0.10824-0.45796-0.10824h-1.8401z" style="stroke-width:.31224"/>
    <path d="m38.876 285.42q-0.61616 0-1.1324-0.24979-0.50791-0.25812-0.87428-0.67444-0.36636-0.42465-0.5662-0.96588-0.19984-0.54122-0.19984-1.1074 0-0.59117 0.20816-1.1324 0.21649-0.54122 0.59118-0.95755 0.37469-0.41632 0.88261-0.65779 0.50791-0.24979 1.0991-0.24979 0.61616 0 1.1241 0.26644 0.51624 0.25812 0.87428 0.68277 0.36636 0.42465 0.5662 0.96587 0.19984 0.5329 0.19984 1.0908 0 0.59118-0.21649 1.1324-0.20816 0.54122-0.58285 0.95754-0.36636 0.408-0.87428 0.6578-0.50791 0.24146-1.0991 0.24146zm-2.1899-2.9975q0 0.48294 0.1582 0.93257 0.1582 0.4413 0.44963 0.79101 0.29143 0.34139 0.6911 0.54955 0.39967 0.19984 0.89093 0.19984 0.49959 0 0.90758-0.21649 0.408-0.21649 0.6911-0.5662t0.43298-0.79102q0.1582-0.4413 0.1582-0.89926 0-0.48293-0.16653-0.92423-0.1582-0.44963-0.44963-0.79102-0.29143-0.34138-0.6911-0.54122-0.39967-0.20816-0.8826-0.20816-0.49959 0-0.90758 0.21649-0.408 0.20816-0.6911 0.55787t-0.4413 0.79102q-0.14988 0.4413-0.14988 0.89925z" style="stroke-width:.31224"/>
    <path d="m43.145 282.38q0-0.53289 0.18318-1.0575 0.19151-0.53289 0.54955-0.94922 0.35804-0.41632 0.8826-0.67444 0.52457-0.26645 1.1907-0.26645 0.79101 0 1.3489 0.35804 0.5662 0.35804 0.83265 0.93257l-0.45796 0.2831q-0.14155-0.29143-0.34971-0.49127-0.19984-0.19983-0.43298-0.32473t-0.48294-0.17485q-0.24979-0.0583-0.49126-0.0583-0.53289 0-0.94089 0.21649t-0.6911 0.5662q-0.27477 0.34971-0.41632 0.79101-0.14155 0.43298-0.14155 0.88261 0 0.49126 0.16653 0.94089 0.17486 0.44963 0.46628 0.79934 0.29975 0.34139 0.69942 0.54955 0.408 0.19983 0.8826 0.19983 0.24979 0 0.50792-0.0583 0.26645-0.0666 0.50791-0.19984 0.24979-0.14155 0.45796-0.34138 0.20816-0.20817 0.34971-0.49959l0.48294 0.24979q-0.14155 0.33306-0.39967 0.59118-0.25812 0.2498-0.57453 0.42465-0.31641 0.17486-0.67444 0.26645-0.34971 0.0916-0.6911 0.0916-0.60783 0-1.1157-0.26645-0.50791-0.26644-0.87428-0.69109-0.36636-0.43298-0.57453-0.9742-0.19984-0.54955-0.19984-1.1158z" style="stroke-width:.31224"/>
    <path d="m54.688 279.46v5.9118h-0.57453v-2.7644h-3.5054v2.7644h-0.58285v-5.9118h0.58285v2.6312h3.5054v-2.6312z" style="stroke-width:.31224"/>
   </g>
  </g>
 </g>
</svg>
