<svg width="300" height="300" version="1.1" viewBox="0 0 79.375 79.375" xmlns="http://www.w3.org/2000/svg">
 <defs>
  <clipPath id="clipPath22">
   <path d="m0 358h394.67v-358h-394.67z"/>
  </clipPath>
  <clipPath id="clipPath22-2">
   <path d="m0 358h394.67v-358h-394.67z"/>
  </clipPath>
 </defs>
 <g transform="matrix(.7216 0 0 .7216 11.05 -145.99)">
  <g transform="translate(-3.0069,-4.6574e-6)">
   <g transform="matrix(.98162 0 0 .98162 123.29 270.93)">
    <g transform="translate(-.5854 1.6087)">
     <g transform="matrix(.19697 0 0 -.19697 -120.39 19.777)">
      <g clip-path="url(#clipPath22)">
       <g transform="translate(32.276,-48.733)">
        <g clip-path="url(#clipPath22-2)">
         <g transform="matrix(1.7414,0,0,-1.7414,721.12,447.42)">
          <path d="m-357.65 101.07c-1.6054 7.4e-4 -6.1432 0.12975-9.959 0.2832-12.857 0.51703-23.364 2.1474-28.643 4.4883-0.71495 0.31703-1.7037 0.84151-2.5762 1.3438-0.43625 0.25113-0.84225 0.49688-1.1699 0.70899-0.32766 0.21211-0.56922 0.37781-0.71679 0.52539-0.40125 0.40119-0.36348 1.0793 0.082 1.4297 0.20346 0.16004 0.46421 0.25101 0.77734 0.23829 0.31314-0.0127 0.69003-0.10191 1.252-0.26368 0.60846-0.17516 0.97895-0.29343 1.2832-0.46289 0.30426-0.16945 0.51888-0.38433 0.79297-0.70312 0.38515-0.44798 0.45161-0.48865 1.2168-0.7832 2.4044-0.92557 6.5033-1.9462 10.672-2.6484 5.7717-0.97237 12.254-1.4896 21.771-1.7363 2.0274-0.0525 4.457-0.12066 5.4024-0.15234l1.7129-0.0586a0.26461 0.26461 0 0 0 0.18164-0.0801l0.41211-0.42187 0.41015-0.42188a0.26461 0.26461 0 0 0-0.0195-0.38867l-0.2832-0.23437c-0.34014-0.28156-0.60951-0.46723-0.98633-0.56055-0.37681-0.0933-0.83195-0.10196-1.6133-0.10156z"/>
          <path d="m-400.63 109.85-0.0449-0.041a0.26461 0.26461 0 0 0 0.0449 0.041z" style="color-rendering:auto;dominant-baseline:auto;font-feature-settings:normal;font-variant-alternates:normal;font-variant-caps:normal;font-variant-ligatures:normal;font-variant-numeric:normal;font-variant-position:normal;image-rendering:auto;isolation:auto;mix-blend-mode:normal;paint-order:stroke fill markers;shape-padding:0;shape-rendering:auto;text-decoration-style:solid;text-indent:0;text-orientation:mixed;text-transform:none;white-space:normal"/>
          <path d="m-377.29 105.04c-0.16484 0-0.3337 0.0254-0.48437 0.11133-0.15068 0.0859-0.27352 0.20881-0.4375 0.38671-0.40751 0.4421-1.2431 1.6792-2.3887 3.4531-1.1455 1.7739-2.5734 4.0597-4.0664 6.5-2.9861 4.8806-6.2303 10.377-7.9883 13.645-1.1854 2.2033-2.6071 5.051-3.7656 7.4902-0.57925 1.2196-1.0928 2.3372-1.4785 3.2226-0.38577 0.8855-0.64024 1.5118-0.71875 1.8555-0.10154 0.44432 0.0204 0.9532 0.3164 1.2969 0.19412 0.22538 0.45167 0.21275 0.70313 0.18164 0.25146-0.0311 0.51964-0.1186 0.75-0.26954 0.11899-0.078 0.23426-0.19102 0.38281-0.34374 0.14855-0.15273 0.31662-0.34028 0.48828-0.53907 0.34333-0.39758 0.69052-0.83433 0.88477-1.1406 0.12997-0.20495 0.22263-0.36153 0.25976-0.5625 0.0371-0.20097 0.0205-0.40272-8e-3 -0.74219-0.0357-0.4281-0.0363-0.64393 0.14844-1.1543 0.18469-0.51036 0.56434-1.294 1.2773-2.7226 3.4718-6.9566 7.1105-13.243 14.045-24.264 1.6153-2.5672 2.44-3.8792 2.8516-4.5977 0.2058-0.35925 0.31002-0.56692 0.36132-0.74219s5e-3 -0.36738-0.0391-0.44922c-0.20821-0.38907-0.63445-0.61523-1.0938-0.61523z" style="color-rendering:auto;dominant-baseline:auto;font-feature-settings:normal;font-variant-alternates:normal;font-variant-caps:normal;font-variant-ligatures:normal;font-variant-numeric:normal;font-variant-position:normal;image-rendering:auto;isolation:auto;mix-blend-mode:normal;paint-order:stroke fill markers;shape-padding:0;shape-rendering:auto;text-decoration-style:solid;text-indent:0;text-orientation:mixed;text-transform:none;white-space:normal"/>
          <path d="m-351.66 142.83c-1.6819 2e-3 -3.9762 0.0488-6.543 0.12891-5.1336 0.1602-11.351 0.45546-15.898 0.80078-3.8718 0.29404-7.8617 0.73921-11 1.1953-1.5691 0.22806-2.9236 0.45907-3.9492 0.67579-0.51282 0.10835-0.9426 0.21152-1.2793 0.3125-0.3367 0.10097-0.5716 0.1847-0.7461 0.31445-0.23265 0.17299-0.38963 0.40972-0.45898 0.6582-0.0694 0.24849-0.0508 0.53905 0.15039 0.74024 0.0851 0.0851 0.13917 0.0964 0.21485 0.12695 0.0757 0.0306 0.16493 0.0604 0.26562 0.0898 0.20138 0.0588 0.44991 0.11629 0.70703 0.16211a0.26461 0.26461 0 0 0 0.043 4e-3c1.5852 0.2782 2.5296 0.24838 3.207-0.21289 0.53733-0.36587 0.84241-0.54192 1.6816-0.71875 0.83923-0.17684 2.2002-0.33611 4.7324-0.61328 7.9622-0.87153 12.127-1.1197 27.008-1.6094 2.2233-0.0731 4.2928-0.13281 4.5195-0.13281h0.48437a0.26461 0.26461 0 0 0 0.26172-0.30078l-0.0742-0.55078c-0.0226-0.1683-0.0609-0.33432-0.10742-0.47852-0.0465-0.14419-0.0705-0.25315-0.19336-0.375-0.0926-0.0918-0.1441-0.0885-0.20312-0.10351-0.059-0.015-0.12306-0.0254-0.19922-0.0352-0.15232-0.0195-0.35204-0.0333-0.59961-0.0449-0.49515-0.0233-1.1825-0.034-2.0234-0.0332z" style="color-rendering:auto;dominant-baseline:auto;font-feature-settings:normal;font-variant-alternates:normal;font-variant-caps:normal;font-variant-ligatures:normal;font-variant-numeric:normal;font-variant-position:normal;image-rendering:auto;isolation:auto;mix-blend-mode:normal;paint-order:stroke fill markers;shape-padding:0;shape-rendering:auto;text-decoration-style:solid;text-indent:0;text-orientation:mixed;text-transform:none;white-space:normal"/>
          <path d="m-301.28 143.15c-0.97454-2e-5 -1.5052 2e-3 -1.8555 0.043-0.35023 0.0405-0.56623 0.16194-0.71289 0.3086-0.22671 0.22664-0.34487 0.53896-0.30859 0.85156 0.0159 0.13745 0.079 0.35873 0.26367 0.48047 0.18468 0.12173 0.4163 0.1672 0.80664 0.21289 0.7807 0.0914 2.2242 0.1375 5.0391 0.22461 14.303 0.4426 21.679 0.93351 29.42 1.9531 0.95996 0.12644 1.5508 0.22476 1.9863 0.35352 0.43552 0.12876 0.72154 0.28349 1.1133 0.55273 0.33878 0.23283 0.54608 0.37621 0.83007 0.4375 0.284 0.0613 0.58006 0.0357 1.1367-4e-3 0.65578-0.0466 1.222-0.1227 1.6602-0.22071 0.21909-0.049 0.40474-0.10282 0.56055-0.16601 0.1558-0.0632 0.28438-0.1267 0.38672-0.25 0.20263-0.24416 0.15179-0.56256 0.0312-0.81836-0.12055-0.2558-0.32925-0.49101-0.60938-0.63477-0.39908-0.20479-1.1617-0.38304-2.2793-0.5957s-2.5649-0.43943-4.2188-0.66406c-3.3077-0.44927-7.4424-0.89027-11.414-1.1875-5.659-0.42352-16.944-0.87685-21.836-0.87696z" style="color-rendering:auto;dominant-baseline:auto;font-feature-settings:normal;font-variant-alternates:normal;font-variant-caps:normal;font-variant-ligatures:normal;font-variant-numeric:normal;font-variant-position:normal;image-rendering:auto;isolation:auto;mix-blend-mode:normal;paint-order:stroke fill markers;shape-padding:0;shape-rendering:auto;text-decoration-style:solid;text-indent:0;text-orientation:mixed;text-transform:none;white-space:normal"/>
          <path d="m-342.77 114.37c-0.31198-0.13117-0.65361-0.13461-0.95312 0.0117-0.29951 0.14633-0.55588 0.41312-0.81641 0.78906-0.22078 0.31859-0.35742 0.61699-0.38672 0.91407s0.0707 0.58671 0.27149 0.80859c0.0774 0.0856 0.16328 0.15881 0.25195 0.2168 0.0887 0.058 0.16081 0.11523 0.31836 0.11523 0.11096 0 0.13129-0.0262 0.16797-0.0449 0.0367-0.0187 0.0716-0.0414 0.10937-0.0664 0.0756-0.0499 0.16409-0.11549 0.26563-0.19531 0.20307-0.15964 0.45527-0.37372 0.71484-0.61133 0.42835-0.39208 0.65841-0.60061 0.79492-0.80468 0.0683-0.10204 0.11957-0.23051 0.10157-0.36329-0.018-0.13277-0.0869-0.22002-0.14258-0.28711-0.16852-0.20305-0.4338-0.37166-0.69727-0.48242z" style="color-rendering:auto;dominant-baseline:auto;font-feature-settings:normal;font-variant-alternates:normal;font-variant-caps:normal;font-variant-ligatures:normal;font-variant-numeric:normal;font-variant-position:normal;image-rendering:auto;isolation:auto;mix-blend-mode:normal;paint-order:stroke fill markers;shape-padding:0;shape-rendering:auto;text-decoration-style:solid;text-indent:0;text-orientation:mixed;text-transform:none;white-space:normal"/>
          <path d="m-275.34 103.68c-0.10382-3e-3 -0.20438 9e-3 -0.30281 0.047v-5.3e-4c-0.1969 0.0753-0.33356 0.22987-0.46249 0.42013-0.0636 0.0939-0.21684 0.3507-0.48627 0.80252-0.26945 0.45182-0.63793 1.0761-1.0821 1.8283-0.88835 1.5044-2.0732 3.5192-3.3398 5.6819-2.7903 4.764-4.2462 7.2384-5.258 8.7886s-1.5745 2.1728-2.6169 3.2813c-3.2975 3.507-7.1865 6.7632-11.629 9.732-1.1245 0.75148-2.5044 1.5943-3.6152 2.2288-0.55541 0.31725-1.0435 0.58292-1.3963 0.75757-3e-3 2e-3 -4e-3 2e-3 -8e-3 4e-3 0.0685-0.12268 0.1248-0.23157 0.2129-0.37312 1.0903-1.7517 7.2077-12.854 8.1581-14.805 0.45974-0.9436 0.71786-1.543 0.78909-2.0035 0.0356-0.23021 0.0225-0.44277-0.0765-0.62115-0.0989-0.17838-0.27032-0.2903-0.45113-0.35967-0.17152-0.0658-0.34155-0.0243-0.49196 0.047-0.1504 0.0713-0.29842 0.17986-0.46095 0.32401-0.32504 0.28828-0.70373 0.7227-1.1348 1.2971l-0.24443 0.32607-0.2558-0.45682c-0.54217-0.96466-1.2768-1.4266-2.4959-1.5823-0.3525-0.045-0.66444-0.0416-1.0196 0.0512-0.35512 0.0927-0.75027 0.26612-1.3322 0.54879-0.78742 0.38251-2.1127 1.1414-2.9802 1.7069-1.5238 0.99326-2.3776 1.7327-6.2383 5.3908-4.056 3.843-7.4384 6.4169-11.974 9.115-1.0131 0.60263-1.6779 0.96992-2.0608 1.1343-0.0438 0.0188-0.0374 0.0109-0.0739 0.0238 0.0115-0.0229 0.0162-0.0336 0.0289-0.0589 0.11711-0.23041 0.28937-0.55757 0.50022-0.95497 0.42171-0.7948 1.0037-1.873 1.6443-3.0411 1.2823-2.3381 3.3229-6.0594 4.5352-8.2692 0.6078-1.1079 1.1608-2.1645 1.5627-2.9786 0.20093-0.40705 0.36366-0.75331 0.47852-1.0175 0.0574-0.13209 0.10411-0.24371 0.13694-0.33589 0.0328-0.0922 0.0584-0.14028 0.0584-0.25993 0-0.33064-0.10121-0.6564-0.35761-0.8692-0.1604-0.13313-0.37866-0.14196-0.56016-0.0915-0.18149 0.0505-0.35542 0.15089-0.53742 0.28886-0.36406 0.27599-0.75538 0.70625-1.1229 1.2459-0.11531 0.16931-0.23262 0.32152-0.32607 0.43201-0.0458-0.0817-0.094-0.17075-0.14056-0.28318-0.16155-0.38999-0.53345-0.8587-0.89658-1.1643-0.28088-0.23631-0.50501-0.40042-0.82422-0.46095-0.31922-0.0605-0.68868-0.0302-1.3456 0.0253-0.79496 0.0672-1.7614 0.26556-2.2639 0.4904-0.57716 0.25823-1.469 0.87848-2.6484 1.8024-1.1794 0.92396-2.6299 2.1476-4.2518 3.594-3.4014 3.0334-5.3805 4.4862-7.4821 5.5056-1.958 0.94968-3.606 1.381-5.2498 1.3849-0.67571 2e-3 -1.1849-0.0821-1.557-0.24391-0.37202-0.16184-0.61387-0.39264-0.7927-0.73845-0.29236-0.56533-0.3611-1.1228-0.0956-2.1446 0.26547-1.0218 0.88142-2.4765 1.9394-4.7011 0.80644-1.6956 1.288-2.8326 1.4841-3.588 0.0981-0.37761 0.13736-0.66052 0.0605-0.91415-0.0384-0.12681-0.11915-0.24982-0.23254-0.32453-0.1134-0.0747-0.24452-0.0992-0.37102-0.0992-0.15999 0-0.28612 0.0717-0.40825 0.16588-0.12211 0.0943-0.24682 0.22154-0.39015 0.39068-0.28665 0.33827-0.64632 0.84652-1.1234 1.5704-3.0051 4.5592-4.6111 6.2023-7.4315 7.6305-1.8803 0.9523-3.4533 1.2462-4.8611 0.94722-0.43272-0.0919-0.75109-0.15176-0.92603-0.22066-0.0875-0.0345-0.13253-0.068-0.15607-0.0935-0.0235-0.0256-0.0367-0.0472-0.0449-0.10955-0.0167-0.12483 0.029-0.40888 0.17208-0.85935 0.14304-0.45048 0.3716-1.0682 0.67592-1.91 0.91904-2.5421 1.1123-3.3038 1.1834-4.6817 0.0513-0.99567 0.0338-1.6495-0.15813-2.1249-0.096-0.23772-0.24884-0.43077-0.44751-0.55655-0.19869-0.12579-0.43137-0.18396-0.68937-0.20877-0.98984-0.0952-1.6366 0.14009-2.4608 0.88471-0.96776 0.87427-1.9196 2.9035-2.2169 4.5915-0.18334 1.0408-0.15223 1.491 0.22065 2.9826 0.26164 1.0467 0.36298 1.7415 0.29869 2.3161-0.0643 0.57459-0.28694 1.0525-0.73225 1.6991-0.54181 0.78668-1.4122 1.7294-2.2577 2.4965-0.4228 0.38348-0.8407 0.72363-1.2051 0.9803-0.36438 0.25665-0.68532 0.42695-0.86145 0.47439-0.74643 0.20098-1.2596 0.10021-1.6112-0.22634-0.35168-0.32657-0.57411-0.93852-0.57411-1.8557 0-0.49116 0.0318-0.82215 0.17002-1.2867 0.13821-0.46455 0.39025-1.0635 0.8299-2.0391 0.70617-1.567 1.1104-2.5236 1.3007-3.1874 0.0952-0.33184 0.13886-0.59454 0.12712-0.82837-0.0117-0.23383-0.088-0.43664-0.1974-0.60356-0.39356-0.6006-1.1032-0.85208-1.8298-0.66971-0.25941 0.0651-0.45711 0.2514-0.6506 0.50178-0.19348 0.25037-0.37851 0.57781-0.55861 0.96892-0.3602 0.7822-0.69558 1.8249-0.95084 3.0019-0.42794 1.973-0.83899 2.7178-2.0117 3.6679-0.80919 0.65555-1.4428 1.0291-1.8769 1.1426-0.21702 0.0567-0.37753 0.0514-0.50227 8e-3 -0.12477-0.0433-0.22785-0.12414-0.3297-0.27956-0.24826-0.3789-0.3593-0.74299-0.33228-1.5389 0.027-0.79591 0.20864-1.998 0.56276-3.9335 0.38581-2.1088 0.58959-3.4284 0.617-4.2658 0.0137-0.41867-0.0102-0.71881-0.10955-0.96067-0.0996-0.24183-0.32472-0.4106-0.55448-0.44338-0.20635-0.0294-0.45159 0.0307-0.61134 0.19534-0.15975 0.16459-0.26248 0.38549-0.39275 0.71106-0.71002 1.7745-1.4408 5.1403-1.5642 7.1913-0.0799 1.3277-0.0545 2.3462 0.0977 3.1382 0.15228 0.79208 0.44084 1.3685 0.89452 1.7502 0.5898 0.4963 1.1925 0.75099 1.9156 0.66817 0.7231-0.0828 1.5446-0.46119 2.713-1.1348 0.36084-0.20802 0.70754-0.38094 0.96117-0.48471 0.10732-0.0439 0.18544-0.0666 0.24804-0.0837 0.0292 0.0568 0.0645 0.12817 0.10335 0.21497 0.0824 0.18442 0.17981 0.42105 0.26768 0.65989 0.20223 0.54974 0.637 1.2057 1.0547 1.5725 0.7671 0.67352 1.8199 0.8169 2.9429 0.49972 1.123-0.31721 2.3398-1.0802 3.547-2.2402 0.94256-0.90566 2.538-2.7768 3.4298-3.9981 0.0479 8e-3 0.0995 0.0177 0.17569 0.0351 0.19636 0.0448 0.4681 0.11619 0.7617 0.20154 0.83563 0.24296 1.6764 0.30702 3.176 0.25373 1.7995-0.064 2.2418-0.15827 3.4335-0.71675 0.7491-0.35107 1.9831-1.0487 2.7834-1.5725 0.39078-0.25582 0.75884-0.48889 1.033-0.65629 0.0779-0.0476 0.12657-0.0752 0.18758-0.1111 5e-3 0.0302 8e-3 0.0438 0.0139 0.078 0.0395 0.2538 0.0819 0.61221 0.11523 1.0061 0.1136 1.3438 0.37621 2.2903 0.96479 2.9374 0.58859 0.64692 1.4649 0.94037 2.685 1.0547 1.8292 0.17142 2.6056 0.0376 5.8321-1.0154 0.73426-0.23963 1.4183-0.44336 1.9218-0.57617 0.22716-0.0599 0.40229-0.0993 0.54104-0.12713-0.0111 0.0728-0.0186 0.13528-0.0393 0.23461-0.0651 0.31276-0.17526 0.73696-0.31213 1.1854-0.31477 1.0314-0.48087 1.6707-0.48265 2.1931-2e-3 0.52241 0.19529 0.91309 0.52141 1.3007 0.23047 0.27386 0.42291 0.47 0.709 0.57048 0.28609 0.10051 0.60985 0.10542 1.1488 0.10542 0.91828 0 1.4853-0.13347 2.234-0.52916 2.1153-1.118 4.3918-2.8945 7.3183-5.6916 0.84049-0.80335 1.6268-1.5211 2.2112-2.0272 0.16719-0.14481 0.27376-0.22493 0.40412-0.33176-0.55596 0.89529-2.6902 4.5548-3.3924 5.8239-1.0688 1.9311-2.2368 3.4316-3.2014 4.16-0.49125 0.37089-2.0986 1.2902-3.4901 1.9787-3.0718 1.5197-5.2942 2.8294-6.4568 3.8282-1.0096 0.86724-1.5566 1.8979-1.5859 2.912-0.0283 0.98019 0.46246 1.914 1.3792 2.6174a0.26461 0.26461 0 0 0 0.0739 0.0822c0.48317 0.35004 1.0339 0.59509 1.4944 0.59374 0.46148-1e-3 0.98122-0.21208 1.5797-0.56276 0.59851-0.35065 1.27-0.85079 1.9844-1.4686 1.4288-1.2357 3.0286-2.9434 4.5021-4.8672 0.91259-1.1917 2.049-2.5414 2.4629-2.9392 0.18083-0.17381 0.86825-0.68568 1.7673-1.3027 0.89907-0.61706 2.0298-1.3612 3.1702-2.082 2.287-1.4454 5.045-3.1948 6.1308-3.8885 0.91717-0.58605 1.5345-0.94884 1.8924-1.111 0.0725-0.0329 0.0716-0.0258 0.12092-0.0413-0.01 0.0391-0.0165 0.0685-0.0289 0.11524-0.0503 0.18981-0.11878 0.43547-0.19533 0.6878-0.16583 0.54662-0.293 1.3547-0.293 1.8846 0 0.37187 0.0229 0.6501 0.12092 0.90434 0.098 0.25421 0.26617 0.45933 0.49815 0.68161 0.44868 0.42986 0.93889 0.67989 1.5038 0.70693 0.56488 0.027 1.1796-0.15338 1.9373-0.50797 2.7985-1.3095 4.5947-2.6966 8.9767-6.9214 0.69603-0.67105 1.114-1.0153 1.4433-1.2619-0.0182 0.0329-0.013 0.027-0.0331 0.0625-0.1345 0.23699-0.32003 0.55657-0.54104 0.93172-0.442 0.75027-1.0265 1.7263-1.635 2.732-1.217 2.0115-2.5378 4.1507-2.994 4.8281-0.38232 0.56747-0.98043 1.2356-1.201 1.3927-0.10063 0.0717-0.67474 0.40555-1.4356 0.82216-0.76083 0.4166-1.7362 0.93891-2.7418 1.465-4.3322 2.266-5.4416 2.9712-6.4745 4.1444-0.83808 0.95207-1.1352 1.8979-0.94773 3.053 0.10484 0.64605 0.53604 1.2614 1.0806 1.7342 0.5445 0.47286 1.2093 0.81028 1.8552 0.81028 0.89188 0 1.9478-0.64708 3.2829-1.8474 1.3352-1.2003 2.9366-2.98 4.8069-5.3398 0.98646-1.2446 2.0608-2.5435 2.33-2.8281 0.0446-0.0471 0.20275-0.17953 0.42169-0.34004 0.21893-0.1605 0.50416-0.35954 0.83406-0.5798 0.65981-0.44053 1.4979-0.97082 2.3518-1.4826 6.7664-4.0552 9.4767-5.9324 13.24-9.1756 0.74919-0.64568 1.2358-1.0099 1.5312-1.1854-0.0774 0.24336-0.42714 1.3243-0.86711 2.6836-0.75876 2.3441-1.1929 3.8465-1.3673 4.9294-0.17441 1.083-0.0753 1.7746 0.24029 2.3848 0.44782 0.866 1.5508 1.3246 2.5941 1.1348 2.2409-0.40769 5.7517-2.8834 10.406-7.1778 0.60538-0.55858 1.1653-1.0663 1.5782-1.4335 0.15701-0.13959 0.26829-0.23669 0.37671-0.33019 0.0318 0.19117 0.0649 0.42693 0.0935 0.70124 0.17647 1.6885 0.8022 2.6961 2.1487 3.4353 0.2471 0.13569 0.57834 0.18239 1.0139 0.22272 0.43552 0.0403 0.96167 0.0564 1.5151 0.047 1.107-0.0188 2.3196-0.12983 3.1445-0.33798 2.7305-0.68891 5.6411-2.495 9.9575-6.133 0.64121-0.54041 1.2407-1.0329 1.6872-1.3885 0.17225-0.13719 0.2963-0.23097 0.416-0.32194 0.0145 0.21594 0.0293 0.48963 0.0408 0.8511 0.0256 0.80411 0.0413 1.9175 0.0413 3.143v4.3552l-2.758 2.8128c-1.2648 1.2891-1.9743 2.0282-2.3828 2.5368-0.40843 0.50861-0.5271 0.8447-0.5271 1.1777 0 0.24506 0.0153 0.45609 0.0801 0.64854 0.0648 0.19244 0.19292 0.36409 0.37102 0.47283 0.35626 0.2175 0.83287 0.23662 1.5994 0.23409 1.3091-4e-3 2.2376-0.19566 2.9961-0.89452 0.75858-0.69886 1.3274-1.8435 2.0841-3.7263 0.32771-0.81538 0.55673-1.3274 0.77307-1.6857 0.21635-0.35826 0.415-0.56794 0.72294-0.81646 0.18845-0.15209 1.1224-0.83732 2.4277-1.7828 1.3053-0.94551 2.999-2.1642 4.7656-3.426 4.4391-3.171 6.5846-4.6968 7.6403-5.5448 0.52786-0.42397 0.79062-0.6754 0.9374-0.92191 0.14679-0.2465 0.13126-0.47264 0.13126-0.6542 0-0.19017-0.0119-0.36366-0.0336-0.50177-0.0108-0.0691-0.0214-0.12737-0.0444-0.18965-0.0115-0.0311-0.0241-0.0644-0.0568-0.10749-0.0328-0.0431-0.10843-0.11678-0.23048-0.11678-0.10754 0-0.13091 0.0232-0.17776 0.0429-0.0469 0.0197-0.097 0.045-0.15606 0.076-0.11814 0.0619-0.27046 0.14919-0.45527 0.25993-0.36961 0.22149-0.86996 0.53681-1.4707 0.9255-1.2015 0.77739-2.7982 1.8436-4.5 3.0003-3.4036 2.3134-7.2249 4.9889-9.1558 6.4589-0.18439 0.14037-0.34313 0.24872-0.48471 0.34364 2e-3 -0.21345 9e-3 -0.48497 0.0217-0.82991 0.0266-0.75318 0.0735-1.7664 0.13074-2.8262 0.11442-2.1195 0.2696-4.4404 0.36536-5.2075 0.10426-0.83523 0.33128-1.8516 0.44698-2.1285 0.30178-0.72223 1.1291-1.4352 2.0117-1.6996 0.45489-0.13628 0.93415-0.37708 1.1953-0.66558 0.0804-0.0889 0.14536-0.15985 0.19947-0.23823 0.0541-0.0784 0.10863-0.18019 0.0997-0.31056-9e-3 -0.13038-0.0821-0.22983-0.14883-0.29712-0.0667-0.0673-0.14061-0.12252-0.23202-0.1912-0.34173-0.25679-0.80181-0.30581-1.4511-0.23255-0.82184 0.0927-1.4379 0.2758-1.9983 0.74413-0.56043 0.46831-1.0587 1.189-1.7539 2.3512-0.10715 0.17915-0.46905 0.61266-0.96892 1.141-0.49984 0.52837-1.1435 1.1704-1.8495 1.8474-1.412 1.354-3.0742 2.8474-4.3277 3.8534-2.9027 2.3292-6.7592 3.9764-9.1524 3.9764-0.99125 0-1.5944-0.17469-1.9533-0.53898-0.35899-0.36432-0.53279-0.98061-0.53279-1.988 0-1.1125 0.0825-1.6701 0.40619-2.0216 0.32363-0.3515 0.99876-0.58676 2.2965-0.87902 2.3707-0.53387 4.5151-1.9518 5.8284-3.5118 0.65666-0.78006 1.1079-1.5967 1.2594-2.3807 0.15143-0.784-0.0207-1.5531-0.60356-2.1115-0.27072-0.25933-0.47921-0.43981-0.78495-0.50953-0.30573-0.0697-0.64389-0.0372-1.2521 0.0196-1.1164 0.10425-2.1084 0.50526-3.5213 1.6758-1.4128 1.1706-3.2797 3.1146-6.2518 6.365-4.3412 4.7476-6.5071 6.8579-8.3808 8.1798-1.9319 1.363-3.0096 1.8593-3.8028 1.8593-0.32131 0-0.4799-0.0316-0.51779-0.0527-0.0379-0.0212-0.0584-0.0448-0.10748-0.2403-0.0545-0.21718-0.0124-0.81453 0.17001-1.6056 0.18241-0.79102 0.48683-1.7964 0.88883-2.9392 0.80398-2.2857 1.9981-5.1233 3.3827-7.953 2.4047-4.9143 4.1018-7.9975 8.0567-14.637 0.79816-1.3399 1.5233-2.5993 2.0505-3.5528 0.26359-0.47672 0.47698-0.87624 0.62681-1.1735 0.0749-0.14865 0.1339-0.27178 0.17622-0.36949 0.0212-0.0489 0.0391-0.0905 0.0527-0.13074 0.0137-0.0403 0.0269-0.0659 0.0269-0.14831 0-0.185-0.0732-0.37197-0.20464-0.50228-0.13151-0.1303-0.30307-0.20939-0.50228-0.25941-0.11128-0.028-0.21812-0.0477-0.32194-0.0512zm-49.146 17.556c0.33443-0.0119 0.55038 0.0569 0.64751 0.15399 0.19244 0.19244 0.2357 0.26821 0.21084 0.50178-0.0249 0.23356-0.17506 0.63414-0.48421 1.2836-0.83245 1.7489-2.6773 4.0827-5.4379 6.8434-2.6805 2.6805-4.9722 4.5068-6.601 5.2911-0.64806 0.31199-1.1515 0.49722-1.4784 0.55085-0.16349 0.0268-0.2776 0.0194-0.34004 0-0.0624-0.0194-0.079-0.0348-0.10336-0.0842-0.0489-0.0988-0.059-0.41438 0.0837-0.91208 0.14269-0.49771 0.4128-1.1698 0.80459-2.0138 0.91764-1.9769 2.5411-3.9899 5.8517-7.2207 2.5327-2.4716 3.2094-3.0289 4.3553-3.5914 0.83787-0.41137 1.5662-0.66603 2.1172-0.7617 0.13775-0.0239 0.26267-0.0369 0.37415-0.0408zm-36.925 0.01c7e-3 0.0223 0.0141 0.029 0.0139 0.10542-1e-3 0.31598-0.17609 1.1964-0.42994 2.127-0.25384 0.93053-0.58393 1.9451-0.87695 2.6386-0.16316 0.38616-0.33078 0.75741-0.46664 1.0408-0.0508 0.10602-0.0914 0.18303-0.13126 0.25993-0.0512-0.21428-0.096-0.52702-0.10541-0.93378-0.0212-0.91402 0.0932-2.1193 0.33588-2.8712 0.2625-0.81345 0.80041-1.6324 1.2402-2.0701 0.20125-0.20032 0.36964-0.27889 0.42012-0.29662zm59.036 1e-3c0.37846-0.0163 0.63066 0.0859 0.89968 0.31729l0.39687 0.34157-0.6661 1.3927c-0.33808 0.70516-0.58705 1.148-1.1312 1.8123-0.54413 0.66423-1.3869 1.5459-2.8826 3.0763-2.0954 2.1442-3.7994 3.8041-5.1268 4.9961-1.3273 1.192-2.2932 1.9169-2.84 2.1719-0.50958 0.23768-1.2094 0.49024-1.4531 0.53898-0.2625 0.0525-0.42659 0.0327-0.46871 0.0119-0.0211-0.0104-0.0221-0.0102-0.031-0.0295-9e-3 -0.0195-0.0211-0.0662-0.0176-0.14831 0.0141-0.32858 0.31152-1.1141 0.92759-2.3166 2.7289-5.3268 6.6208-9.6643 10.166-11.402 0.92011-0.45114 1.5797-0.69087 2.0567-0.74776 0.0596-7e-3 0.11646-0.0121 0.17053-0.0145zm35.435 0.0651c0.12525-5e-3 0.21443-5e-3 0.26974 0-7.9e-4 0.0342-1e-3 0.0697-0.0119 0.14469-0.15711 1.1081-1.4838 2.5682-3.3554 3.4922-0.66997 0.33078-1.3508 0.58417-1.8459 0.71262-0.20349 0.0528-0.34472 0.0692-0.46095 0.078 0.0264-0.0696 0.0263-0.0834 0.092-0.19895 0.11996-0.21071 0.29535-0.4776 0.49972-0.76014 0.40867-0.56514 0.93682-1.2001 1.3849-1.6366 1.0108-0.98455 2.6029-1.7958 3.4276-1.8319zm9.5037 17.826c-0.10834 0.53919-0.56115 1.0756-1.4061 1.5038-0.29416 0.14905-0.46039 0.20974-0.64441 0.28318 0.20109-0.22438 0.49699-0.51918 0.90434-0.89243 0.56879-0.52119 0.94412-0.79067 1.1462-0.89452zm-76.625 3.5274h5.3e-4c-7.9e-4 0.0115 2.6e-4 -4e-3 -6e-3 0.0191-0.0188 0.0696-0.0689 0.18171-0.15606 0.3147-0.13676 0.20871-0.55292 0.69494-1.0878 1.2676s-1.1945 1.2465-1.8536 1.898c-0.65909 0.65161-1.3189 1.2809-1.8479 1.7601-0.26452 0.2396-0.49582 0.44212-0.67749 0.58962-0.18163 0.14752-0.33895 0.24466-0.3421 0.24598-0.40809 0.1705-0.69293 0.24005-0.88623 0.23461-0.1933-5e-3 -0.31094-0.0629-0.47284-0.22479-0.11493-0.11493-0.19762-0.45188-0.14262-0.83973 0.055-0.38784 0.2303-0.80662 0.47076-1.0645 0.0139-0.0149 0.15406-0.1296 0.3457-0.26561 0.19166-0.13601 0.44693-0.309 0.74414-0.50384 0.5944-0.38967 1.3583-0.87134 2.1347-1.3477 0.77644-0.47637 1.5652-0.94804 2.2128-1.3203 0.64753-0.37229 1.179-0.65143 1.3399-0.71262 0.11241-0.0427 0.18125-0.0496 0.22428-0.0507zm22.268 0.16019c-0.10845 0.16493-0.23612 0.34821-0.42376 0.58549-0.45513 0.57554-1.1058 1.3166-1.8009 2.0608-0.69507 0.74426-1.435 1.4927-2.0701 2.0841-0.63518 0.59139-1.2016 1.0351-1.4025 1.1265-0.4764 0.21682-0.78059 0.30588-0.97461 0.30281-0.194-3e-3 -0.31495-0.0675-0.52503-0.27749-0.22791-0.22792-0.28297-0.48384-0.16795-0.85936 0.11503-0.37555 0.43119-0.84682 0.95292-1.3436 0.23538-0.22413 0.7985-0.62066 1.4883-1.0526 0.68973-0.43195 1.5143-0.90991 2.3104-1.3456 0.79614-0.43574 1.5659-0.82909 2.1409-1.0899 0.19757-0.0896 0.32995-0.13722 0.47232-0.1912z" style="color-rendering:auto;dominant-baseline:auto;font-feature-settings:normal;font-variant-alternates:normal;font-variant-caps:normal;font-variant-ligatures:normal;font-variant-numeric:normal;font-variant-position:normal;image-rendering:auto;isolation:auto;mix-blend-mode:normal;paint-order:stroke fill markers;shape-padding:0;shape-rendering:auto;text-decoration-style:solid;text-indent:0;text-orientation:mixed;text-transform:none;white-space:normal"/>
         </g>
        </g>
       </g>
      </g>
     </g>
    </g>
   </g>
  </g>
 </g>
</svg>
