<svg width="300" height="300" version="1.1" viewBox="0 0 79.375 79.375" xmlns="http://www.w3.org/2000/svg">
 <g transform="matrix(.67303 0 0 .67303 12.975 -133.49)">
  <g transform="translate(-3.0069,-4.6574e-6)">
   <g transform="matrix(.98162 0 0 .98162 123.29 270.93)">
    <g transform="translate(-.5854 1.6087)">
     <g transform="matrix(.49726 0 0 .49726 -128.77 -107.65)" style="fill-opacity:.96471;fill:#0000aa">
      <path d="m77.852 174.99v-18.532h37.063v37.063h-37.063zm34.626 0v-16.094h-32.189v32.189h32.189zm-11.69 14.121c-0.0461-2e-3 -0.20608-8e-3 -0.35567-0.0146-2.8465-0.11778-6.694-0.74921-11.036-1.8111-1.1215-0.27428-2.402-0.60996-2.7675-0.72549-1.4697-0.46454-2.9815-1.3129-4.3413-2.4363-0.47813-0.39498-1.0025-0.8835-1.0513-0.97934-0.01318-0.0259-0.07892-0.13888-0.14612-0.25108-0.13667-0.22816-0.2986-0.54865-0.35582-0.7043-0.20236-0.55035-0.20887-1.0458-0.02039-1.5519 0.14654-0.39354 0.52206-0.91843 0.72645-1.0154 0.30774-0.14607 0.72151 0.0143 1.2081 0.46829 0.15509 0.14469 0.27003 0.23177 0.56491 0.42795 1.0533 0.70074 2.4863 1.4365 3.9246 2.015 3.2286 1.2986 6.701 1.9712 10.177 1.9712 3.4275 0 5.7389-0.69905 7.1908-2.1747 1.1048-1.1228 1.7444-2.7021 2.0299-5.0118 0.0993-0.80393 0.15624-1.6566 0.18877-2.8297 0.0686-2.473 0.0755-4.4012 0.0207-5.8006-0.0926-2.3632-0.36866-4.1538-0.92257-5.9837-0.0462-0.15247-0.0952-0.31488-0.10901-0.36091-0.0757-0.25257-0.0743-0.49708 4e-3 -0.69566 0.068-0.17254 0.21781-0.34242 0.39006-0.44241 0.0591-0.0343 0.22427-0.0531 0.62231-0.0712 0.30126-0.0136 1.3569-7e-3 1.7941 0.0109 1.7129 0.0707 2.0079 0.11506 2.2278 0.33496 0.0602 0.0601 0.27339 0.34592 0.29601 0.39672 0.0369 0.0827 0.0489 0.19128 0.0492 0.44577 0 0.2185-0.0132 0.47273-0.0416 0.78458-6e-3 0.0633-0.0339 0.36457-0.0625 0.66951-0.17378 1.8508-0.22421 2.7973-0.22407 4.2053 0 0.74047 8e-3 1.1286 0.0358 1.6633 0.0855 1.6685 0.10655 2.6187 0.10635 4.7912 0 2.5647-0.0533 5.3132-0.15943 8.2575l-0.0212 0.58959-0.0767 0.11761c-0.18051 0.27687-0.49653 0.71462-0.763 1.0569-0.92559 1.189-1.9938 2.288-3.1008 3.19-0.55925 0.45569-0.85495 0.6545-1.2107 0.814-0.79114 0.35474-1.7166 0.54632-3.0494 0.63127-0.23755 0.0151-1.4982 0.0287-1.7418 0.0188zm-11.455-7.9196c-2.4695-0.0824-4.4496-0.93699-5.9108-2.551-0.27274-0.30127-0.49754-0.59538-0.83314-1.09-0.21701-0.31981-0.28915-0.4417-0.44757-0.75606-0.65976-1.3092-0.91629-2.4646-0.71593-3.2243 0.05481-0.20775 0.10424-0.31134 0.27731-0.58109 0.35428-0.55219 0.65454-0.87511 0.88275-0.94939 0.08624-0.0281 0.20033-0.0262 0.27968 4e-3 0.15537 0.0602 0.28357 0.18153 0.62541 0.59177 0.12934 0.15522 0.2649 0.31762 0.30124 0.3609 0.12811 0.15253 0.23837 0.32567 0.55649 0.87372 0.32696 0.5633 0.47618 0.80389 0.678 1.0932 0.32839 0.47069 0.67814 0.84342 1.169 1.2458 0.67347 0.55206 1.2984 0.8837 1.8456 0.97947 0.14246 0.0249 0.42565 0.0243 0.54397-2e-3 0.45043-0.0972 0.7796-0.3849 1.0307-0.90072 0.20029-0.41148 0.32872-0.89899 0.41197-1.5639 0.06358-0.50793 0.11261-1.4215 0.12294-2.291 0.01766-1.4891-0.09857-2.6972-0.37795-3.9281-0.04943-0.21777-0.17502-0.71705-0.26181-1.0409-0.19819-0.73938-0.34198-1.3457-0.38332-1.6162-0.02745-0.17952-0.03671-0.47029-0.01985-0.624 0.0374-0.3416 0.14919-0.59437 0.35607-0.80501 0.11321-0.11526 0.19499-0.17478 0.33998-0.24745 0.45063-0.22583 1.1501-0.22538 1.7846 8.2e-4 0.20983 0.075 0.86228 0.32375 0.9928 0.37863 0.6797 0.28583 0.99686 0.62408 1.1097 1.1835 0.018 0.0892 0.02392 0.16325 0.02785 0.34931 0.0075 0.35275-0.01616 0.54076-0.13821 1.096-0.24088 1.0959-0.4006 2.2589-0.49307 3.5898-0.01278 0.18372-0.0183 0.54986-0.02516 1.6685-0.01079 1.7502-0.03367 2.7584-0.0835 3.6718-0.0057 0.10356-0.01516 0.36247-0.02114 0.57536-0.027 0.96208-0.0733 1.4774-0.17899 1.9928-0.13938 0.67967-0.37804 1.2225-0.71056 1.6162-0.46737 0.55338-1.1043 0.84155-1.9767 0.89426-0.15448 9e-3 -0.53297 0.0111-0.75844 3e-3zm13.823-1.9863c-0.81459-0.0592-2.0795-0.0827-4.445-0.0828-1.9827 0-2.3417 6e-3 -2.6571 0.0425-0.22557 0.0263-0.67698 0.0315-0.84772 0.01-0.52456-0.0668-0.82378-0.28372-0.9278-0.67274-0.02442-0.0913-0.02725-0.12103-0.0276-0.29003 0-0.13135 0.0049-0.21677 0.01686-0.28244 0.091-0.49701 0.13558-0.68861 0.21794-0.93661 0.16684-0.50239 0.39466-0.85573 0.66567-1.0324 0.2227-0.14516 0.44262-0.17928 0.733-0.11373 0.20273 0.0457 0.49916 0.0852 0.90719 0.12066 0.41452 0.036 1.2186 0.0718 2.4113 0.10718 0.61712 0.0183 2.791 0.0176 3.5348-8.3e-4 0.93194-0.0235 1.381 6e-3 1.685 0.10893 0.21538 0.0732 0.32936 0.19598 0.35637 0.38373 0.02 0.13888 0 0.28012-0.10498 0.73047-0.0394 0.16972-0.0958 0.42393-0.12515 0.56488-0.0937 0.44959-0.1493 0.64201-0.2361 0.81773-0.10968 0.222-0.23033 0.34868-0.41814 0.43899-0.10451 0.0503-0.21639 0.0791-0.35962 0.0927-0.12866 0.0122-0.13503 0.0121-0.37876-6e-3zm-6.9871-4.656c-0.19502-0.0249-0.3354-0.0718-0.45476-0.15154-0.19243-0.12871-0.31203-0.34075-0.35632-0.63176-0.0189-0.12426-0.02158-0.61483-0.0044-0.82754 0.06862-0.85496 0.22992-1.5075 0.411-1.6626 0.04501-0.0385 0.16114-0.0796 0.36552-0.12935 0.21764-0.0529 0.27007-0.0571 0.48896-0.0386 0.6941 0.0585 1.7317 0.0692 2.5559 0.0262 0.44631-0.0233 0.64676 3e-3 0.83868 0.11047 0.18881 0.10559 0.30104 0.2773 0.36259 0.55477 0.0214 0.0965 0.0182 0.51076-5e-3 0.66951-0.0278 0.18894-0.10903 0.64333-0.13899 0.77766-0.13532 0.60687-0.37707 1.0602-0.64439 1.2083-0.13769 0.0763-0.20968 0.0828-0.54208 0.0488-0.40486-0.0413-0.5968-0.0535-0.94117-0.0596-0.47273-8e-3 -0.93012 0.0175-1.4314 0.0808-0.16154 0.0204-0.43243 0.0335-0.5039 0.0243zm0.26953-5.8102c-0.54006-0.0453-0.98946-0.24222-1.3067-0.57278-0.14458-0.15063-0.24907-0.31544-0.29989-0.47297-0.02303-0.0714-0.10553-0.56133-0.13212-0.78457-0.08489-0.71283-0.02173-1.23 0.18937-1.5501 0.0641-0.0972 0.18371-0.20586 0.28301-0.25705 0.11921-0.0615 0.56508-0.19452 0.83468-0.24909l0.13601-0.0276 0.31906 0.0118c4.0025 0.14806 6.6685 0.29308 7.3332 0.39892 0.39641 0.0631 0.6709 0.17179 0.85513 0.33853 0.0666 0.0602 0.15724 0.19558 0.19406 0.28965 0.0532 0.13587 0.065 0.22331 0.0641 0.47474-2e-3 0.33722-0.0676 0.88835-0.14176 1.1767-0.15784 0.61381-0.50775 0.90963-1.1964 1.0115-0.1735 0.0257-0.72342 0.0245-1.135-2e-3 -0.3534-0.0231-1.1243-0.026-1.6267-6e-3 -0.93959 0.0372-2.0624 0.0991-3.4469 0.18995-0.55714 0.0365-0.76883 0.0436-0.92302 0.0307z" style="fill-opacity:.96471;fill:#0000aa;stroke-width:.010461"/>
     </g>
     <g style="fill-opacity:.96471;fill:#0000aa" aria-label="John-Eric">
      <path d="m-109.41-5.528h1.342v2.3559q0 0.74194-0.13301 1.1292-0.13006 0.38723-0.52911 0.65621-0.3961 0.26899-1.0168 0.26899-0.65621 0-1.0168-0.17736-0.36062-0.17736-0.55866-0.51729-0.19509-0.34289-0.23057-0.84539l1.2799-0.1744q3e-3 0.28672 0.0502 0.42565 0.0473 0.13893 0.15962 0.22465 0.0768 0.056162 0.21874 0.056162 0.22465 0 0.3281-0.16553 0.10642-0.16849 0.10642-0.56458z" style="fill-opacity:.96471;fill:#0000aa;stroke-width:.22701"/>
      <path d="m-107.55-2.7553q0-0.71829 0.48477-1.1824 0.48477-0.46704 1.3095-0.46704 0.94294 0 1.4248 0.54684 0.38723 0.44043 0.38723 1.0848 0 0.7242-0.48182 1.1883-0.47885 0.46112-1.3272 0.46112-0.75672 0-1.2238-0.38427-0.57345-0.4759-0.57345-1.2474zm1.206-0.00296q0 0.41974 0.16849 0.62074 0.17144 0.201 0.42861 0.201 0.26012 0 0.42565-0.19805 0.16849-0.19805 0.16849-0.63552 0-0.40792-0.16849-0.60596-0.16849-0.201-0.41678-0.201-0.26308 0-0.43452 0.20396-0.17145 0.201-0.17145 0.61483z" style="fill-opacity:.96471;fill:#0000aa;stroke-width:.22701"/>
      <path d="m-103.36-5.528h1.2031v1.5962q0.24534-0.25421 0.48773-0.36358 0.24238-0.10937 0.57344-0.10937 0.49069 0 0.7715 0.29855 0.28377 0.29855 0.28377 0.91633v1.9952h-1.209v-1.7263q0-0.29559-0.10937-0.41678-0.10937-0.12415-0.30742-0.12415-0.21874 0-0.35471 0.16553t-0.13597 0.59414v1.5075h-1.2031z" style="fill-opacity:.96471;fill:#0000aa;stroke-width:.22701"/>
      <path d="m-99.318-4.3338h1.1203v0.51137q0.25125-0.31333 0.50842-0.44634 0.25716-0.13597 0.62666-0.13597 0.49955 0 0.78036 0.29855 0.28377 0.29559 0.28377 0.91633v1.9952h-1.209v-1.7263q0-0.29559-0.10937-0.41678-0.10937-0.12415-0.30742-0.12415-0.21874 0-0.35471 0.16553t-0.13597 0.59414v1.5075h-1.2031z" style="fill-opacity:.96471;fill:#0000aa;stroke-width:.22701"/>
      <path d="m-95.505-3.2401h1.7499v0.93111h-1.7499z" style="fill-opacity:.96471;fill:#0000aa;stroke-width:.22701"/>
      <path d="m-93.175-5.528h3.5885v0.9252h-2.2465v0.68873h2.0839v0.88382h-2.0839v0.85426h2.3115v0.98136h-3.6535z" style="fill-opacity:.96471;fill:#0000aa;stroke-width:.22701"/>
      <path d="m-88.866-4.3338h1.1262v0.51433q0.16258-0.33402 0.33402-0.45817 0.1744-0.1271 0.42861-0.1271 0.26603 0 0.58232 0.16553l-0.37245 0.85722q-0.21283-0.088678-0.33697-0.088678-0.23647 0-0.36653 0.19509-0.18622 0.2749-0.18622 1.0287v1.0523h-1.209z" style="fill-opacity:.96471;fill:#0000aa;stroke-width:.22701"/>
      <path d="m-86.149-5.528h1.2031v0.81879h-1.2031zm0 1.1942h1.2031v3.1392h-1.2031z" style="fill-opacity:.96471;fill:#0000aa;stroke-width:.22701"/>
      <path d="m-81.831-2.4213 1.1439 0.13006q-0.09459 0.35767-0.31037 0.62074-0.21578 0.26012-0.55276 0.40496-0.33402 0.14484-0.8513 0.14484-0.49955 0-0.83357-0.091633-0.33106-0.094589-0.57049-0.3015-0.23943-0.20987-0.3754-0.49068t-0.13597-0.74489q0-0.48477 0.16553-0.80697 0.12119-0.23647 0.33106-0.4227 0.20987-0.18918 0.43156-0.28081 0.35175-0.14484 0.90156-0.14484 0.76854 0 1.1705 0.2749 0.40496 0.2749 0.56754 0.80401l-1.1321 0.15075q-0.05321-0.201-0.19509-0.3015-0.13893-0.10346-0.3754-0.10346-0.29855 0-0.48477 0.21578-0.18327 0.21283-0.18327 0.64735 0 0.38723 0.18327 0.58823t0.46704 0.201q0.23647 0 0.39609-0.12119 0.16258-0.12119 0.24238-0.37245z" style="fill-opacity:.96471;fill:#0000aa;stroke-width:.22701"/>
     </g>
     <g style="fill-opacity:.96471;fill:#0000aa" aria-label="Johnson">
      <path d="m-76.683-5.528h1.342v2.3559q0 0.74194-0.13302 1.1292-0.13006 0.38723-0.52911 0.65621-0.39609 0.26899-1.0168 0.26899-0.65621 0-1.0168-0.17736-0.36062-0.17736-0.55867-0.51729-0.19509-0.34289-0.23056-0.84539l1.2799-0.1744q3e-3 0.28672 0.05025 0.42565 0.04729 0.13893 0.15962 0.22465 0.07685 0.056162 0.21874 0.056162 0.22465 0 0.32811-0.16553 0.10641-0.16849 0.10641-0.56458z" style="fill-opacity:.96471;fill:#0000aa;stroke-width:.22701"/>
      <path d="m-74.824-2.7553q0-0.71829 0.48477-1.1824 0.48477-0.46704 1.3095-0.46704 0.94294 0 1.4248 0.54684 0.38722 0.44043 0.38722 1.0848 0 0.7242-0.48181 1.1883-0.47886 0.46112-1.3272 0.46112-0.75672 0-1.2238-0.38427-0.57345-0.4759-0.57345-1.2474zm1.206-0.00296q0 0.41974 0.16849 0.62074 0.17144 0.201 0.42861 0.201 0.26012 0 0.42565-0.19805 0.16849-0.19805 0.16849-0.63552 0-0.40792-0.16849-0.60596-0.16849-0.201-0.41678-0.201-0.26308 0-0.43452 0.20396-0.17144 0.201-0.17144 0.61483z" style="fill-opacity:.96471;fill:#0000aa;stroke-width:.22701"/>
      <path d="m-70.632-5.528h1.2031v1.5962q0.24534-0.25421 0.48773-0.36358t0.57345-0.10937q0.49068 0 0.7715 0.29855 0.28377 0.29855 0.28377 0.91633v1.9952h-1.209v-1.7263q0-0.29559-0.10937-0.41678-0.10937-0.12415-0.30742-0.12415-0.21874 0-0.35471 0.16553t-0.13597 0.59414v1.5075h-1.2031z" style="fill-opacity:.96471;fill:#0000aa;stroke-width:.22701"/>
      <path d="m-66.588-4.3338h1.1203v0.51137q0.25125-0.31333 0.50842-0.44634 0.25716-0.13597 0.62665-0.13597 0.49955 0 0.78036 0.29855 0.28377 0.29559 0.28377 0.91633v1.9952h-1.209v-1.7263q0-0.29559-0.10937-0.41678-0.10937-0.12415-0.30742-0.12415-0.21874 0-0.35471 0.16553t-0.13597 0.59414v1.5075h-1.2031z" style="fill-opacity:.96471;fill:#0000aa;stroke-width:.22701"/>
      <path d="m-62.757-2.0636 1.1942-0.11232q0.0739 0.21283 0.20691 0.30446 0.13302 0.091633 0.35471 0.091633 0.24239 0 0.3754-0.10346 0.10346-0.076854 0.10346-0.19213 0-0.13006-0.13597-0.201-0.09755-0.050251-0.51729-0.12415-0.62666-0.10937-0.872-0.201-0.24238-0.094589-0.41087-0.31628-0.16553-0.22169-0.16553-0.50546 0-0.31037 0.18031-0.53502t0.49659-0.33402q0.31628-0.11232 0.84835-0.11232 0.56162 0 0.82766 0.085722 0.26899 0.085722 0.44634 0.26603 0.18031 0.18031 0.29855 0.48773l-1.141 0.11232q-0.04434-0.15075-0.1478-0.22169-0.14188-0.094589-0.34289-0.094589-0.20396 0-0.29855 0.073898-0.09163 0.070942-0.09163 0.1744 0 0.11528 0.11824 0.1744 0.11824 0.059118 0.51433 0.10641 0.60005 0.067986 0.89269 0.18918 0.29264 0.12119 0.44634 0.34584 0.15666 0.22465 0.15666 0.49364 0 0.27194-0.16553 0.52911-0.16258 0.25716-0.51728 0.41087-0.35176 0.15075-0.96067 0.15075-0.86017 0-1.2267-0.24534-0.36358-0.24534-0.46704-0.6976z" style="fill-opacity:.96471;fill:#0000aa;stroke-width:.22701"/>
      <path d="m-58.992-2.7553q0-0.71829 0.48477-1.1824 0.48477-0.46704 1.3095-0.46704 0.94294 0 1.4248 0.54684 0.38722 0.44043 0.38722 1.0848 0 0.7242-0.48182 1.1883-0.47886 0.46112-1.3272 0.46112-0.75672 0-1.2238-0.38427-0.57345-0.4759-0.57345-1.2474zm1.206-0.00296q0 0.41974 0.16849 0.62074 0.17144 0.201 0.42861 0.201 0.26012 0 0.42565-0.19805 0.16849-0.19805 0.16849-0.63552 0-0.40792-0.16849-0.60596-0.16849-0.201-0.41678-0.201-0.26308 0-0.43452 0.20396-0.17144 0.201-0.17144 0.61483z" style="fill-opacity:.96471;fill:#0000aa;stroke-width:.22701"/>
      <path d="m-54.8-4.3338h1.1203v0.51137q0.25125-0.31333 0.50842-0.44634 0.25716-0.13597 0.62666-0.13597 0.49955 0 0.78036 0.29855 0.28377 0.29559 0.28377 0.91633v1.9952h-1.209v-1.7263q0-0.29559-0.10937-0.41678-0.10937-0.12415-0.30742-0.12415-0.21874 0-0.35471 0.16553t-0.13597 0.59414v1.5075h-1.2031z" style="fill-opacity:.96471;fill:#0000aa;stroke-width:.22701"/>
     </g>
    </g>
   </g>
  </g>
 </g>
</svg>
