<svg width="300" height="300" version="1.1" viewBox="0 0 79.375 79.375" xmlns="http://www.w3.org/2000/svg">
 <defs>
  <clipPath id="clipPath22">
   <path d="m0 358h394.67v-358h-394.67z"/>
  </clipPath>
  <clipPath id="clipPath22-2">
   <path d="m0 358h394.67v-358h-394.67z"/>
  </clipPath>
 </defs>
 <g transform="matrix(.72156 0 0 .72156 11.049 -145.98)">
  <g transform="translate(-3.0069,-4.6574e-6)">
   <g transform="matrix(.98162 0 0 .98162 123.29 270.93)">
    <g transform="translate(-.5854 1.6087)">
     <g transform="matrix(.19697 0 0 -.19697 -120.39 19.777)">
      <g clip-path="url(#clipPath22)">
       <g transform="translate(32.276,-48.733)">
        <g clip-path="url(#clipPath22-2)">
         <g transform="matrix(9.2419,0,0,-9.2419,-1511.7,181.19)">
          <g transform="translate(.0028977)">
           <circle transform="translate(172.51,-18.077)" cx="8.9165" cy="8.9165" r="7.9375" style="fill:#ffffff;paint-order:fill markers stroke"/>
           <path transform="matrix(.72933 0 0 .72933 117.77 -33.842)" d="m95.922 25.195-3.5231 3.5231a7.1952 7.1918 45 0 1 0.17886 0.18572 7.1952 7.1918 45 0 1-0.25735 10.027 7.1952 7.1918 45 0 1-10.031 0.017 7.1952 7.1918 45 0 1-0.05844-0.06248l-3.5986 3.5986a12.233 12.227 45 0 0 0.13198 0.13371 12.233 12.227 45 0 0 17.054-0.02886 12.233 12.227 45 0 0 0.4374-17.048 12.233 12.227 45 0 0-0.33389-0.34612z" style="fill:#4e95ff;paint-order:fill markers stroke"/>
           <path transform="matrix(.72933 0 0 .72933 117.77 -33.842)" d="m95.922 25.195-3.5231 3.5231a7.1952 7.1918 45 0 0-0.18572-0.17886 7.1952 7.1918 45 0 0-10.027 0.25735 7.1952 7.1918 45 0 0-0.017 10.031 7.1952 7.1918 45 0 0 0.06248 0.05845l-3.5986 3.5986a12.233 12.227 45 0 1-0.13371-0.13198 12.233 12.227 45 0 1 0.0289-17.054 12.233 12.227 45 0 1 17.048-0.4374 12.233 12.227 45 0 1 0.34611 0.33389z" style="fill:#ff4f73;paint-order:fill markers stroke"/>
           <g transform="matrix(.46251 .044417 -.037465 .39012 120.79 -25.59)" style="fill:#ffcc00">
            <path d="m133.9 27.928-6.6657 2.4846 10.614-15.792-1.9741 6.6537zm-1.2459-1.9791 6.6657-2.4846-10.614 15.792 1.9741-6.6537z" style="fill:#ffcc00;paint-order:fill markers stroke"/>
           </g>
          </g>
          <g transform="matrix(.69078 0 0 .69078 119.28 -33.578)">
           <g style="fill:#000000;stroke-width:.31501" aria-label="Office Magnet">
            <path d="m69.655 58.806q-1.05 0-1.5053-0.57013-0.45528-0.57013-0.45528-1.6694v-2.5102q0-0.54142 0.10254-0.93928t0.32813-0.68908q0.22969-0.29122 0.61115-0.43478 0.38145-0.14766 0.91877-0.14766 1.0459 0 1.5012 0.56193 0.45939 0.56193 0.45939 1.6489v2.5102q0 0.53322-0.10664 0.93928-0.10254 0.40196-0.33224 0.70138-0.22559 0.29532-0.60704 0.44708-0.38146 0.15176-0.91467 0.15176zm-0.31173-0.97209q0.13125 0.05332 0.31173 0.05332t0.30762-0.05332q0.12715-0.05332 0.20098-0.13946 0.07793-0.08614 0.11895-0.22559 0.04512-0.13946 0.05742-0.27891 0.01641-0.13946 0.01641-0.33224v-3.0886q0-0.2461-0.02461-0.41017t-0.09844-0.30762q-0.06973-0.14766-0.21329-0.21739-0.14356-0.07383-0.36505-0.07383t-0.36915 0.07383q-0.14356 0.06973-0.21329 0.21739-0.06973 0.14356-0.09434 0.30762-0.02461 0.16407-0.02461 0.41017v3.0886q0 0.19278 0.0123 0.33224 0.01641 0.13946 0.05742 0.27891 0.04512 0.13946 0.11895 0.22559t0.20098 0.13946z" style="stroke-width:.31501"/>
            <path d="m72.698 58.724v-4.0401h-0.52501v-0.81623h0.52501v-0.2584q0-0.29942 0.02461-0.5045t0.09434-0.40196q0.07383-0.19688 0.20508-0.31173 0.13125-0.11895 0.34864-0.18868t0.52501-0.06973q0.2338 0 0.62755 0.04512v0.85314q-0.02871-0.0041-0.14356-0.02051-0.11485-0.02051-0.16817-0.02051-0.20508 0-0.28712 0.13125-0.08203 0.12715-0.08203 0.37325v0.37325h0.68088v0.81623h-0.68088v4.0401z" style="stroke-width:.31501"/>
            <path d="m75.028 58.724v-4.0401h-0.52501v-0.81623h0.52501v-0.2584q0-0.29942 0.02461-0.5045t0.09434-0.40196q0.07383-0.19688 0.20508-0.31173 0.13125-0.11895 0.34864-0.18868t0.52501-0.06973q0.2338 0 0.62755 0.04512v0.85314q-0.02871-0.0041-0.14356-0.02051-0.11485-0.02051-0.16817-0.02051-0.20508 0-0.28712 0.13125-0.08203 0.12715-0.08203 0.37325v0.37325h0.68088v0.81623h-0.68088v4.0401z" style="stroke-width:.31501"/>
            <path d="m77.386 53.101v-0.96799h1.1526v0.96799zm0 5.6234v-4.8564h1.1485v4.8564z" style="stroke-width:.31501"/>
            <path d="m80.889 58.802q-0.82443 0-1.1854-0.46349-0.36095-0.46349-0.36095-1.3412v-1.4069q0-0.87776 0.36095-1.3371t1.1854-0.45939q0.77521 0 1.1239 0.36505 0.35274 0.36505 0.35274 1.1321v0.39376h-1.0705v-0.41427q0-0.36915-0.09024-0.51271-0.08613-0.14766-0.30352-0.14766-0.242 0-0.32813 0.17227-0.08203 0.17227-0.08203 0.63986v1.7719q0 0.46349 0.09024 0.62755 0.09434 0.15996 0.31993 0.15996 0.22969 0 0.31173-0.15586 0.08203-0.15996 0.08203-0.47989v-0.52091h1.0705v0.45939q0 0.7547-0.36095 1.1362-0.35684 0.38145-1.1157 0.38145z" style="stroke-width:.31501"/>
            <path d="m84.175 55.779h0.82854v-0.46349q0-0.36915-0.09434-0.52911-0.09024-0.15996-0.32403-0.15996-0.2379 0-0.32403 0.18047t-0.08613 0.65627zm0.42247 3.0229q-0.83264 0-1.1977-0.45939t-0.36505-1.3576v-1.3741q0-0.89826 0.36915-1.3576 0.36915-0.45939 1.1895-0.45939 0.43478 0 0.7301 0.12715 0.29942 0.12715 0.46349 0.38556 0.16817 0.2584 0.2379 0.59884 0.06973 0.33634 0.06973 0.81213v0.63576h-1.9196v0.7301q0 0.15176 0 0.2379 0.0041 0.08203 0.01641 0.20098 0.0123 0.11895 0.03691 0.18458 0.02871 0.06563 0.07383 0.13536 0.04512 0.06563 0.11895 0.09434t0.17227 0.02871q0.22969 0 0.31993-0.15996 0.09024-0.16407 0.09024-0.47169v-0.27891h1.0869v0.19278q0 0.7547-0.37735 1.1567-0.37325 0.39786-1.1157 0.39786z" style="stroke-width:.31501"/>
            <path d="m88.99 58.724 0.11074-6.8006h1.2715l0.9844 4.7784 1.0131-4.7784h1.2428l0.11485 6.8006h-0.93518l-0.08203-4.6841-0.9803 4.6841h-0.72599l-0.9926-4.7005-0.07383 4.7005z" style="stroke-width:.31501"/>
            <path d="m96.032 57.912q0.13125 0 0.2584-0.09844 0.13125-0.09844 0.20918-0.20098v-1.3371q-0.85314 0.47169-0.85314 1.0705 0 0.26251 0.09844 0.41427 0.10254 0.15176 0.28712 0.15176zm-0.43888 0.89006q-0.45939-0.0041-0.7547-0.35684-0.29122-0.35684-0.29122-0.80393 0-0.42247 0.13946-0.7383t0.45528-0.54142q0.31993-0.22559 0.52911-0.32813t0.64396-0.27071q0.12305-0.04922 0.18458-0.07383v-0.40606q0-0.32813-0.07793-0.4799-0.07383-0.15176-0.30762-0.15176-0.38145 0-0.38966 0.53322l-0.01641 0.30352-1.0992-0.04102q0-0.02461 0-0.09024 0.0041-0.06563 0.0041-0.08613 0.05332-0.76291 0.45118-1.1198 0.40196-0.35684 1.1444-0.35684 0.71779 0 1.0623 0.38966 0.34864 0.38966 0.34864 1.1033v2.219q0 0.55783 0.09024 1.2182h-1.0377q-0.09434-0.47579-0.11895-0.71369-0.10254 0.33634-0.34454 0.56603-0.2379 0.22559-0.61525 0.22559z" style="stroke-width:.31501"/>
            <path d="m99.913 56.493q0.28711 0 0.37325-0.21329 0.0861-0.21329 0.0861-0.7547 0-0.55783-0.082-0.77521t-0.36915-0.21739q-0.29122 0-0.37735 0.22149-0.08613 0.21739-0.08613 0.77111 0 0.19688 0.0082 0.33634 0.0082 0.13536 0.03692 0.26251 0.02871 0.12715 0.07793 0.20508 0.04922 0.07383 0.13125 0.11895t0.20098 0.04512zm0.22149 2.8958q0.35274 0 0.5127-0.09024 0.16407-0.09024 0.16817-0.29122 0.0123-0.21739-0.11074-0.31583-0.12305-0.10254-0.44708-0.13125l-0.77112-0.07383q-0.2502 0.29122-0.2502 0.53732 0 0.13125 0.06153 0.20508 0.06563 0.07383 0.26251 0.11485 0.20098 0.04512 0.57423 0.04512zm8e-3 0.80803q-0.21739 0-0.38145-0.0041-0.15996-0.0041-0.37325-0.02461-0.21329-0.01641-0.36915-0.05332-0.15176-0.03281-0.31583-0.09434-0.15996-0.06153-0.26251-0.14766-0.09844-0.08203-0.16407-0.21329-0.06563-0.12715-0.06563-0.28712 0-0.61115 0.68498-1.0295-0.4922-0.16817-0.52091-0.54552-0.02051-0.26251 0.11074-0.45118 0.13125-0.19278 0.44708-0.45118-0.27071-0.20508-0.40606-0.51271-0.13536-0.30762-0.13536-0.82443 0-0.89416 0.38556-1.3289 0.38966-0.43478 1.1239-0.43478 0.75471 0 1.0418 0.47579 0.0902-0.11074 0.27071-0.26251 0.18458-0.15176 0.38556-0.2502l0.15996-0.07383 0.27071 0.63986q-0.14355 0.03692-0.43477 0.14766t-0.38966 0.17227q0.0779 0.14356 0.13536 0.40606 0.0574 0.2584 0.0574 0.52091 0 1.6653-1.4561 1.6653-0.11895 0-0.32813-0.03281-0.20508-0.03692-0.26661-0.06152-0.13946 0.20918-0.13125 0.31993 0.0123 0.16407 0.42657 0.20508 0.04922 0.0082 0.43478 0.04922 0.38556 0.03692 0.45119 0.04512 0.61114 0.06563 0.89416 0.35684 0.28301 0.28712 0.28301 0.82443 0 0.64396-0.36094 0.94748-0.36095 0.30762-1.2018 0.30762z" style="stroke-width:.31501"/>
            <path d="m102.37 58.724v-4.8564h1.1485v0.47579q0.58654-0.54962 1.1854-0.54962 0.41427 0 0.60294 0.30352 0.19278 0.30352 0.19278 0.7465v3.8802h-1.1485v-3.6259q0-0.22969-0.0656-0.34044t-0.2543-0.10664q-0.21329 0.0041-0.51271 0.22149v3.8515z" style="stroke-width:.31501"/>
            <path d="m107.41 55.779h0.82854v-0.46349q0-0.36915-0.0943-0.52911-0.0902-0.15996-0.32403-0.15996-0.2379 0-0.32403 0.18047-0.0861 0.18047-0.0861 0.65627zm0.42247 3.0229q-0.83264 0-1.1977-0.45939-0.36505-0.45939-0.36505-1.3576v-1.3741q0-0.89826 0.36915-1.3576t1.1895-0.45939q0.43478 0 0.7301 0.12715 0.29942 0.12715 0.46348 0.38556 0.16817 0.2584 0.2379 0.59884 0.0697 0.33634 0.0697 0.81213v0.63576h-1.9196v0.7301q0 0.15176 0 0.2379 4e-3 0.08203 0.0164 0.20098 0.0123 0.11895 0.0369 0.18458 0.0287 0.06563 0.0738 0.13536 0.0451 0.06563 0.11895 0.09434 0.0738 0.02871 0.17227 0.02871 0.22969 0 0.31993-0.15996 0.0902-0.16407 0.0902-0.47169v-0.27891h1.0869v0.19278q0 0.7547-0.37736 1.1567-0.37325 0.39786-1.1156 0.39786z" style="stroke-width:.31501"/>
            <path d="m111.47 58.79q-0.33224-0.0041-0.56603-0.11074-0.2297-0.10664-0.35685-0.30352-0.12305-0.20098-0.18047-0.44708-0.0533-0.2461-0.0533-0.57423v-2.7276h-0.4799v-0.75881h0.4799v-1.4274h1.1526v1.4274h0.7383v0.75881h-0.7383v2.8014q0 0.2379 0.10255 0.34454 0.10664 0.10254 0.33633 0.10664 0.15997 0.0041 0.34864-0.02461v0.87776q-0.48809 0.06563-0.78341 0.05742z" style="stroke-width:.31501"/>
           </g>
          </g>
         </g>
        </g>
       </g>
      </g>
     </g>
    </g>
   </g>
  </g>
 </g>
</svg>
