<svg width="300" height="300" version="1.1" viewBox="0 0 79.375 79.375" xmlns="http://www.w3.org/2000/svg">
 <g transform="matrix(.6102 0 0 .6102 15.47 -117.33)">
  <g transform="translate(-3.0069,-4.6574e-6)">
   <g style="fill:#abc837" aria-label="Z">
    <path d="m11.833 264.41 11.256-14.433v-0.84073h-12.774v1.0743h11.14l-11.28 14.433v0.84073h13.171v-1.0743z" style="fill:#abc837;stroke-width:.3503"/>
   </g>
   <g transform="matrix(.95106 0 0 .95106 115.58 270.36)" style="stroke-width:1.2614;stroke:#abc837">
    <g transform="translate(5.1532)">
     <path d="m-97.191-21.751h11.099" style="fill:#000000;stroke-width:1.1258;stroke:#abc837"/>
     <path d="m-97.191-13.719h11.099" style="fill:#000000;stroke-width:1.1258;stroke:#abc837"/>
     <path d="m-97.191-5.6879h11.099" style="fill:#000000;stroke-width:1.1258;stroke:#abc837"/>
    </g>
   </g>
   <g transform="scale(1.0023 .99772)" style="fill:#abc837" aria-label="N">
    <path d="m55.342 249.71v14.219l-11.132-14.219h-1.0056v16.371h1.1927v-14.219l11.156 14.219h0.98225v-16.371z" style="fill:#abc837;stroke-width:.3508"/>
   </g>
   <g transform="matrix(.98162 0 0 .98162 123.29 270.93)">
    <g transform="translate(-.52916)">
     <g style="fill:#000000;stroke-width:.30892;stroke:#000000" aria-label="5">
      <path d="m-60.863-9.9654h-0.92396l0.24639-2.2894h3.2852v-0.65704h-3.932l-0.36958 3.6034h1.5297c1.8274 0 2.4023 0.57491 2.4023 1.4989 0 0.87263-0.64677 1.4681-1.8684 1.4681-0.92396 0-1.7453-0.34905-2.2072-0.83156l-0.35932 0.58517c0.55437 0.56464 1.5399 0.92396 2.5768 0.92396 1.7555 0 2.6076-0.95476 2.6076-2.1764 0-1.273-0.8213-2.1251-2.9875-2.1251z" style="fill:#000000;stroke-width:.30892;stroke:#000000"/>
     </g>
     <g style="fill:#000000;stroke-width:.29085;stroke:#000000" aria-label="0">
      <path d="m-59.984-15.218c1.5635 0 2.7024-1.2836 2.7024-3.4359s-1.1389-3.4359-2.7024-3.4359-2.6928 1.2836-2.6928 3.4359 1.1292 3.4359 2.6928 3.4359zm0-0.637c-1.1775 0-1.9882-0.9941-1.9882-2.7989s0.81072-2.7989 1.9882-2.7989c1.1775 0 1.9882 0.9941 1.9882 2.7989s-0.81072 2.7989-1.9882 2.7989z" style="stroke-width:.29085;stroke:#000000"/>
     </g>
     <g transform="scale(.91801 1.0893)" style="fill:#000000;stroke-width:.291;stroke:#000000" aria-label="N">
      <path d="m-54.302-20.243v5.0497l-4.0096-5.0497h-0.54231v6.2233h0.65789v-5.0497l4.0007 5.0497h0.54231v-6.2233z" style="stroke-width:.291;stroke:#000000"/>
     </g>
     <g style="fill:#000000;stroke-width:.30892;stroke:#000000" aria-label="0">
      <path d="m-51.475-5.6741c1.6631 0 2.8745-1.3654 2.8745-3.6548s-1.2114-3.6548-2.8745-3.6548-2.8643 1.3654-2.8643 3.6548 1.2011 3.6548 2.8643 3.6548zm0-0.67757c-1.2525 0-2.1148-1.0574-2.1148-2.9772s0.86236-2.9772 2.1148-2.9772 2.1148 1.0574 2.1148 2.9772-0.86236 2.9772-2.1148 2.9772z" style="fill:#000000;stroke-width:.30892;stroke:#000000"/>
     </g>
    </g>
   </g>
  </g>
 </g>
</svg>
