<svg width="300" height="300" version="1.1" viewBox="0 0 79.375 79.375" xmlns="http://www.w3.org/2000/svg">
 <g transform="matrix(.92224 0 0 .92224 3.0863 -197.62)">
  <g transform="translate(0 .2764)">
   <g transform="matrix(.72564 0 0 .72564 -9.6711 56.17)">
    <g transform="matrix(.038226 -.010023 .010023 .038226 237.33 431.53)" style="fill:#230007" aria-label="kiki">
     <path d="m-3397.5-4955.3q-26.589 1.1078-47.085-1.1079-19.942-2.2158-39.33-10.525-1.1079-0.5539-2.2157-2.7696-1.1079-2.2158-2.2158-3.3237-3.3236-1.6618-8.3091-1.1078-4.4315 0-7.7551-1.1079-4.4315-2.2158-13.848-8.3091-9.4169-6.6473-17.172-12.187-9.9709-7.7552-18.834-15.51-8.863-7.7552-15.51-16.618-1.6618-2.2157-4.4315-2.2157-2.7697-0.554-4.9855-1.6618-16.064 9.9709-27.143 24.927-11.079 14.956-21.05 30.467t-21.05 29.359-28.251 21.05q-4.9855 0-8.863-1.6618-3.8776-1.6618-7.2012-4.4315-3.3237-2.2158-6.6473-4.4315-3.3236-2.2158-7.2012-3.3237 0-6.6472-2.7697-12.187-2.2157-5.5394-4.9854-10.525-2.2158-4.9855-3.3237-9.417-1.1078-4.9854 2.2158-9.4169-3.3236-3.3237-9.9709-7.2012 3.3236-3.3237 2.7697-6.0934 0-2.7697-1.1079-5.5394-1.1079-2.7696-2.2157-6.0933-0.554-3.3236 1.6618-6.6472 2.7697 0 6.6472-1.1079-3.3236-4.4315-3.3236-4.9855 0.554-1.1078-1.1079-2.7696-1.1078-3.3237 1.1079-3.8776 2.2158-1.1079 4.4315-2.2158 2.2158-27.143 9.417-50.408t16.064-44.869 17.172-43.761q8.863-22.158 14.402-47.639 6.0933-6.0933 9.4169-14.402 3.8776-8.3091 7.7552-16.618 4.4315-8.3091 9.4169-16.064 5.5394-8.3091 14.956-13.295 7.7552 0.554 13.848 4.4315 6.0933 3.3237 14.956 2.7697 1.6618 2.7697 2.7697 5.5394 1.6618 2.7697 3.8776 5.5394l8.3091-1.6618q6.0933 4.9854 10.525 12.741 4.9854 7.2012 6.6473 15.51 1.6618 8.3091-0.554 16.064-2.2157 7.2012-10.525 11.633 0.5539 2.7697 0 4.4315 0 1.1078-0.5539 2.2157-0.554 1.1079-0.554 2.2158 0 1.1078 1.6618 3.3236-11.079 8.3091-16.618 23.265t-6.0933 26.589q6.6472-6.6473 14.402-12.741 8.309-6.6473 16.618-12.741 8.863-6.0933 16.618-11.633 8.309-5.5394 14.956-11.079 18.28-16.618 34.898-26.589 17.172-10.525 36.006-23.265 4.4315-1.1079 6.6473 0 2.7696 0.5539 5.5393 1.6618 0-3.3236-2.2157-3.8776-1.6618-0.5539-1.1079-4.4315 8.3091-2.2157 14.402-4.9854 6.0933-3.3237 13.294-6.0934 4.9855 4.9855 9.417 10.525 4.4315 4.9854 12.187 6.0933 2.7697 6.0933 6.6473 9.4169 3.8775 2.7697 7.7551 5.5394t6.6473 6.6473q3.3236 3.8776 3.8775 12.187-2.2157 3.8776-4.9854 8.3091-2.2158 4.4315-4.4315 10.525-11.079 9.9709-22.712 17.726-11.079 7.7551-22.711 14.956-11.633 7.2012-23.819 14.402t-24.927 17.172q-2.7697 3.8775-7.2012 7.2012-3.8776 2.7697-8.3091 6.0933-4.4315 2.7697-8.3091 6.0933-3.8775 3.3237-6.0933 7.7552-1.6618 0.5539-3.3236 0.5539t-3.3237 0.5539q-1.6618 3.8776-5.5393 6.0934-3.3237 2.2157-4.4315 6.0933 8.309 17.726 21.604 27.143 13.294 9.4169 29.913 13.848 16.618 3.8776 36.006 4.4315 19.388 0 40.438 0 2.2158-0.5539 1.6618-2.2157 0-2.2158 2.7697-1.6618 13.294 4.4315 20.496 12.74 7.2012 7.7552 17.172 15.51-1.1079 21.05-12.741 34.898-11.633 13.848-31.02 22.158z" style="fill:#230007;stroke-width:21.271"/>
     <path d="m-3224.7-4974.1q2.7697 16.618-2.2157 26.035-4.4315 9.4169-13.294 13.848-8.3091 4.9855-19.388 5.5394-11.079 0.5539-21.05-1.1079-5.5394-7.7551-9.9709-19.388t-8.3091-23.819q-3.8776-12.741-7.2012-24.927-2.7697-12.187-4.9854-21.604 2.7696-6.6473 3.3236-14.956 1.1079-8.863 1.1079-17.726 0.5539-8.863 0.5539-17.726 0.5539-9.4169 1.6618-17.726 3.8776-23.265 11.079-44.315 7.7551-21.05 12.187-43.761 1.1079-4.9854-1.1078-9.417-1.6619-4.4315-0.554-8.309 0.554-2.2158 3.3236-2.7697 2.7697-1.1079 3.3237-3.8776 1.6618-6.0933 0.5539-9.9709-0.5539-3.8775 2.2158-9.4169 2.7697-4.4315 6.6472-12.741 4.4315-8.863 3.3237-18.28 4.9854-3.3236 9.4169-7.7551t8.863-7.7551q4.9855-3.8776 10.525-6.6473 6.0934-2.7697 14.402-2.7697 4.4315 5.5394 5.5394 12.187 1.6618 6.6473 2.7697 13.295 1.6618 6.6472 4.4315 12.74 2.7697 5.5394 9.417 8.8631 0 4.4315 0 11.079 0 6.6473 0.5539 13.294 0.554 6.0934 2.2158 11.633 2.2157 4.9855 6.6472 6.6473-9.9709 26.589-18.834 52.624-8.3091 26.035-13.848 52.624-5.5394 26.035-7.2012 52.624-1.1079 26.589 3.8775 53.732z" style="fill:#230007;stroke-width:21.271"/>
     <path d="m-2803.7-4955.3q-26.589 1.1078-47.085-1.1079-19.942-2.2158-39.33-10.525-1.1078-0.5539-2.2157-2.7696-1.1079-2.2158-2.2158-3.3237-3.3236-1.6618-8.3091-1.1078-4.4315 0-7.7551-1.1079-4.4315-2.2158-13.848-8.3091-9.417-6.6473-17.172-12.187-9.9709-7.7552-18.834-15.51-8.8631-7.7552-15.51-16.618-1.6618-2.2157-4.4315-2.2157-2.7697-0.554-4.9855-1.6618-16.064 9.9709-27.143 24.927-11.079 14.956-21.05 30.467t-21.05 29.359-28.251 21.05q-4.9855 0-8.863-1.6618-3.8776-1.6618-7.2012-4.4315-3.3237-2.2158-6.6473-4.4315-3.3236-2.2158-7.2012-3.3237 0-6.6472-2.7697-12.187-2.2157-5.5394-4.9854-10.525-2.2158-4.9855-3.3236-9.417-1.1079-4.9854 2.2157-9.4169-3.3236-3.3237-9.9709-7.2012 3.3236-3.3237 2.7697-6.0934 0-2.7697-1.1079-5.5394-1.1078-2.7696-2.2157-6.0933-0.554-3.3236 1.6618-6.6472 2.7697 0 6.6473-1.1079-3.3237-4.4315-3.3237-4.9855 0.554-1.1078-1.1079-2.7696-1.1078-3.3237 1.1079-3.8776 2.2158-1.1079 4.4315-2.2158 2.2158-27.143 9.417-50.408t16.064-44.869 17.172-43.761q8.863-22.158 14.402-47.639 6.0933-6.0933 9.4169-14.402 3.8776-8.3091 7.7552-16.618 4.4315-8.3091 9.4169-16.064 5.5394-8.3091 14.956-13.295 7.7551 0.554 13.848 4.4315 6.0933 3.3237 14.956 2.7697 1.6619 2.7697 2.7697 5.5394 1.6619 2.7697 3.8776 5.5394l8.3091-1.6618q6.0933 4.9854 10.525 12.741 4.9855 7.2012 6.6473 15.51 1.6618 8.3091-0.554 16.064-2.2157 7.2012-10.525 11.633 0.5539 2.7697 0 4.4315 0 1.1078-0.5539 2.2157-0.554 1.1079-0.554 2.2158 0 1.1078 1.6618 3.3236-11.079 8.3091-16.618 23.265t-6.0933 26.589q6.6472-6.6473 14.402-12.741 8.309-6.6473 16.618-12.741 8.863-6.0933 16.618-11.633 8.309-5.5394 14.956-11.079 18.28-16.618 34.898-26.589 17.172-10.525 36.006-23.265 4.4315-1.1079 6.6473 0 2.7697 0.5539 5.5393 1.6618 0-3.3236-2.2157-3.8776-1.6618-0.5539-1.1079-4.4315 8.3091-2.2157 14.402-4.9854 6.0933-3.3237 13.294-6.0934 4.9855 4.9855 9.417 10.525 4.4315 4.9854 12.187 6.0933 2.7697 6.0933 6.6473 9.4169 3.8776 2.7697 7.7551 5.5394 3.8776 2.7697 6.6473 6.6473 3.3236 3.8776 3.8776 12.187-2.2158 3.8776-4.9855 8.3091-2.2157 4.4315-4.4315 10.525-11.079 9.9709-22.712 17.726-11.079 7.7551-22.711 14.956t-23.819 14.402q-12.187 7.2012-24.927 17.172-2.7697 3.8775-7.2012 7.2012-3.8776 2.7697-8.3091 6.0933-4.4315 2.7697-8.3091 6.0933-3.8775 3.3237-6.0933 7.7552-1.6618 0.5539-3.3236 0.5539t-3.3236 0.5539q-1.6619 3.8776-5.5394 6.0934-3.3237 2.2157-4.4315 6.0933 8.309 17.726 21.604 27.143 13.294 9.4169 29.913 13.848 16.618 3.8776 36.006 4.4315 19.388 0 40.438 0 2.2158-0.5539 1.6618-2.2157 0-2.2158 2.7697-1.6618 13.294 4.4315 20.496 12.74 7.2012 7.7552 17.172 15.51-1.1078 21.05-12.74 34.898-11.633 13.848-31.021 22.158z" style="fill:#230007;stroke-width:21.271"/>
     <path d="m-2630.8-4974.1q2.7697 16.618-2.2158 26.035-4.4315 9.4169-13.294 13.848-8.3091 4.9855-19.388 5.5394-11.079 0.5539-21.05-1.1079-5.5394-7.7551-9.9709-19.388t-8.3091-23.819q-3.8775-12.741-7.2012-24.927-2.7696-12.187-4.9854-21.604 2.7697-6.6473 3.3236-14.956 1.1079-8.863 1.1079-17.726 0.5539-8.863 0.5539-17.726 0.554-9.4169 1.6619-17.726 3.8775-23.265 11.079-44.315 7.7552-21.05 12.187-43.761 1.1078-4.9854-1.1079-9.417-1.6618-4.4315-0.5539-8.309 0.5539-2.2158 3.3236-2.7697 2.7697-1.1079 3.3236-3.8776 1.6618-6.0933 0.554-9.9709-0.554-3.8775 2.2157-9.4169 2.7697-4.4315 6.6473-12.741 4.4315-8.863 3.3236-18.28 4.9854-3.3236 9.4169-7.7551 4.4316-4.4315 8.8631-7.7551 4.9854-3.8776 10.525-6.6473 6.0933-2.7697 14.402-2.7697 4.4315 5.5394 5.5394 12.187 1.6618 6.6473 2.7697 13.295 1.6618 6.6472 4.4315 12.74 2.7697 5.5394 9.4169 8.8631 0 4.4315 0 11.079 0 6.6473 0.554 13.294 0.5539 6.0934 2.2157 11.633 2.2158 4.9855 6.6473 6.6473-9.9709 26.589-18.834 52.624-8.3091 26.035-13.848 52.624-5.5394 26.035-7.2012 52.624-1.1079 26.589 3.8776 53.732z" style="fill:#230007;stroke-width:21.271"/>
    </g>
    <path d="m60.091 290.52q0.20671 0.59726 0.12365 1.045-0.08306 0.44772-0.33752 0.81512-0.25446 0.36739-0.63342 0.64214-0.37898 0.27476-0.74064 0.51993-0.21829-0.0681-0.43658-0.13609-0.20099-0.0976-0.45386-0.1065-0.45231-0.48278-0.84429-0.83098-0.39812-0.37168-0.5222-0.94047-0.0061-0.0234-0.04417-0.26403-0.01458-0.24674-0.04146-0.54037-0.0034-0.29978-0.04146-0.54037-0.02073-0.27018-0.02688-0.29362-0.52692 0.18827-1.0639 0.5295-0.53694 0.34123-1.032 0.74664-0.47159 0.39927-0.89632 0.78625-0.40126 0.38082-0.65686 0.64829 0.01844 0.0703-0.0016 0.37625-0.02616 0.28247-0.08691 0.62415-0.0669 0.31821-0.16954 0.59569-0.10264 0.27747-0.26675 0.3205 0.04189 0.0642 0.10721 0.12222 0.06533 0.058 0.04918 0.18756-0.30363 0.17984-0.52464 0.38812-0.21486 0.23172-0.47159 0.39926-0.2506 0.19099-0.57881 0.27704-0.32821 0.0861-0.83512-0.0316-0.03688-0.14067-0.17869-0.20371-0.14795-0.0865-0.30706-0.11993-0.14181-0.0631-0.24788-0.0854-0.11222-0.0457-0.12452-0.0926-0.11108 0.0542-0.13681-0.13952-0.02573-0.1937 0.16297-0.14296-0.34395-0.2606-0.47575-0.47662-0.11451-0.24559-0.42386-0.5654 0.03459-0.0592 0.05075-0.1887-0.0073-0.12336-0.0084-0.22329-0.0011-0.0999 0.03345-0.1591 0.0346-0.0592 0.12337-7e-3 -0.10221-0.1987-0.0922-0.35166 0.01-0.15296 0.02616-0.28247 0.01615-0.12952 0.0089-0.25289-0.0073-0.12337-0.13795-0.23945 0.23987-0.61413 0.20343-1.231-0.0426-0.64028-0.14824-1.1388 0.12108-0.20714 0.1584-0.54264 0.06076-0.34166 0.05118-0.66487-0.01573-0.34666-0.11293-0.62184-0.07991-0.30478-0.19942-0.47391-0.0073-0.12337 0.23944-0.13794-0.06218-0.81053-0.26732-1.784-0.18784-1.0031-0.27461-1.9074-0.09292-0.92777 0.06317-1.6703 0.14996-0.76594 0.8214-1.1675 0.26976 0.45546 0.57911 0.77525 0.3328 0.31363 0.6829 0.59769 0.36739 0.25445 0.71747 0.5385 0.37354 0.2779 0.72478 0.66189 0.09335 0.45158 0.17669 1.0561 0.08334 0.60455 0.12594 1.2448 0.06605 0.63413 0.09636 1.2275 0.05376 0.58727 0.06447 1.0104 0.05418 0.11107 0.1541 0.10993 0.12337-7e-3 0.10221 0.19871 0.5258-0.2882 1.1046-0.56524t1.1515-0.57753q0.57266-0.30049 1.0923-0.61213 0.53694-0.34123 0.96163-0.7282-0.12251-0.94505-0.17468-1.9086-0.05218-0.96349-0.44487-1.8878 0.09263-0.12451 0.12609-0.28362 0.03345-0.15911 0.18527-0.24903-0.23402-0.4147-0.33965-0.91316-0.10565-0.49849-0.08177-0.98082 0.04732-0.48847 0.24874-0.86701 0.21872-0.40813 0.61613-0.61257 0.35624 0.30749 0.66059 0.70376 0.29821 0.37284 0.60256 0.7691 0.32165 0.36669 0.63716 0.70991 0.33279 0.31363 0.75823 0.50277 0.2486 0.66143 0.4626 1.3821 0.23745 0.71449 0.4576 1.4586 0.04603 0.94006 0.03287 1.8455 0.0041 0.87588 0.15624 1.8382-0.11493 0.23058-0.14724 0.48962t-0.05846 0.54152q-0.03231 0.25904-0.08807 0.5242-0.0619 0.24173-0.18298 0.44887 0.16754 0.25675 0.16482 0.53307 0.01458 0.24673 0.29434 0.54923z" style="fill:#230007;stroke-width:.93068"/>
    <path d="m73.952 275.06q0.18213 0.50348 0.3977 0.84785 0.21558 0.34438 0.44845 0.65917 0.20327 0.29748 0.38311 0.60112 0.19714 0.27405 0.36082 0.70719-0.02773 0.65872 0.01373 1.1991 0.06491 0.53422 0.11865 1.1214-0.15996 0.9189-0.34567 1.6441-0.18569 0.72522-0.27377 1.2494-0.08649 0.14796-0.13723 0.33666-0.03345 0.15911-0.0842 0.3478-0.02845 0.0826-0.0619 0.24173-0.03345 0.15911-0.06804 0.21829l-0.5119-0.0412 0.0599 0.6107-0.30363 0.17983-0.16068 0.34281q-0.2426 0.89044-0.59352 1.5588-0.35711 0.64487-0.87944 1.2328-0.50505 0.55836-1.21 1.119-0.68144 0.55451-1.5555 1.2347-0.41084 0.0576-0.71561 0.13752-0.28748 0.0503-0.55151 0.0945-0.44544 0.11679-1.1203 0.21858-0.11951-0.16912-0.27861-0.20257-0.15911-0.0334-0.27632-3e-3 -0.44772-0.0831-0.75092-0.37939-0.28591-0.32594-0.58411-0.69877-0.18484-0.22715-0.35738-0.40741-0.17869-0.2037-0.38083-0.40126l0.36781-0.22171-0.66331-0.42745q-0.06533-0.058-0.14795-0.0865-0.08878-0.0519-0.1541-0.10993l-0.1218-0.36897q-0.49448-1.5992-0.84486-2.9356-0.33308-1.3659-0.25803-2.5131l-0.06762-0.25789q-0.0649-0.53422-0.08062-0.88086-0.02187-0.37011-0.0549-0.68719-0.0649-0.53422-0.04103-1.0165 0.30978-0.15639 0.42473-0.38698 0.10879-0.25403 0.18298-0.44887 0.32207-0.1095 0.47003-0.023t0.3328 0.31363q0.17254 0.18027 0.40427 0.39512 0.25517 0.20871 0.64371 0.25716 0.09606 0.17526 0.22172 0.3678 0.14295 0.16297 0.2982 0.37284 0.29205 0.34936 0.54951 0.75792 0.27476 0.37899 0.4027 0.77138-0.11765 0.50691-0.10464 1.1299 0.03645 0.61685 0.14939 1.2387 0.13023 0.59226 0.32464 1.1426 0.21171 0.52078 0.45073 0.859l0.22058 0.26789 0.38625-0.15138q0.65414-0.37196 1.1615-0.73048 0.52464-0.38812 0.93704-0.82197 0.41244-0.43387 0.75334-0.94919 0.33479-0.5388 0.68572-1.2071 0.35097-0.6683 0.52434-1.4404 0.1907-0.80167 0.22844-1.6134 0.06118-0.81783-0.01215-1.5754-0.05604-0.7871-0.18127-1.4558 0.36166-0.24517 0.25101-0.66718l-0.1145-0.24559q-0.13066-0.11608-0.08606-0.32822 0.02387-0.48233 0.47819-0.852 0.43658 0.13609 0.79168 0.34366 0.37854 0.20142 0.71021 0.41515z" style="fill:#230007;stroke-width:.93068"/>
    <path d="m90.514 280.89q0.1591 0.0334 0.22558 0.19142 0.0665 0.15796 0.0676 0.25788-0.28064 0.64986-0.38941 0.90389-0.10879 0.25403-0.14839 0.38969-0.0457 0.11222-0.12108 0.20714-0.0519 0.0888-0.27175 0.39698-0.88902 0.90963-1.8853 1.697-0.9728 0.78126-2.1427 1.2884-0.11994 0.30706-0.63458 0.54222-0.48504 0.25246-0.9059 0.46303-0.10607-0.0223-0.1541-0.10993-0.01844-0.0703-0.12451-0.0926 0.03803 0.24059-0.14953 0.28977-0.18141 0.0726-0.49346 0.0292-0.28248-0.0262-0.63644-0.1338-0.32436-0.0903-0.57226-0.17568-0.06805 0.21829-0.15954 0.44272-0.06804 0.21829-0.23716 0.3378-0.27018 0.0207-0.41698 0.0342-0.12336 7e-3 -0.20985 0.15525-0.15911-0.0334-0.27747-0.10264-0.09492-0.0753-0.21329-0.14452-0.08878-0.0519-0.22444-0.0915-0.11222-0.0457-0.31207-0.0434 0.0223-0.10607-0.12065-0.26904-0.1491-0.18641-0.34895-0.18412 0.05075-0.1887-0.19827-0.37395-0.23172-0.21486-0.40542-0.49507-0.02072-0.27018-0.0772-0.58112-0.05647-0.31094 0.18912-0.42543-0.06647-0.15796-0.1441-0.26289-0.07762-0.10493-0.15525-0.20985 0.12723-0.1837 0.14839-0.38969 0.015-0.22944 0.0066-0.45275-0.0084-0.22329 0.0066-0.45275 0.015-0.22943 0.16568-0.41927 0.0266-0.75864 0.05775-1.1176 0.02503-0.3824-0.01416-0.72291-0.01572-0.34666-0.04374-0.74019-0.0046-0.3997 0.05889-1.0177-0.11565-0.34552-0.08949-0.62799 0.02-0.30592 0.04618-0.58839 0.04346-0.31207 0.04002-0.61185-0.0096-0.32322-0.20785-0.69717-0.32207 0.1095-0.4074 0.35738-0.09149 0.22444-0.05232 0.56495-0.13838 0.23673-0.4197 0.3105-0.26404 0.0442-0.45658 0.16982-0.90661-0.11307-1.6056-0.58123-0.69903-0.46815-1.2424-1.2026 0.06962-0.59454 0.39943-1.0569 0.32366-0.48576 0.8014-0.86158 0.4716-0.39926 1.0443-0.69974 0.56652-0.32393 1.0923-0.61213 0.87129-0.40384 1.7303-0.85456 0.85899-0.45073 1.9324-0.65702 0.12223-0.10721 0.30978-0.15638 0.20485-0.0788 0.41586-0.1341 0.211-0.0553 0.39854-0.10449 0.20485-0.0788 0.32708-0.18599 0.1541 0.10994 0.3774 0.1015 0.24059-0.038 0.54767 0.0819 0.22601-0.28477 0.44429-0.21672 0.24173 0.0619 0.44272 0.15954 0.20099 0.0976 0.37239 0.17797 0.19485 0.0742 0.35896 0.0312 0.21943 0.16797 0.50303 0.29404 0.30707 0.11994 0.57337 0.27561 0.28362 0.12608 0.48576 0.32366 0.22558 0.19141 0.30549 0.49618 7e-3 0.12336 0.10722 0.12222 0.0999-1e-3 0.16525 0.0569 0.214 0.72063 0.0975 1.3275-0.0992 0.57725-0.35752 1.121-0.23487 0.53765-0.57583 1.053-0.31751 0.50919-0.55236 1.0468 0.31436 0.24331 0.68059 0.39783 0.36625 0.15454 0.73249 0.30905 0.38968 0.14839 0.73863 0.33253 0.34895 0.18412 0.6287 0.48661 0.0592 0.0346 0.14181 0.063 0.0765 5e-3 0.1591 0.0334 0.13181 0.21601 0.31665 0.44317 0.17869 0.20371 0.31049 0.4197 0.1491 0.18641 0.22172 0.36781 0.0665 0.15796-0.02 0.30592zm-6.1792-6.7487q-1.208 0.26661-2.336 0.83799-1.1046 0.56524-1.7787 1.2431 0.4846 0.22372 0.95079 0.37711 0.48963 0.14724 0.84086 0.5312 0.81597-0.61484 1.3718-1.3619 0.54964-0.77052 0.95134-1.6275zm2.2657 7.3989q9e-3 -0.25288 0.15954-0.44272 0.15067-0.18984 0.30749-0.35624 0.15067-0.18984 0.25445-0.36739 0.0976-0.20099 5.3e-4 -0.47618-0.85471-0.20184-1.5062-0.1062-0.63413 0.066-1.1722 0.30736-0.52077 0.21171-0.99352 0.51105-0.44932 0.2932-0.94662 0.49876-0.07963 0.7475-0.15195 1.6184-0.07233 0.87088-0.13351 1.6887 0.67872-0.27819 1.2157-0.61942 0.53079-0.36468 1.0085-0.7405 0.50121-0.38198 0.95548-0.75163 0.4716-0.39927 1.0024-0.76393z" style="fill:#230007;stroke-width:.93068"/>
    <path d="m86.061 250.56c-1.3016-9e-3 -2.3379 0.2186-3.2118 0.52329-1.3983 0.48753-2.3369 0.99743-4.6457 1.263-1.3367 0.15376-2.6934 0.70251-4.164 1.2178s-3.0561 0.99715-3.349 1.0309c-4.1347 0.47564-7.6502 2.294-10.832 2.9108-6.5204 1.264-13.597 0.2992-20.366 5.3341l-0.1549 0.11524-0.1282 0.14433c-0.54811 0.61695-0.60411 1.0895-0.6918 1.546s-0.12316 0.91618-0.1397 1.4166c-0.03309 1.0009 0.02238 2.1548 0.11909 3.3585 0.19343 2.4075 0.55613 4.969 0.82726 6.4513 0.72669 3.9727 0.86232 5.5167 0.99411 7.093 0.13023 1.5573 0.26224 3.1864 0.91337 6.8164 0.04154 1.1819 0.22048 2.0284 0.41454 2.9813 0.19945 0.97937 0.43568 2.2192 0.66437 4.5635-0.09347 0.98391-0.07037 1.8684 0.16386 2.7043 0.25336 0.90417 0.82671 1.7645 1.6064 2.2808 1.5594 1.0328 3.2554 0.81114 4.995 0.46718 3.4762-0.68722 7.836-2.437 12.595-3.3156 5.159-0.80751 8.5248-1.4909 13.536-3.4968 4.047-1.62 5.6325-2.0279 7.3878-2.3694 1.7551-0.34149 3.7856-0.61568 8.1509-1.8327a1.878 1.878 0 1 0-1.0086-3.6177c-4.2197 1.1765-5.9482 1.392-7.8597 1.7639-1.9112 0.37187-3.899 0.90101-8.0664 2.5692-4.7678 1.9087-7.6404 2.4788-12.756 3.2788l-0.02516 4e-3 -0.02501 5e-3c-5.2191 0.96159-9.8478 2.7723-12.656 3.3275-1.4042 0.27759-2.1758 0.0974-2.1932 0.086-0.0086-6e-3 -9.79e-4 0.061-0.06375-0.16293-0.06275-0.22394-0.11628-0.7312-0.02863-1.5086l0.02184-0.19404-0.01853-0.19442c-0.24597-2.5828-0.52709-4.0652-0.73918-5.1065-0.21211-1.0416-0.32844-1.5173-0.34956-2.4897l-0.0032-0.1475-0.02616-0.14518c-0.65366-3.6228-0.75329-4.9861-0.88654-6.5794-0.13323-1.5931-0.29878-3.3911-1.0423-7.4558-0.23832-1.3029-0.59806-3.8358-0.7781-6.0762-0.09-1.1202-0.13402-2.1785-0.10906-2.9336 0.0091-0.27529 0.02951-0.48686 0.05086-0.653 5.4289-3.7632 11.313-2.9682 18.391-4.3402 3.9198-0.75984 7.3337-2.4971 10.546-2.8667 1.3362-0.15367 2.6913-0.70231 4.162-1.2175 1.4706-0.51528 3.0559-0.99711 3.3514-1.0311 2.7776-0.3195 4.377-1.0726 5.4531-1.4478 0.94337-0.3289 1.5197-0.50239 3.1166-0.2314 0.71693 1.2798 1.3727 3.6522 1.7138 5.9534 0.39435 2.6609 0.48401 5.0796 0.64663 6.3394l2e-3 0.0122 2e-3 0.0121c0.71389 5.014 1.8325 8.3307 2.4286 11.422 1.0435 5.4112 1.5171 9.6878 1.9339 12.883a1.878 1.878 0 1 0 3.7242-0.48579c-0.40814-3.1289-0.89718-7.5431-1.9703-13.108-0.66164-3.4309-1.7268-6.5374-2.3955-11.224-0.0904-0.70772-0.22671-3.5077-0.6556-6.4015-0.4298-2.9002-1.0377-6.0324-2.8407-8.2758l-0.42051-0.52321-0.6569-0.13808c-0.99432-0.20907-1.8709-0.29911-2.6519-0.30426zm-43.817 14.707c0.0045 9.8e-4 -0.01068 0.0325-0.03381 0.0727 0.01156-0.0441 0.02843-0.0739 0.03381-0.0727z" style="color-rendering:auto;color:#000000;dominant-baseline:auto;fill:#230007;font-feature-settings:normal;font-variant-alternates:normal;font-variant-caps:normal;font-variant-ligatures:normal;font-variant-numeric:normal;font-variant-position:normal;image-rendering:auto;isolation:auto;mix-blend-mode:normal;shape-padding:0;shape-rendering:auto;solid-color:#000000;stroke-width:.039518;text-decoration-color:#000000;text-decoration-line:none;text-decoration-style:solid;text-indent:0;text-orientation:mixed;text-transform:none;white-space:normal"/>
   </g>
  </g>
 </g>
</svg>
