<svg width="300" height="300" version="1.1" viewBox="0 0 79.375 79.375" xmlns="http://www.w3.org/2000/svg">
 <defs>
  <clipPath id="clipPath22">
   <path d="m0 358h394.67v-358h-394.67z"/>
  </clipPath>
  <clipPath id="clipPath22-2">
   <path d="m0 358h394.67v-358h-394.67z"/>
  </clipPath>
 </defs>
 <g transform="matrix(.7216 0 0 .7216 11.05 -145.99)">
  <g transform="translate(-3.0069,-4.6574e-6)">
   <g transform="matrix(.98162 0 0 .98162 123.29 270.93)">
    <g transform="translate(-.5854 1.6087)">
     <g transform="matrix(.19697 0 0 -.19697 -120.39 19.777)">
      <g clip-path="url(#clipPath22)">
       <g transform="translate(32.276,-48.733)">
        <g clip-path="url(#clipPath22-2)">
         <g transform="translate(-32.277,48.733)">
          <g transform="translate(94.329,85.189)">
           <path d="m0 0v-4.884h-8.594v-29.163h-5.119v29.163h-8.406v4.884z" style="fill:#00b2b6"/>
          </g>
          <g transform="translate(104.05,51.142)">
           <path d="m0 0v34.047h5.119v-14.464h17.047v14.464h5.166v-11.364c0-1.848-0.016-3.742-0.047-5.683v-17h-5.119v14.699h-17.047v-14.699z" style="fill:#00b2b6"/>
          </g>
          <g transform="translate(143.39,51.142)">
           <path d="m0 0v34.047h22.354v-4.65h-17.188v-9.955h15.309v-4.743h-15.309v-9.956h17.845v-4.743z" style="fill:#00b2b6"/>
          </g>
          <g transform="translate(190.54,51.142)">
           <path d="m0 0v34.047h5.119v-14.464h17.047v14.464h5.166v-11.364c0-1.848-0.016-3.742-0.047-5.683v-17h-5.119v14.699h-17.047v-14.699z" style="fill:#00b2b6"/>
          </g>
          <g transform="translate(229.89,51.142)">
           <path d="m0 0v34.047h22.354v-4.65h-17.188v-9.955h15.31v-4.743h-15.31v-9.956h17.845v-4.743z" style="fill:#00b2b6"/>
          </g>
          <g transform="translate(267.7,68.142)">
           <path d="m0 0h4.649c1.252 0 2.301 0.203 3.147 0.61 0.845 0.439 1.503 0.971 1.972 1.597 0.501 0.626 0.845 1.3 1.033 2.02 0.22 0.719 0.329 1.377 0.329 1.972s-0.109 1.237-0.329 1.925c-0.188 0.721-0.532 1.378-1.033 1.973-0.5 0.626-1.174 1.142-2.019 1.549-0.814 0.408-1.832 0.611-3.053 0.611h-4.696zm-5.166-17v34.047h9.299c1.784 0 3.412-0.235 4.884-0.704 1.503-0.47 2.786-1.175 3.85-2.114 1.096-0.908 1.942-2.035 2.536-3.381 0.595-1.315 0.893-2.833 0.893-4.555 0-0.939-0.094-1.879-0.282-2.818-0.188-0.908-0.501-1.8-0.94-2.677-0.406-0.845-0.938-1.644-1.596-2.395-0.658-0.719-1.456-1.331-2.395-1.832 1.252-1.971 2.614-4.163 4.086-6.574 1.471-2.379 2.958-4.712 4.461-6.997h-6.152c-0.626 0.971-1.284 1.988-1.972 3.053-0.658 1.064-1.331 2.113-2.02 3.146-0.657 1.065-1.315 2.098-1.972 3.099-0.626 1.033-1.221 1.988-1.785 2.865h-5.729v-12.163z" style="fill:#00b2b6"/>
          </g>
          <g transform="translate(302.5,65.23)">
           <path d="m0 0h8.5c-0.438 1.033-0.861 2.02-1.268 2.959-0.376 0.971-0.736 1.848-1.08 2.63-0.313 0.814-0.595 1.518-0.845 2.113s-0.439 1.065-0.564 1.409c-0.031 0.063-0.109 0.282-0.234 0.658-0.095 0.376-0.173 0.719-0.236 1.033-0.062-0.314-0.156-0.657-0.281-1.033-0.126-0.376-0.204-0.595-0.235-0.658zm14.323-14.088c-0.156 0.345-0.376 0.846-0.657 1.503-0.282 0.657-0.61 1.408-0.986 2.254-0.345 0.877-0.736 1.815-1.174 2.817-0.407 1.034-0.83 2.098-1.269 3.194h-12.021l-4.039-9.768h-5.072l15.168 35.644c0.188-0.439 0.517-1.237 0.987-2.396 0.501-1.158 1.08-2.551 1.737-4.179 0.689-1.596 1.441-3.381 2.254-5.353 0.846-1.941 1.691-3.914 2.536-5.918 0.877-2.003 1.722-3.976 2.536-5.917 0.846-1.94 1.613-3.726 2.301-5.354 0.689-1.627 1.269-3.02 1.738-4.179 0.5-1.127 0.845-1.909 1.033-2.348z" style="fill:#00b2b6"/>
          </g>
          <g transform="translate(197.34,298.8)">
           <path d="m0 0 39.185-60.713-39.185-121.92-39.195 121.92zm-9e-3 8.063c-0.963-2e-3 -1.859-0.494-2.379-1.304l-42.297-65.524c-0.461-0.714-0.577-1.597-0.317-2.406l42.296-131.6c0.477-1.491 2.071-2.314 3.563-1.839 0.875 0.28 1.56 0.964 1.839 1.839l42.297 131.6c0.259 0.809 0.143 1.692-0.318 2.406l-42.297 65.524c-0.521 0.813-1.421 1.304-2.387 1.304" style="fill:#00b2b6"/>
          </g>
          <g transform="translate(272.28,283.55)">
           <path d="m0 0 12.372-71.199-83.702-96.928 11.552 127.54zm2.045 7.648c-0.566-2e-3 -1.119-0.174-1.586-0.493l-64.537-43.803c-0.703-0.476-1.156-1.243-1.235-2.088l-12.459-137.68c-0.14-1.559 1.01-2.937 2.57-3.077 0.91-0.082 1.804 0.28 2.4 0.972l90.338 104.63c0.553 0.643 0.788 1.499 0.643 2.335l-13.341 76.847c-0.234 1.359-1.414 2.352-2.793 2.352" style="fill:#e7c145"/>
          </g>
          <g transform="translate(333.03,242.59)">
           <path d="m0 0-15.218-70.643-113.93-58.501 58.51 113.93zm3.648 6.53c-0.183-3e-3 -0.367-0.024-0.546-0.062l-76.248-16.426c-0.83-0.18-1.535-0.723-1.92-1.48l-63.154-122.97c-0.717-1.392-0.17-3.101 1.221-3.818 0.817-0.421 1.787-0.42 2.603 3e-3l122.96 63.153c0.757 0.386 1.3 1.091 1.481 1.921l16.425 76.248c0.328 1.531-0.648 3.037-2.179 3.365-0.211 0.045-0.426 0.066-0.641 0.062z" style="fill:#00b2b6"/>
          </g>
          <g transform="translate(122.39,283.55)">
           <path d="m0 0 59.787-40.587 11.544-127.54-83.694 96.928zm-2.053 7.648c-1.377-4e-3 -2.551-0.996-2.785-2.352l-13.341-76.847c-0.145-0.836 0.091-1.692 0.643-2.335l90.338-104.63c1.023-1.186 2.813-1.317 3.999-0.295 0.691 0.597 1.053 1.49 0.971 2.4l-12.46 137.68c-0.078 0.845-0.53 1.612-1.233 2.088l-64.529 43.803c-0.472 0.323-1.031 0.494-1.603 0.493" style="fill:#00b2b6"/>
          </g>
          <g transform="translate(61.638,242.59)">
           <path d="m0 0 70.644-15.218 58.501-113.92-113.93 58.492zm-3.657 6.53c-1.566 0.021-2.852-1.231-2.873-2.796-3e-3 -0.213 0.018-0.424 0.062-0.632l16.434-76.248c0.179-0.828 0.719-1.532 1.472-1.921l122.97-63.153c1.393-0.714 3.102-0.163 3.816 1.23 0.415 0.812 0.415 1.774 0 2.585l-63.145 122.97c-0.388 0.759-1.097 1.302-1.93 1.481l-76.248 16.425c-0.182 0.039-0.368 0.059-0.555 0.062" style="fill:#00b2b6"/>
          </g>
         </g>
        </g>
       </g>
      </g>
     </g>
    </g>
   </g>
  </g>
 </g>
</svg>
