<svg width="300" height="300" version="1.1" viewBox="0 0 79.375 79.375" xmlns="http://www.w3.org/2000/svg">
 <g transform="matrix(.63569 0 0 .63569 14.459 -123.88)">
  <g transform="translate(-18.143,-4.5357)">
   <path d="m81.086 252.31c0.08622 0.0514 0.26965 0.28606 0.40762 0.52145 0.23113 0.3943 0.25087 0.50313 0.25087 1.383 0.10907 0.64077-0.05298 1.0422-0.38575 1.5898-0.21216 0.34913-0.45675 0.73495-0.54352 0.85738-0.15316 0.21612-0.15248 0.22038 0.02336 0.14664 1.2756-0.53479 1.7207-0.63564 2.8192-0.63871 0.74786-0.0757 1.0789-0.0163 1.6217 0.35819 0.61755 0.42609 0.77763 0.66543 1.0951 1.6373 0.314 0.96129 0.67283 1.5122 1.3005 1.9965 0.99175 0.76532 1.2693 1.2376 1.2703 2.1616 1.93e-4 0.3826-0.04375 0.48169-0.37612 0.84331-0.50203 0.54619-1.3577 1.1357-2.4201 1.6674-1.1789 0.58999-1.8295 0.84036-3.3179 1.2768-0.69448 0.20366-1.2964 0.40415-1.3377 0.44554-0.04126 0.0414 0.10018 0.29069 0.31435 0.55401 0.5828 0.71655 0.69596 0.91555 0.75851 1.3338 0.06447 0.43116-0.0632 0.90528-0.33818 1.2559-0.37364 0.47636-2.7647 1.4622-4.8772 2.011-1.155 0.30003-4.2512 0.85212-5.8427 1.0418-0.39857 0.0475-1.0915 0.14642-1.5399 0.21981-0.99552 0.16291-2.9862 0.36272-5.1634 0.51824-2.2355 0.15969-11.957 0.15948-14.041-5.3e-4 -2.2471-0.17229-4.1442-0.36599-5.0727-0.51794-0.44838-0.0734-1.1414-0.1723-1.5399-0.21982-1.6004-0.19077-4.6897-0.74241-5.8427-1.0433-2.0084-0.52408-4.4245-1.4927-4.8202-1.9324-0.20209-0.22458-0.43387-0.78552-0.43322-1.0485 0.0013-0.44271 0.20698-0.91231 0.58932-1.344 0.44966-0.50765 0.62044-0.78575 0.52009-0.84683-0.03752-0.0228-0.69496-0.23137-1.461-0.46342-2.6444-0.80095-4.6151-1.8218-5.6132-2.9077-0.33238-0.36162-0.37657-0.4607-0.37612-0.84331 9.79e-4 -0.92409 0.2786-1.3963 1.2703-2.1616 0.62767-0.48437 0.98651-1.0352 1.3005-1.9965 0.31746-0.97187 0.47754-1.2112 1.0951-1.6373 0.48131-0.45288 0.93664-0.36013 1.6217-0.35819 1.0985 3e-3 1.5436 0.10392 2.8192 0.6387 0.1759 0.0737 0.17658 0.0695 0.02341-0.14664-0.63607-0.80436-0.92926-1.4665-0.92926-2.4544 0-0.91312 0.01402-0.98496 0.27498-1.4082 0.16327-0.26481 0.37545-0.48142 0.52229-0.5332 0.39532-0.13943 0.53836 0.0839 0.60096 0.93827 0.04386 0.59859 0.09122 0.76479 0.27333 0.95919 0.30024 0.32051 0.93566 0.72025 2.1733 1.3672 1.3664 0.71429 1.6356 1.0367 1.6356 1.959 0.13314 0.72308-0.4251 1.0888-0.9285 1.6349-0.51067 0.55396-0.94074 1.041-0.95571 1.0823-0.01499 0.0413 0.27038 0.12079 0.6341 0.17658 1.7793 0.27292 2.3366 0.45096 2.8142 0.89915 0.53929 0.50608 0.49467 1.2816-0.14441 2.5102-0.1573 0.3024-0.29785 0.57435-0.31233 0.60435-0.06317 0.13085 2.7144 0.81807 4.8713 1.2052 3.2712 0.58719 7.3523 0.87333 12.455 0.87333 5.1032 0 9.1842-0.28614 12.455-0.87333 2.1569-0.38716 4.9345-1.0744 4.8713-1.2052-0.0145-0.03-0.15502-0.30195-0.31234-0.60435-0.63908-1.2285-0.6837-2.0041-0.14441-2.5102 0.4776-0.44819 1.0348-0.62623 2.8141-0.89915 0.36371-0.0558 0.64906-0.13525 0.63409-0.17658-0.6363-0.92953-1.8842-1.5256-1.8842-2.7172 0-0.96069 0.24433-1.23 1.9057-2.1003 0.81633-0.42766 1.4723-0.84081 1.7404-1.0962 0.42592-0.40568 0.4303-0.41575 0.43161-0.99428 0.0021-0.88373 0.28652-1.2617 0.74425-0.98882zm-0.32826 0.41179c-0.03021 0.079-0.05642 0.39586-0.05819 0.70405-0.0016 0.30819-0.05271 0.64813-0.11322 0.75542-0.2088 0.37019-1.0193 0.94841-2.1029 1.5002-1.2371 0.62996-1.3579 0.71974-1.5949 1.1854-0.22792 0.44785-0.21662 0.88658 0.03229 1.255 0.26788 0.39651 1.8412 1.5258 2.2276 1.599 0.60645 0.11483 1.9998-0.19497 2.9584-0.65776 0.46567-0.22482 0.91388-0.56335 1.013-0.95933-0.03022-0.75916-0.82678-0.77869-1.4089-0.59288-0.86696 0.26638-1.0986 0.43807-0.96875 0.22742 0.08167-0.13252 1.9022-0.70945 2.5884-0.82028 0.78863-0.12736 1.123 0.0344 1.2095 0.36613 0.17572 0.67387-0.52872 1.5709-1.9581 2.137-0.86788 0.34375-3.0918 0.99175-4.3703 1.2734-0.59786 0.13171-1.4884 0.32757-1.9789 0.43524-1.0231 0.22456-1.418 0.47493-1.418 0.89903 0 0.19179 0.07076 0.30124 0.27175 0.42031 0.38569 0.22848 0.36074 0.41932-0.04484 0.34302l-0.31661-0.0596 0.14357 0.3507c0.2271 0.55471 0.67668 1.2137 0.82802 1.2137 0.18112 0 1.5902-0.48636 2.2259-0.76831 0.79727-0.3536 0.79418-0.55908-0.0098-0.65459-0.72208-0.0858-0.4629-0.16443 0.31825-0.11415 0.5331 0.0343 0.55344 0.0266 0.70812 0.18171 0.15449 0.15494 0.17486 0.22911 0.09692 0.35301-0.33895 0.53887-3.163 1.6072-5.7587 2.1374-0.60668 0.12392-1.1361 0.24577-1.1765 0.27079-0.17251 0.10693-3.0563 0.5219-5.5293 0.79567l-2.6723 0.29582h-12.138l-2.6723-0.29582c-2.4731-0.27377-5.3568-0.68874-5.5294-0.79567-0.04038-0.025-0.57242-0.14741-1.1823-0.27199-1.8911-0.38626-4.5265-1.239-5.3758-1.7394-0.59742-0.35201-0.69246-0.5175-0.44163-0.76905 0.15466-0.15511 0.33663-0.20522 0.86973-0.23953 0.78115-0.0503 1.0403 0.10548 0.31825 0.19124-0.54782 0.0651-0.71444 0.18389-0.52163 0.37198 0.25175 0.2456 2.3642 1.0456 2.7722 1.0498 0.12204 1e-3 0.58812-0.71104 0.79348-1.2126l0.14358-0.3507-0.3166 0.0596c-0.40559 0.0763-0.43054-0.11454-0.04485-0.34302 0.20099-0.11907 0.27176-0.22852 0.27176-0.42031 0-0.4241-0.3949-0.67447-1.418-0.89903-0.49055-0.10767-1.3811-0.30353-1.9789-0.43524-1.2786-0.28168-3.5025-0.92968-4.3703-1.2734-1.4294-0.56615-2.3985-1.2807-2.2228-1.9546 0.0865-0.33173 0.50089-0.6952 1.2895-0.56783 0.68624 0.11083 2.5068 0.68776 2.5884 0.82028 0.12973 0.21051 0.08319 0.0583-0.78049-0.20706-0.62643-0.19335-1.8673-0.34312-1.6259 0.4546 0 0.0826 0.14481 0.36099 0.32181 0.61871 0.23686 0.34489 0.62083 0.38299 0.93957 0.52051 0.62968 0.27165 1.9764 0.64904 2.3162 0.64904 0.40177 0 1.3106-0.32514 1.5565-0.55689 0.11129-0.10485 0.39718-0.31883 0.63531-0.4755 0.803-0.52833 1.0314-1.1558 0.67528-1.8556-0.237-0.46568-0.35778-0.55546-1.5949-1.1854-1.0836-0.5518-1.8941-1.13-2.1029-1.5002-0.06051-0.10729-0.11209-0.46079-0.11462-0.78556-0.0073-0.93791-0.1912-1.0463-0.56773-0.33451-0.15635 0.29555-0.20083 0.53128-0.20027 1.0614 8.2e-4 0.61423 0.03322 0.73978 0.33039 1.2727 0.35044 0.62844 1.3437 1.6613 1.7446 1.8142 0.132 0.0503 0.42195 0.0984 0.64434 0.10684 0.67034 0.0254 0.90181-0.50809 0.52543-0.92517-0.18767-0.20797-0.24662-0.23634 0.0024-0.10268 0.44428 0.23845 0.97006 1.0153 0.75342 1.3407-0.11513 0.17292-0.31237 0.30884-0.6241 0.30872-0.53481-1.8e-4 -2.1386-0.44236-2.7806-0.76658-0.72296-0.36512-1.7899-0.6656-2.647-0.7455-1.1324-0.10556-2.0035 0.38109-2.3442 1.3096-0.59274 1.6156-0.66663 1.766-1.1031 2.2449-0.24721 0.27127-0.59364 0.58256-0.76982 0.69176-0.17619 0.1092-0.43873 0.36245-0.58343 0.56278-0.21808 0.30192-0.2631 0.45396-0.2631 0.8887 0 0.4322 0.04141 0.57383 0.23539 0.80501 0.32978 0.39305 1.8484 1.3878 2.7594 1.8075 0.97089 0.4473 3.8213 1.378 4.2203 1.378 0.10199 0 0.36296-1.1373 0.43142-1.8801 0.07207-0.78198 0.54302-1.5343 1.1681-1.866 0.33252-0.17644 0.54305-0.20491 1.6932-0.2289 1.3574-0.0283 1.7873-0.0758 1.6805-0.18554-0.0341-0.035-0.37271-0.16591-0.75244-0.29082-0.89384-0.29404-0.97851-0.47353-0.18805-0.39866 1.1588 0.10975 1.816 0.31009 1.816 0.62025 0 0.0124-0.08577 0.26627-0.1906 0.28116-0.24723 0.0351-0.3548 0.17466-1.6901 0.18761-2.0334 0.0197-2.0398 0.14736-2.4283 0.57859-0.54053 0.60001-0.6133 0.77482-0.74665 1.7935-0.18736 1.4313-0.4734 2.1671-1.1367 2.9237-1.2325 1.406-0.29779 2.3169 3.5006 3.4116 1.5445 0.44513 6.447 1.3489 8.4243 1.553 0.29893 0.0308 0.89 0.11165 1.3135 0.17954 4.0351 0.64692 17.252 0.64692 21.288 0 0.4235-0.0679 1.0146-0.14869 1.3135-0.17954 1.9848-0.20486 6.8805-1.1081 8.4413-1.5574 2.2848-0.65768 3.6466-1.3286 3.892-1.9176 0.22474-0.5394 0.11088-0.91771-0.47035-1.5629-0.53664-0.5957-0.86131-1.4329-1.041-2.6841-0.17816-1.2408-0.22369-1.359-0.73938-1.9201-0.43924-0.47787-0.60469-0.51062-2.6558-0.52563-1.3138-0.01-1.3798 9e-3 -1.5497-0.14529-0.23219-0.21074-0.24027-0.34463-0.03212-0.53195 0.31897-0.28708 2.436-0.65304 2.3557-0.40722 0 0-0.43457 0.16606-0.77953 0.27812-0.34494 0.11205-0.68397 0.22543-0.75338 0.25196-0.31011 0.11851 0.10853 0.18365 1.4695 0.22864 1.2789 0.0423 1.513 0.0739 1.8445 0.24898 0.62455 0.32987 1.096 1.0826 1.1681 1.865 0.06846 0.74282 0.32944 1.8801 0.43141 1.8801 0.39904 0 3.2494-0.93069 4.2203-1.378 0.91106-0.41973 2.4297-1.4145 2.7595-1.8075 0.19397-0.23118 0.23539-0.37281 0.23539-0.80501 0-0.43474-0.04503-0.58678-0.26311-0.8887-0.1447-0.20033-0.40725-0.45358-0.58344-0.56278-0.17618-0.1092-0.52259-0.42048-0.7698-0.69174-0.43379-0.476-0.77431-1.1848-1.1116-2.3136-0.14118-0.47258-0.66402-0.93902-1.2841-1.1456-0.79867-0.26603-2.4643 0.0267-3.6986 0.65013-0.64197 0.32422-2.2458 0.76637-2.7806 0.76658-0.31173 9e-5 -0.6475-0.1358-0.76263-0.30872-0.21663-0.32538 0.24399-1.1023 0.68827-1.3407 0.24903-0.13366 0.34489-0.0645 0.15722 0.14347-0.20436 0.22647-0.31927 0.40852-0.08377 0.65992 0.23979 0.25597 0.92286 0.2894 1.3882 0.0679 0.42684-0.20314 1.4273-1.2747 1.7071-1.8284 0.42042-0.83203 0.40976-1.7425-0.02868-2.458-0.19946-0.32546-0.31685-0.36989-0.40039-0.15155zm-49.967 5.7866c0 0.0608-0.12724 0.49894-0.28277 0.97373-0.28143 0.85916-0.28694 0.86733-1.1643 1.7263-0.48484 0.47467-0.95335 0.97545-1.0411 1.1128-0.18179 0.28456-0.32173 0.32477-0.31614 0.0909 0.0073-0.30605 0.31789-0.73279 0.86625-1.1903 0.54731-0.45659 0.9481-0.9159 1.0561-1.2103 0.28033-0.76417 0.64469-1.5223 0.75137-1.5634 0.07184-0.0276 0.13062-5.2e-4 0.13062 0.0602zm54.621 0.35625c0.1002 0.16486 0.27334 0.56547 0.38478 0.89024 0.17844 0.52011 0.30223 0.68833 1.0387 1.4114 0.77066 0.75672 1.2216 1.4234 1.0642 1.5735-0.03364 0.0321-0.14811-0.0643-0.25441-0.21422-0.10631-0.14989-0.55316-0.61803-0.99301-1.0403-0.88407-0.84873-0.96894-0.98009-1.335-2.066-0.26517-0.78674-0.21716-1.0678 0.09475-0.55463zm-54.138 0.76911c0.23915 0.23983-0.14921 1.0263-0.92282 1.8688-0.33317 0.36284-0.7191 0.81302-0.85762 1.0004-0.23886 0.3231-0.51438 0.45372-0.51438 0.24385 0-0.21168 0.24067-0.52935 1.002-1.3226 0.60888-0.6344 0.82094-0.92223 0.90357-1.2264 0.05938-0.21861 0.12241-0.44856 0.14007-0.51102 0.03499-0.1237 0.15351-0.14891 0.24915-0.053zm53.712 0.64348c0.12812 0.4596 0.24962 0.62907 1.0113 1.4105 0.62188 0.638 0.86568 0.95143 0.86568 1.1128 0 0.30048-0.20984 0.28775-0.41373-0.0251-0.08955-0.1374-0.46428-0.58987-0.83271-1.0055-0.59297-0.6689-1.1053-1.5018-1.1079-1.801-7.94e-4 -0.0826 0.18894-0.21412 0.30871-0.21412 0.01265 0 0.08856 0.23506 0.16863 0.52236zm-53.304 1.0175c-0.07324 0.20951-1.0378 1.3658-1.1399 1.3664-0.27729 2e-3 -0.05336-0.4301 0.55311-1.0667 0.33277-0.3493 0.66308-0.51802 0.58675-0.29972zm53.065 0.39057c0.44498 0.4789 0.66707 0.80811 0.66707 0.98883 0 0.0932-0.03495 0.16944-0.07771 0.16944-0.09437 0-1.0999-1.2525-1.0999-1.3701 0-0.17443 0.24678-0.072 0.51054 0.21183zm-5.0562 2.2711c0.12101 0.19901 0.21193 0.59931 0.27894 1.2281 0.14519 1.3623 0.37297 1.9346 1.2738 3.2006 0.21683 0.30469 0.32307 0.53249 0.2723 0.58381-0.12593 0.12729-0.38669-0.15312-0.99549-1.0705-0.63115-0.95111-0.78708-1.4035-0.90478-2.6252-0.04695-0.4874-0.14913-1.0098-0.22706-1.1609-0.25156-0.48786 0.01635-0.62602 0.30224-0.15586zm-43.102 0.0272c0 0.0774-0.05547 0.25117-0.12327 0.38609s-0.14875 0.57235-0.17989 0.97207c-0.07665 0.98382-0.25699 1.6015-0.6603 2.2617-0.50855 0.8324-1.0357 1.5084-1.1762 1.5084-0.21305 0-0.14125-0.18275 0.31686-0.80649 0.77661-1.0574 1.0256-1.7252 1.1796-3.1634 0.08986-0.83933 0.27309-1.2991 0.5177-1.2991 0.069 0 0.12546 0.0633 0.12546 0.14078zm42.334 1.2832c0.03281 0.0329 0.05961 0.2195 0.05961 0.41471 0 0.46239 0.38292 1.602 0.77598 2.3095 0.36388 0.6549 0.36617 0.66657 0.13148 0.66657-0.33437 0-1.2698-2.1964-1.2698-2.9816 0-0.26599 0.18976-0.52248 0.30273-0.40919zm-41.649 0.3384c0.15966 0.63796-1.076 3.5084-1.3793 3.2042-0.03238-0.0325 0.1274-0.45806 0.35505-0.94575 0.42756-0.91594 0.55204-1.3056 0.65334-2.045 0.06463-0.47174 0.27584-0.5933 0.3709-0.21346z" style="fill:#000000;stroke-width:.2011;stroke:#000000"/>
   <g transform="matrix(.26458 0 0 .26458 -63.147 198.41)" style="fill:#000000">
    <path d="m451.65 240.01c-2.9838-4.3623-5.5188-8.1346-5.6334-8.3827-0.21146-0.45826-0.0634-0.69127 6.8158-10.728 1.0246-1.495 2.4122-3.52 3.0835-4.5 1.1222-1.6384 1.2488-1.7478 1.5718-1.359 0.3227 0.38844 7.6299 11.007 10.007 14.542 0.56108 0.83428 1.0202 1.6141 1.0202 1.7327 0 0.1179-1.067 1.771-2.371 3.672s-3.825 5.5934-5.602 8.2052c-1.7771 2.6117-3.2841 4.7488-3.349 4.749-0.0649 1.7e-4 -2.5592-3.5689-5.5431-7.9312z" style="fill:#000000"/>
    <g style="fill:#000000">
     <path d="m437.61 220.08c-2.9838-4.3623-5.5188-8.1346-5.6334-8.3827-0.21146-0.45826-0.0634-0.69127 6.8158-10.728 1.0246-1.495 2.4122-3.52 3.0835-4.5 1.1222-1.6384 1.2488-1.7478 1.5718-1.359 0.3227 0.38844 7.6299 11.007 10.007 14.542 0.56108 0.83428 1.0202 1.6141 1.0202 1.7327 0 0.1179-1.067 1.771-2.371 3.672s-3.825 5.5934-5.602 8.2052c-1.7771 2.6117-3.2841 4.7488-3.349 4.749-0.0649 1.7e-4 -2.5592-3.5689-5.5431-7.9312z" style="fill:#000000"/>
     <path d="m465.68 220.08c-2.9838-4.3623-5.5188-8.1346-5.6334-8.3827-0.21146-0.45826-0.0634-0.69127 6.8158-10.728 1.0246-1.495 2.4122-3.52 3.0835-4.5 1.1222-1.6384 1.2488-1.7478 1.5718-1.359 0.3227 0.38844 7.6299 11.007 10.007 14.542 0.56108 0.83428 1.0202 1.6141 1.0202 1.7327 0 0.1179-1.067 1.771-2.371 3.672s-3.825 5.5934-5.602 8.2052c-1.7771 2.6117-3.2841 4.7488-3.349 4.749-0.0649 1.7e-4 -2.5592-3.5689-5.5431-7.9312z" style="fill:#000000"/>
    </g>
   </g>
   <g transform="matrix(.26458 0 0 .26458 31.911 282.54)" style="fill:#000000;stroke-width:.4;stroke:#000000" aria-label="ES VINCENTIAN">
    <path d="m31.019-47.161-7.593-1.713 2.6-11.525 7.593 1.713-0.30732 1.3622-6.0605-1.3672-0.71244 3.1579 6.0605 1.3672-0.30732 1.3622-6.0605-1.3672-0.96563 4.2802 6.0605 1.3672z" style="fill:#000000;stroke-width:.4;stroke:#000000"/>
    <path d="m44.375-47.937q-0.13122 0.67772-0.57881 1.278-0.4398 0.60181-1.0974 0.95131-0.71972 0.37789-1.6075 0.49695-0.88003 0.12056-2.0485-0.10568-1.2542-0.24283-2.2138-0.67109-0.95186-0.42675-1.8989-1.087l0.37405-1.9319 0.10906 0.02112q0.73848 0.90268 1.8145 1.5232 1.076 0.62051 2.0887 0.81658 1.4333 0.27752 2.332-0.10614 0.90643-0.38215 1.0799-1.278 0.14932-0.7712-0.1615-1.2112-0.30303-0.43852-1.035-0.79038-0.55408-0.26892-1.22-0.50291-0.65811-0.23249-1.3914-0.53609-1.4791-0.62581-2.0746-1.5574-0.5862-0.93785-0.34035-2.2076 0.28204-1.4567 1.6923-2.1454 1.4118-0.69648 3.3047-0.32998 1.223 0.2368 2.1982 0.66807 0.97523 0.43128 1.6956 0.92637l-0.35293 1.8228-0.10906-0.02112q-0.55355-0.68908-1.5655-1.2648-1.0026-0.58205-2.1321-0.80075-1.2386-0.23981-2.0938 0.12802-0.84738 0.36934-1.0042 1.1795-0.14027 0.72446 0.15371 1.2097t1.1943 0.88588q0.47744 0.20559 1.3665 0.53936 0.88904 0.33377 1.4961 0.62104 1.2268 0.59313 1.7469 1.4131 0.52012 0.81999 0.2788 2.0664z" style="fill:#000000;stroke-width:.4;stroke:#000000"/>
    <path d="m66.328-53.232-5.7782 11.167-2.0775-0.26828-2.752-12.268 1.6683 0.21543 2.3437 10.783 5.0061-9.8341z" style="fill:#000000;stroke-width:.4;stroke:#000000"/>
    <path d="m72.622-40.803-4.6467-0.41916 0.10835-1.2012 1.541 0.13901 0.84473-9.3644-1.541-0.13901 0.10835-1.2012 4.6467 0.41916-0.10835 1.2012-1.541-0.13901-0.84473 9.3644 1.541 0.13901z" style="fill:#000000;stroke-width:.4;stroke:#000000"/>
    <path d="m86.182-40.018-1.9418-0.09148-5.0982-10.821-0.49736 10.557-1.4663-0.06908 0.55599-11.801 2.4332 0.11463 4.6502 9.8782 0.45405-9.6377 1.4663 0.06908z" style="fill:#000000;stroke-width:.4;stroke:#000000"/>
    <path d="m100.32-40.827q-0.43543 0.19264-0.79164 0.36108-0.34827 0.1684-0.91862 0.35379-0.48324 0.15321-1.054 0.25926-0.56278 0.11394-1.2451 0.11741-1.2854 0.0065-2.3425-0.34516-1.0492-0.35967-1.8307-1.1254-0.76554-0.74991-1.1999-1.9062-0.43438-1.1642-0.4422-2.7035-0.0074-1.4599 0.39934-2.6125 0.40675-1.1526 1.1803-1.95 0.74986-0.77347 1.811-1.1835 1.0691-0.4101 2.3704-0.41671 0.95214-0.0048 1.8975 0.22047 0.9533 0.22526 2.1147 0.7986l9e-3 1.8646-0.11902 6.05e-4q-0.98009-0.81229-1.9421-1.1803-0.96196-0.36804-2.0569-0.36248-0.8966 0.0046-1.6171 0.3018-0.71265 0.28927-1.2729 0.90308-0.54446 0.59787-0.84927 1.5119-0.29692 0.90606-0.29087 2.0962 0.0063 1.2457 0.34413 2.1406 0.34574 0.89486 0.88021 1.4555 0.55839 0.58433 1.2978 0.86622 0.74725 0.27392 1.5724 0.26973 1.1346-0.0058 2.1245-0.39959 0.98983-0.39382 1.8507-1.1758l0.11108-5.64e-4z" style="fill:#000000;stroke-width:.4;stroke:#000000"/>
    <path d="m112.22-40.531-7.7733 0.40464-0.61418-11.799 7.7733-0.40464 0.0726 1.3946-6.2044 0.32297 0.16829 3.2329 6.2044-0.32297 0.0726 1.3946-6.2044 0.32297 0.2281 4.3819 6.2044-0.32297z" style="fill:#000000;stroke-width:.4;stroke:#000000"/>
    <path d="m125.56-41.726-1.9349 0.18728-6.5939-9.98 1.0182 10.52-1.4611 0.14141-1.1382-11.76 2.4246-0.23467 6.0156 9.1113-0.92951-9.6036 1.4611-0.14141z" style="fill:#000000;stroke-width:.4;stroke:#000000"/>
    <path d="m137.48-53.797-4.1825 0.57034 1.4076 10.323-1.5566 0.21227-1.4076-10.323-4.1825 0.57034-0.18869-1.3837 9.9216-1.3529z" style="fill:#000000;stroke-width:.4;stroke:#000000"/>
    <path d="m146.44-44.713-4.6039 0.75558-0.19532-1.1901 1.5268-0.25058-1.5227-9.2783-1.5268 0.25058-0.19532-1.1901 4.6039-0.75558 0.19532 1.1901-1.5268 0.25058 1.5227 9.2783 1.5268-0.25058z" style="fill:#000000;stroke-width:.4;stroke:#000000"/>
    <path d="m160.09-47.228-1.6449 0.31179-1.7514-3.0195-5.0205 0.95163-0.52495 3.451-1.5669 0.29701 2.025-12.409 2.0581-0.39011zm-4.1231-3.9428-3.1149-5.313-0.9623 6.0859z" style="fill:#000000;stroke-width:.4;stroke:#000000"/>
    <path d="m172.5-49.884-1.9 0.41131-7.7112-9.1443 2.2362 10.33-1.4347 0.31058-2.4998-11.547 2.3808-0.5154 7.0356 8.3488-2.0415-9.43 1.4347-0.31058z" style="fill:#000000;stroke-width:.4;stroke:#000000"/>
   </g>
  </g>
 </g>
</svg>
