<svg width="300" height="300" version="1.1" viewBox="0 0 79.375 79.375" xmlns="http://www.w3.org/2000/svg">
 <g transform="translate(-.51994 .35519)">
  <g transform="matrix(.32428 0 0 .32428 58.203 18.937)" style="fill:#000000" aria-label="SAW&amp;SEW">
   <path d="m-80.54 114.78-0.56724 1.2892q-0.54146-0.19338-1.07-0.30941-0.52856-0.11602-0.97978-0.11602-0.7864 0-1.2505 0.3094-0.45121 0.3094-0.45121 0.7864 0 0.41254 0.33519 0.67038 0.34808 0.25783 0.86375 0.4641t1.1087 0.42543q0.60592 0.20627 1.1216 0.54146 0.51567 0.33518 0.85086 0.85085 0.34808 0.51568 0.34808 1.315 0 0.61881-0.23205 1.1216-0.21916 0.50278-0.67037 0.86375-0.45121 0.36097-1.1474 0.56724-0.68327 0.19337-1.6115 0.19337-0.56724 0-1.0313-0.0773t-0.83797-0.19338q-0.36097-0.11602-0.64459-0.24494-0.28362-0.14181-0.48989-0.27073l0.68327-1.3794q0.54146 0.29651 1.1603 0.4641 0.61881 0.15471 1.0958 0.15471 0.23205 0 0.59302-0.0516 0.37386-0.0516 0.72194-0.19338 0.34808-0.14181 0.59302-0.38675 0.25784-0.24495 0.25784-0.6317 0-0.45121-0.34808-0.73483-0.33519-0.29651-0.85086-0.51568-0.51567-0.23205-1.1216-0.45121-0.59302-0.21916-1.1087-0.51567-0.51567-0.3094-0.86375-0.74773-0.33519-0.45121-0.33519-1.1345 0-0.48989 0.19338-0.954 0.19338-0.47699 0.58013-0.85086 0.39965-0.37386 0.97978-0.60591 0.59302-0.23205 1.3923-0.23205 0.50278 0 0.96688 0.0902 0.477 0.0774 0.85086 0.18048 0.37386 0.10314 0.61881 0.20627 0.24494 0.0902 0.29651 0.10314z" style="stroke-width:.48344"/>
   <path d="m-73.131 123.65q-0.03868-0.0902-0.14181-0.3223-0.09024-0.23205-0.23205-0.56724-0.14181-0.33518-0.3094-0.73483-0.16759-0.41254-0.34808-0.85086h-3.2358l-1.0313 2.4752h-1.5599q0.05157-0.11603 0.24494-0.56724 0.19338-0.46411 0.477-1.1345 0.29651-0.68327 0.64459-1.5083 0.36097-0.83797 0.73483-1.7017t0.72194-1.6888q0.36097-0.83796 0.64459-1.5083 0.29651-0.68326 0.48989-1.1345 0.19338-0.4641 0.24494-0.58013 0.05157 0.11603 0.24494 0.58013 0.20627 0.45122 0.48989 1.1345 0.29651 0.67038 0.64459 1.5083 0.36097 0.82508 0.73483 1.6888t0.72194 1.7017q0.36097 0.82507 0.64459 1.5083 0.29651 0.67037 0.48989 1.1345 0.19338 0.45121 0.24494 0.56724zm-3.7257-3.8031h2.14l-0.92821-2.2432q-0.01289-0.0129-0.06446-0.16759-0.05157-0.16759-0.07735-0.29651-0.02578 0.12892-0.07735 0.29651-0.05157 0.1547-0.05157 0.16759z" style="stroke-width:.48344"/>
   <path d="m-60.102 114.3q-0.4641 1.2247-0.96689 2.5397-0.50278 1.3021-1.0056 2.5912-0.48989 1.2763-0.95399 2.4623-0.45121 1.186-0.81218 2.1658l-2.1143-5.2341q-0.05157-0.11602-0.06446-0.1547-0.01289-0.0387-0.03868-0.1547-0.01289 0.0516-0.02578 0.10313 0 0.0516-0.01289 0.0902-0.01289 0.0516-0.03867 0.10313-0.4641 1.0184-0.88954 1.9853-0.18048 0.41254-0.38675 0.86375-0.19338 0.43832-0.38675 0.87664-0.19338 0.42543-0.37386 0.82508-0.18049 0.39964-0.3223 0.72194-0.92821-2.4623-1.8693-4.886-0.9411-2.4366-1.8693-4.8989h1.792q0.58013 1.6373 1.1087 3.0811 0.54146 1.4439 0.83797 2.5655 0.02578 0.10314 0.05157 0.23205 0.02578 0.12892 0.05157 0.23206 0-0.0774 0.05157-0.21917 0.06446-0.1547 0.09024-0.23205 0.01289-0.0645 0.09024-0.23205 0.07735-0.18049 0.18049-0.41254 0.10313-0.23205 0.23205-0.50278 0.12892-0.28362 0.25784-0.56724 0.3094-0.65748 0.67037-1.4439-0.18048-0.54146-0.33519-1.0313-0.14181-0.41254-0.28362-0.82508-0.12892-0.42543-0.19338-0.64459h1.5212q0.55435 1.431 1.0056 2.617 0.19338 0.50278 0.38675 1.0056 0.19338 0.48989 0.34808 0.91532 0.1547 0.41253 0.25784 0.70904 0.11603 0.29652 0.1547 0.39965 0.05157 0.11603 0.06446 0.23205 0.01289 0.10314 0.03868 0.21916 0.02578-0.11602 0.03868-0.23205 0.02578-0.11602 0.05157-0.21916 0.12892-0.58013 0.34808-1.2376 0.23205-0.67038 0.50278-1.3923 0.27073-0.72194 0.56724-1.4826 0.3094-0.76062 0.59302-1.5341z" style="stroke-width:.48344"/>
   <path d="m-52.107 123.65h-0.85086q-0.01289 0-0.25784-0.28362-0.23205-0.29651-0.60591-0.77351-0.39965 0.51567-1.0958 0.83797-0.68326 0.32229-1.5341 0.32229-0.65748 0-1.2118-0.19337-0.54146-0.20627-0.9411-0.56724-0.39964-0.36097-0.61881-0.83797t-0.21916-1.0442q0-0.51567 0.18048-0.96688 0.19338-0.45122 0.51567-0.79929 0.3223-0.34808 0.76062-0.58014 0.43832-0.24494 0.92821-0.34807-0.29651-0.39965-0.50278-0.69616-0.20627-0.29651-0.28362-0.45121-0.18048-0.34808-0.3094-0.67038-0.12892-0.32229-0.12892-0.73483 0-0.43832 0.16759-0.79929 0.18048-0.36097 0.4641-0.60592 0.29651-0.25783 0.68326-0.38675 0.38676-0.14181 0.82508-0.14181 0.56724-0.0129 1.0442 0.16759 0.477 0.1676 0.77351 0.36097 0 0.0129-0.06446 0.10314-0.05157 0.0774-0.12892 0.18048-0.06446 0.0902-0.12892 0.1676-0.05157 0.0773-0.05157 0.0902-0.25784-0.14181-0.54146-0.24495-0.28362-0.11602-0.61881-0.14181-0.3223-0.0129-0.61881 0.0645-0.29651 0.0773-0.52856 0.24495-0.23205 0.16759-0.37386 0.42543-0.14181 0.24494-0.14181 0.58013 0 0.20627 0.05157 0.39964 0.05157 0.18049 0.10314 0.33519 0.06446 0.14181 0.11603 0.24494 0.05157 0.0903 0.06446 0.10314l3.2487 4.2543 1.1087-2.9006h0.76062l-1.3665 3.5452zm-4.4606-4.5766q-0.38675 0.0129-0.77351 0.16759-0.38675 0.14181-0.69616 0.41254-0.3094 0.27073-0.50278 0.6317-0.18048 0.36097-0.18048 0.79929 0 0.477 0.19338 0.85086 0.19338 0.36097 0.50278 0.6188 0.3223 0.24495 0.73483 0.37387 0.42543 0.12892 0.87664 0.12892 0.3223 0 0.64459-0.0774 0.33519-0.0773 0.61881-0.20626 0.28362-0.14181 0.51567-0.3223 0.23205-0.19338 0.37386-0.41254-0.54146-0.68326-1.1603-1.4568-0.60592-0.7864-1.1474-1.5083z" style="stroke-width:.48344"/>
   <path d="m-45.012 114.78-0.56724 1.2892q-0.54146-0.19338-1.07-0.30941-0.52856-0.11602-0.97978-0.11602-0.7864 0-1.2505 0.3094-0.45121 0.3094-0.45121 0.7864 0 0.41254 0.33519 0.67038 0.34808 0.25783 0.86375 0.4641t1.1087 0.42543q0.60592 0.20627 1.1216 0.54146 0.51567 0.33518 0.85086 0.85085 0.34808 0.51568 0.34808 1.315 0 0.61881-0.23205 1.1216-0.21916 0.50278-0.67037 0.86375-0.45121 0.36097-1.1474 0.56724-0.68327 0.19337-1.6115 0.19337-0.56724 0-1.0313-0.0773t-0.83797-0.19338q-0.36097-0.11602-0.64459-0.24494-0.28362-0.14181-0.48989-0.27073l0.68327-1.3794q0.54146 0.29651 1.1603 0.4641 0.61881 0.15471 1.0958 0.15471 0.23205 0 0.59302-0.0516 0.37386-0.0516 0.72194-0.19338 0.34808-0.14181 0.59302-0.38675 0.25784-0.24495 0.25784-0.6317 0-0.45121-0.34808-0.73483-0.33519-0.29651-0.85086-0.51568-0.51567-0.23205-1.1216-0.45121-0.59302-0.21916-1.1087-0.51567-0.51567-0.3094-0.86375-0.74773-0.33519-0.45121-0.33519-1.1345 0-0.48989 0.19338-0.954 0.19338-0.47699 0.58013-0.85086 0.39965-0.37386 0.97978-0.60591 0.59302-0.23205 1.3923-0.23205 0.50278 0 0.96688 0.0902 0.477 0.0774 0.85086 0.18048 0.37386 0.10314 0.61881 0.20627 0.24494 0.0902 0.29651 0.10314z" style="stroke-width:.48344"/>
   <path d="m-43.203 123.65v-9.3981h6.2396v1.431h-4.6668v2.5268h4.1512v1.4697h-4.1512v2.501h4.8473v1.4697z" style="stroke-width:.48344"/>
   <path d="m-24.095 114.3q-0.4641 1.2247-0.96689 2.5397-0.50278 1.3021-1.0056 2.5912-0.48989 1.2763-0.95399 2.4623-0.45121 1.186-0.81218 2.1658l-2.1143-5.2341q-0.05157-0.11602-0.06446-0.1547-0.01289-0.0387-0.03868-0.1547-0.01289 0.0516-0.02578 0.10313 0 0.0516-0.01289 0.0902-0.01289 0.0516-0.03868 0.10313-0.4641 1.0184-0.88953 1.9853-0.18048 0.41254-0.38675 0.86375-0.19338 0.43832-0.38675 0.87664-0.19338 0.42543-0.37386 0.82508-0.18049 0.39964-0.3223 0.72194-0.92821-2.4623-1.8693-4.886-0.9411-2.4366-1.8693-4.8989h1.792q0.58013 1.6373 1.1087 3.0811 0.54146 1.4439 0.83797 2.5655 0.02578 0.10314 0.05157 0.23205 0.02578 0.12892 0.05157 0.23206 0-0.0774 0.05157-0.21917 0.06446-0.1547 0.09024-0.23205 0.01289-0.0645 0.09024-0.23205 0.07735-0.18049 0.18049-0.41254 0.10313-0.23205 0.23205-0.50278 0.12892-0.28362 0.25784-0.56724 0.3094-0.65748 0.67037-1.4439-0.18048-0.54146-0.33519-1.0313-0.14181-0.41254-0.28362-0.82508-0.12892-0.42543-0.19338-0.64459h1.5212q0.55435 1.431 1.0056 2.617 0.19338 0.50278 0.38675 1.0056 0.19338 0.48989 0.34808 0.91532 0.1547 0.41253 0.25784 0.70904 0.11603 0.29652 0.1547 0.39965 0.05157 0.11603 0.06446 0.23205 0.01289 0.10314 0.03868 0.21916 0.02578-0.11602 0.03867-0.23205 0.02578-0.11602 0.05157-0.21916 0.12892-0.58013 0.34808-1.2376 0.23205-0.67038 0.50278-1.3923 0.27073-0.72194 0.56724-1.4826 0.3094-0.76062 0.59302-1.5341z" style="stroke-width:.48344"/>
  </g>
  <g transform="matrix(1.5146 1.5386 -1.5146 1.5386 311.53 -359.77)" style="stroke-width:.84598;stroke:#000000">
   <path d="m33.973 213.13 9.1865 9.2087s0.94411 0.37231 0.7562 0.66808c-0.27962 0.2972-0.63459-0.4739-0.7562-0.66808" style="fill:none;stroke-linecap:round;stroke-linejoin:round;stroke-width:.84598;stroke:#000000"/>
   <path d="m35.484 222.51v-1.9718h1.9718" style="fill:none;stroke-linecap:square;stroke-width:.84598;stroke:#000000"/>
   <path d="m37.455 220.54v-1.9718h1.9718" style="fill:none;stroke-linecap:square;stroke-width:.84598;stroke:#000000"/>
   <path d="m39.427 218.57v-1.9718h1.9718" style="fill:none;stroke-linecap:square;stroke-width:.84598;stroke:#000000"/>
   <path d="m41.399 216.6v-1.9718h1.9718" style="fill:none;stroke-linecap:square;stroke-width:.84598;stroke:#000000"/>
   <path d="m43.371 214.63v-1.9718" style="fill:none;stroke-linecap:square;stroke-width:.84598;stroke:#000000"/>
   <path d="m33.512 222.51h1.9718" style="fill:none;stroke-linecap:square;stroke-width:.84598;stroke:#000000"/>
  </g>
 </g>
</svg>
