<svg width="300" height="300" version="1.1" viewBox="0 0 79.375 79.375" xmlns="http://www.w3.org/2000/svg">
 <defs>
  <clipPath id="clipPath22">
   <path d="m0 358h394.67v-358h-394.67z"/>
  </clipPath>
  <clipPath id="clipPath22-2">
   <path d="m0 358h394.67v-358h-394.67z"/>
  </clipPath>
  <mask id="mask6469" x="0" y="0" width="1" height="1" maskUnits="userSpaceOnUse">
   <g clip-path="url(#clipPath6467)">
    <path d="m56 162h25v25h-25z" style="fill-opacity:.99;fill:#000000"/>
   </g>
  </mask>
  <clipPath id="clipPath6467">
   <path d="m56 162h25v25h-25z"/>
  </clipPath>
  <clipPath id="clipPath6483">
   <path d="m56 162h25v25h-25z"/>
  </clipPath>
  <clipPath id="clipPath6487">
   <path d="m56 162h25v25h-25z"/>
  </clipPath>
 </defs>
 <g transform="matrix(.7216 0 0 .7216 11.05 -145.99)">
  <g transform="translate(-3.0069,-4.6574e-6)">
   <g transform="matrix(.98162 0 0 .98162 123.29 270.93)">
    <g transform="translate(-.5854 1.6087)">
     <g transform="matrix(.19697 0 0 -.19697 -120.39 19.777)">
      <g clip-path="url(#clipPath22)">
       <g transform="translate(32.276,-48.733)">
        <g clip-path="url(#clipPath22-2)">
         <g transform="matrix(.26672 0 0 .26672 50.646 207.4)">
          <path d="m385.04 272.13c-6.6996-0.62764-18.045-0.97065-28.393-0.97065-11.661 0-26.826 0.34301-35.264 0.97065v-6.5573c27.424-2.8517 31.728-11.148 31.728-47.067v-86.324c0-49.633-13.397-84.554-59.496-84.554-34.781 0-45.157 22.807-45.157 66.537v123.33c0 23.775 4.3041 27.14 26.485 28.081v6.5573c-12.146-0.62764-32.073-0.97065-51.714-0.97065-20.241 0-40.054 0.34301-51.202 0.97065v-6.5573c20.896-0.94146 24.575-4.3059 24.575-28.081v-102.6c0-41.964 4.4482-65.256 25.686-82.16 16.107-12.943 38.457-16.592 58.87-16.592 33.183 0 54.907 11.803 66.053 30.475 10.234 17.076 13.427 40.853 13.427 69.246v86.636c0 31.588 3.649 40.225 24.403 43.077z" style="fill:#d40000"/>
          <path d="m519.06 276.75c-67.964 0-115.66-49.149-115.66-122.22 0-74.833 46.097-118.39 115.34-118.39 28.081 0 44.36 9.8926 60.324 21.21 2.7076 1.768 4.9609 2.7076 6.8712 2.7076 4.6179 0 6.6978-5.9005 7.9823-19.3h7.497c-0.96883 17.39-1.2826 40.853-1.2826 82.332h-7.6685c-3.0232-31.9-7.0135-50.089-23.92-63.174-10.548-10.548-26.341-15.793-40.709-15.793-46.753 0-66.367 53.11-66.367 111.7 0 57.757 18.189 112.49 65.112 112.49 15.452 0 30.475-5.5885 41.309-16.136 16.933-13.399 21.068-29.192 24.575-59.182h7.6685c0 39.882 0.31381 62.375 1.2826 79.139h-7.497c-1.2845-13.399-3.8498-19.471-8.4676-19.471-1.768 0-3.9921 0.96882-6.3858 2.8791-14.368 11.004-31.274 21.21-60.01 21.21z" style="fill:#d40000"/>
          <path d="m749.49 276.75c-67.964 0-115.66-49.149-115.66-122.22 0-74.833 46.097-118.39 115.34-118.39 28.081 0 44.36 9.8926 60.324 21.21 2.7076 1.768 4.9609 2.7076 6.8712 2.7076 4.6179 0 6.6978-5.9005 7.9823-19.3h7.497c-0.96882 17.39-1.2826 40.853-1.2826 82.332h-7.6685c-3.0232-31.9-7.0135-50.089-23.92-63.174-10.548-10.548-26.341-15.793-40.709-15.793-46.753 0-66.367 53.11-66.367 111.7 0 57.757 18.189 112.49 65.112 112.49 15.452 0 30.475-5.5885 41.309-16.136 16.933-13.399 21.068-29.192 24.574-59.182h7.6685c0 39.882 0.31383 62.375 1.2826 79.139h-7.497c-1.2845-13.399-3.8497-19.471-8.4676-19.471-1.768 0-3.9921 0.96882-6.3858 2.8791-14.368 11.004-31.274 21.21-60.01 21.21z" style="fill:#d40000"/>
          <path d="m962.21 272.13c-11.803-0.62764-31.272-0.97065-49.461-0.97065-20.896 0-40.539 0.34301-51.543 0.97065v-6.5573c20.582-0.94146 24.43-4.3059 24.43-28.081v-162.1c0-23.775-3.6764-27.14-24.43-28.109v-6.5281c11.004 0.62762 30.647 0.96882 51.543 0.96882 18.189 0 37.658-0.3412 49.461-0.96882v6.5281c-20.725 0.96883-24.574 4.3332-24.574 28.109v162.1c0 23.775 3.6782 27.14 24.574 28.081z" style="fill:#d40000"/>
          <path d="m169.08-124.28-23.148 66.71h-0.45612c0.62581-9.9072 0.93962-19.187 0.93962-27.853v-38.857h-11.859v79.879h18.417l22.179-63.545h0.31383l22.836 63.545h18.473v-79.879h-12.573v39.512c0 3.9702 0.1003 9.1372 0.31382 15.508 0.20616 6.3658 0.37768 10.221 0.51268 11.575h-0.42693l-24.003-66.595z" style="fill-opacity:.99216;fill:#d40000"/>
          <path d="m319.02-124.28-7.9823 22.179h-30.533l-7.8108-22.179h-13.77l29.877 80.193h14.226l29.877-80.193zm-11.403 33.44-7.4988 21.752c-0.55467 1.4395-1.31 3.7348-2.2807 6.8712-0.95423 3.1345-1.6092 5.4298-1.9668 6.8985-0.99071-4.4902-2.4376-9.3926-4.3332-14.711l-7.2124-20.811z" style="fill-opacity:.99216;fill:#d40000"/>
          <path d="m397.65-80.835 18.929 36.432h14.198l-26.627-48.892v-30.988h-13.085v30.532l-26.512 49.348h14.197z" style="fill-opacity:.99216;fill:#d40000"/>
          <path d="m485.81-124.28h-12.943v79.879h45.071v-11.033h-32.128v-24.972h30.105v-11.089h-30.105z" style="fill-opacity:.99216;fill:#d40000"/>
          <path d="m613.62-124.28-7.9823 22.179h-30.533l-7.8108-22.179h-13.77l29.877 80.193h14.226l29.877-80.193zm-11.403 33.44-7.4988 21.752c-0.55648 1.4395-1.3118 3.7348-2.2807 6.8712-0.95422 3.1345-1.611 5.4298-1.9668 6.8985-0.99072-4.4902-2.4376-9.3926-4.3332-14.711l-7.2123-20.811z" style="fill-opacity:.99216;fill:#d40000"/>
          <path d="m669.7-44.403h13.056v-79.879h-13.056z" style="fill-opacity:.99216;fill:#d40000"/>
          <path d="m748.4-81.548h9.0642c6.0793 0 10.491 1.1184 13.228 3.3644 2.7368 2.2588 4.1052 5.6159 4.1052 10.062 0 4.5194-1.4815 7.7615-4.4464 9.7211-2.9503 1.9741-7.3838 2.9649-13.314 2.9649h-8.6373zm0-10.834v-31.9h-13.058v79.879h22.551c10.32 0 17.946-1.9303 22.892-5.7874 4.9591-3.8625 7.4404-9.6919 7.4404-17.503 0-9.9436-5.1744-17.019-15.508-21.239l22.549-35.35h-14.852l-19.13 31.9z" style="fill-opacity:.99216;fill:#d40000"/>
          <g transform="matrix(1.8245,0,0,-1.8245,-207.68,380.21)">
           <path d="m110.1 133.02c-36.434-0.016-56.395 32.703-50.606 45.125" style="fill:none;stroke-linecap:round;stroke-width:3.589;stroke:#d40000"/>
          </g>
          <g transform="matrix(1.8245,0,0,-1.8245,-207.68,380.21)">
           <g mask="url(#mask6469)">
            <g clip-path="url(#clipPath6483)">
             <g clip-path="url(#clipPath6487)">
              <g transform="matrix(-1 .26795 .26795 1 0 0)">
               <path d="m-26.607 170.81c4.938-3.28 11.599-1.936 14.882 3.001 3.28 4.937 1.941 11.601-2.996 14.884-4.936 3.284-11.599 1.948-14.886-2.987-3.287-4.932-1.952-11.599 2.979-14.889" style="fill:#d40000;stroke-linecap:round;stroke-width:1.7861;stroke:#d40000"/>
              </g>
             </g>
            </g>
           </g>
          </g>
          <path d="m-32.421 272.19v-6.5438c20.589-0.95763 24.42-4.3095 24.42-28.091v-96.75c-33.658-0.33422-59.863-15.574-76.323-33.731-8.3252-9.1838-14.194-19.112-17.334-28.405-2.317-6.8574-3.2086-13.42-2.2414-19.131a21.977 21.977 0 0 1 14.746-18.014 21.977 21.977 0 0 1 27.845 13.791 21.977 21.977 0 0 1-13.778 27.851l-0.03989 0.0146a21.977 21.977 0 0 1-18.623-2.1966c3.0559 7.0733 7.8623 14.613 14.279 21.692 15.355 16.939 39.778 31.247 71.469 31.58v-58.859c0-23.781-3.671-27.133-24.42-28.091v-6.5438c14.205 0.47886 33.038 0.95747 51.872 0.95747 23.302 0 46.126-0.47861 59.533-0.95747v7.182c-29.048 0.319-34.954 3.8302-34.954 29.367v56.979h17.397c77.09 0 97.679 41.498 97.679 73.1 0 37.986-29.687 64.481-90.497 64.481-8.2995 0-30.006-0.63829-51.393-0.63829-18.355 0-38.625 0.31902-49.637 0.95742zm96.721-6.5438c29.687 0 40.54-20.589 40.54-61.767 0-33.358-8.14-63.044-46.765-63.044h-14.045v96.721c0 22.504 3.5114 28.091 20.27 28.091z" style="fill:#d40000"/>
         </g>
        </g>
       </g>
      </g>
     </g>
    </g>
   </g>
  </g>
 </g>
</svg>
